<?xml version="1.0" encoding="utf-8" standalone="no"?>
<!DOCTYPE svg PUBLIC "-//W3C//DTD SVG 1.1//EN"
  "http://www.w3.org/Graphics/SVG/1.1/DTD/svg11.dtd">
<svg xmlns:xlink="http://www.w3.org/1999/xlink" width="460.8pt" height="345.6pt" viewBox="0 0 460.8 345.6" xmlns="http://www.w3.org/2000/svg" version="1.1">
 <metadata>
  <rdf:RDF xmlns:dc="http://purl.org/dc/elements/1.1/" xmlns:cc="http://creativecommons.org/ns#" xmlns:rdf="http://www.w3.org/1999/02/22-rdf-syntax-ns#">
   <cc:Work>
    <dc:type rdf:resource="http://purl.org/dc/dcmitype/StillImage"/>
    <dc:date>2025-02-21T18:08:35.158515</dc:date>
    <dc:format>image/svg+xml</dc:format>
    <dc:creator>
     <cc:Agent>
      <dc:title>Matplotlib v3.10.0, https://matplotlib.org/</dc:title>
     </cc:Agent>
    </dc:creator>
   </cc:Work>
  </rdf:RDF>
 </metadata>
 <defs>
  <style type="text/css">*{stroke-linejoin: round; stroke-linecap: butt}</style>
 </defs>
 <g id="figure_1">
  <g id="patch_1">
   <path d="M 0 345.6 
L 460.8 345.6 
L 460.8 0 
L 0 0 
z
" style="fill: #ffffff"/>
  </g>
  <g id="axes_1">
   <g id="patch_2">
    <path d="M 57.6 307.584 
L 414.72 307.584 
L 414.72 41.472 
L 57.6 41.472 
z
" style="fill: #ffffff"/>
   </g>
   <g id="matplotlib.axis_1">
    <g id="xtick_1">
     <g id="line2d_1">
      <defs>
       <path id="m26c1bc82bb" d="M 0 0 
L 0 3.5 
" style="stroke: #000000; stroke-width: 0.8"/>
      </defs>
      <g>
       <use xlink:href="#m26c1bc82bb" x="73.832727" y="307.584" style="stroke: #000000; stroke-width: 0.8"/>
      </g>
     </g>
     <g id="text_1">
      <!-- 0 -->
      <g transform="translate(70.651477 322.182437) scale(0.1 -0.1)">
       <defs>
        <path id="DejaVuSans-30" d="M 2034 4250 
Q 1547 4250 1301 3770 
Q 1056 3291 1056 2328 
Q 1056 1369 1301 889 
Q 1547 409 2034 409 
Q 2525 409 2770 889 
Q 3016 1369 3016 2328 
Q 3016 3291 2770 3770 
Q 2525 4250 2034 4250 
z
M 2034 4750 
Q 2819 4750 3233 4129 
Q 3647 3509 3647 2328 
Q 3647 1150 3233 529 
Q 2819 -91 2034 -91 
Q 1250 -91 836 529 
Q 422 1150 422 2328 
Q 422 3509 836 4129 
Q 1250 4750 2034 4750 
z
" transform="scale(0.015625)"/>
       </defs>
       <use xlink:href="#DejaVuSans-30"/>
      </g>
     </g>
    </g>
    <g id="xtick_2">
     <g id="line2d_2">
      <g>
       <use xlink:href="#m26c1bc82bb" x="123.77958" y="307.584" style="stroke: #000000; stroke-width: 0.8"/>
      </g>
     </g>
     <g id="text_2">
      <!-- 10 -->
      <g transform="translate(117.41708 322.182437) scale(0.1 -0.1)">
       <defs>
        <path id="DejaVuSans-31" d="M 794 531 
L 1825 531 
L 1825 4091 
L 703 3866 
L 703 4441 
L 1819 4666 
L 2450 4666 
L 2450 531 
L 3481 531 
L 3481 0 
L 794 0 
L 794 531 
z
" transform="scale(0.015625)"/>
       </defs>
       <use xlink:href="#DejaVuSans-31"/>
       <use xlink:href="#DejaVuSans-30" transform="translate(63.623047 0)"/>
      </g>
     </g>
    </g>
    <g id="xtick_3">
     <g id="line2d_3">
      <g>
       <use xlink:href="#m26c1bc82bb" x="173.726434" y="307.584" style="stroke: #000000; stroke-width: 0.8"/>
      </g>
     </g>
     <g id="text_3">
      <!-- 20 -->
      <g transform="translate(167.363934 322.182437) scale(0.1 -0.1)">
       <defs>
        <path id="DejaVuSans-32" d="M 1228 531 
L 3431 531 
L 3431 0 
L 469 0 
L 469 531 
Q 828 903 1448 1529 
Q 2069 2156 2228 2338 
Q 2531 2678 2651 2914 
Q 2772 3150 2772 3378 
Q 2772 3750 2511 3984 
Q 2250 4219 1831 4219 
Q 1534 4219 1204 4116 
Q 875 4013 500 3803 
L 500 4441 
Q 881 4594 1212 4672 
Q 1544 4750 1819 4750 
Q 2544 4750 2975 4387 
Q 3406 4025 3406 3419 
Q 3406 3131 3298 2873 
Q 3191 2616 2906 2266 
Q 2828 2175 2409 1742 
Q 1991 1309 1228 531 
z
" transform="scale(0.015625)"/>
       </defs>
       <use xlink:href="#DejaVuSans-32"/>
       <use xlink:href="#DejaVuSans-30" transform="translate(63.623047 0)"/>
      </g>
     </g>
    </g>
    <g id="xtick_4">
     <g id="line2d_4">
      <g>
       <use xlink:href="#m26c1bc82bb" x="223.673287" y="307.584" style="stroke: #000000; stroke-width: 0.8"/>
      </g>
     </g>
     <g id="text_4">
      <!-- 30 -->
      <g transform="translate(217.310787 322.182437) scale(0.1 -0.1)">
       <defs>
        <path id="DejaVuSans-33" d="M 2597 2516 
Q 3050 2419 3304 2112 
Q 3559 1806 3559 1356 
Q 3559 666 3084 287 
Q 2609 -91 1734 -91 
Q 1441 -91 1130 -33 
Q 819 25 488 141 
L 488 750 
Q 750 597 1062 519 
Q 1375 441 1716 441 
Q 2309 441 2620 675 
Q 2931 909 2931 1356 
Q 2931 1769 2642 2001 
Q 2353 2234 1838 2234 
L 1294 2234 
L 1294 2753 
L 1863 2753 
Q 2328 2753 2575 2939 
Q 2822 3125 2822 3475 
Q 2822 3834 2567 4026 
Q 2313 4219 1838 4219 
Q 1578 4219 1281 4162 
Q 984 4106 628 3988 
L 628 4550 
Q 988 4650 1302 4700 
Q 1616 4750 1894 4750 
Q 2613 4750 3031 4423 
Q 3450 4097 3450 3541 
Q 3450 3153 3228 2886 
Q 3006 2619 2597 2516 
z
" transform="scale(0.015625)"/>
       </defs>
       <use xlink:href="#DejaVuSans-33"/>
       <use xlink:href="#DejaVuSans-30" transform="translate(63.623047 0)"/>
      </g>
     </g>
    </g>
    <g id="xtick_5">
     <g id="line2d_5">
      <g>
       <use xlink:href="#m26c1bc82bb" x="273.62014" y="307.584" style="stroke: #000000; stroke-width: 0.8"/>
      </g>
     </g>
     <g id="text_5">
      <!-- 40 -->
      <g transform="translate(267.25764 322.182437) scale(0.1 -0.1)">
       <defs>
        <path id="DejaVuSans-34" d="M 2419 4116 
L 825 1625 
L 2419 1625 
L 2419 4116 
z
M 2253 4666 
L 3047 4666 
L 3047 1625 
L 3713 1625 
L 3713 1100 
L 3047 1100 
L 3047 0 
L 2419 0 
L 2419 1100 
L 313 1100 
L 313 1709 
L 2253 4666 
z
" transform="scale(0.015625)"/>
       </defs>
       <use xlink:href="#DejaVuSans-34"/>
       <use xlink:href="#DejaVuSans-30" transform="translate(63.623047 0)"/>
      </g>
     </g>
    </g>
    <g id="xtick_6">
     <g id="line2d_6">
      <g>
       <use xlink:href="#m26c1bc82bb" x="323.566993" y="307.584" style="stroke: #000000; stroke-width: 0.8"/>
      </g>
     </g>
     <g id="text_6">
      <!-- 50 -->
      <g transform="translate(317.204493 322.182437) scale(0.1 -0.1)">
       <defs>
        <path id="DejaVuSans-35" d="M 691 4666 
L 3169 4666 
L 3169 4134 
L 1269 4134 
L 1269 2991 
Q 1406 3038 1543 3061 
Q 1681 3084 1819 3084 
Q 2600 3084 3056 2656 
Q 3513 2228 3513 1497 
Q 3513 744 3044 326 
Q 2575 -91 1722 -91 
Q 1428 -91 1123 -41 
Q 819 9 494 109 
L 494 744 
Q 775 591 1075 516 
Q 1375 441 1709 441 
Q 2250 441 2565 725 
Q 2881 1009 2881 1497 
Q 2881 1984 2565 2268 
Q 2250 2553 1709 2553 
Q 1456 2553 1204 2497 
Q 953 2441 691 2322 
L 691 4666 
z
" transform="scale(0.015625)"/>
       </defs>
       <use xlink:href="#DejaVuSans-35"/>
       <use xlink:href="#DejaVuSans-30" transform="translate(63.623047 0)"/>
      </g>
     </g>
    </g>
    <g id="xtick_7">
     <g id="line2d_7">
      <g>
       <use xlink:href="#m26c1bc82bb" x="373.513846" y="307.584" style="stroke: #000000; stroke-width: 0.8"/>
      </g>
     </g>
     <g id="text_7">
      <!-- 60 -->
      <g transform="translate(367.151346 322.182437) scale(0.1 -0.1)">
       <defs>
        <path id="DejaVuSans-36" d="M 2113 2584 
Q 1688 2584 1439 2293 
Q 1191 2003 1191 1497 
Q 1191 994 1439 701 
Q 1688 409 2113 409 
Q 2538 409 2786 701 
Q 3034 994 3034 1497 
Q 3034 2003 2786 2293 
Q 2538 2584 2113 2584 
z
M 3366 4563 
L 3366 3988 
Q 3128 4100 2886 4159 
Q 2644 4219 2406 4219 
Q 1781 4219 1451 3797 
Q 1122 3375 1075 2522 
Q 1259 2794 1537 2939 
Q 1816 3084 2150 3084 
Q 2853 3084 3261 2657 
Q 3669 2231 3669 1497 
Q 3669 778 3244 343 
Q 2819 -91 2113 -91 
Q 1303 -91 875 529 
Q 447 1150 447 2328 
Q 447 3434 972 4092 
Q 1497 4750 2381 4750 
Q 2619 4750 2861 4703 
Q 3103 4656 3366 4563 
z
" transform="scale(0.015625)"/>
       </defs>
       <use xlink:href="#DejaVuSans-36"/>
       <use xlink:href="#DejaVuSans-30" transform="translate(63.623047 0)"/>
      </g>
     </g>
    </g>
    <g id="text_8">
     <!-- Epochs -->
     <g transform="translate(218.244375 335.860562) scale(0.1 -0.1)">
      <defs>
       <path id="DejaVuSans-45" d="M 628 4666 
L 3578 4666 
L 3578 4134 
L 1259 4134 
L 1259 2753 
L 3481 2753 
L 3481 2222 
L 1259 2222 
L 1259 531 
L 3634 531 
L 3634 0 
L 628 0 
L 628 4666 
z
" transform="scale(0.015625)"/>
       <path id="DejaVuSans-70" d="M 1159 525 
L 1159 -1331 
L 581 -1331 
L 581 3500 
L 1159 3500 
L 1159 2969 
Q 1341 3281 1617 3432 
Q 1894 3584 2278 3584 
Q 2916 3584 3314 3078 
Q 3713 2572 3713 1747 
Q 3713 922 3314 415 
Q 2916 -91 2278 -91 
Q 1894 -91 1617 61 
Q 1341 213 1159 525 
z
M 3116 1747 
Q 3116 2381 2855 2742 
Q 2594 3103 2138 3103 
Q 1681 3103 1420 2742 
Q 1159 2381 1159 1747 
Q 1159 1113 1420 752 
Q 1681 391 2138 391 
Q 2594 391 2855 752 
Q 3116 1113 3116 1747 
z
" transform="scale(0.015625)"/>
       <path id="DejaVuSans-6f" d="M 1959 3097 
Q 1497 3097 1228 2736 
Q 959 2375 959 1747 
Q 959 1119 1226 758 
Q 1494 397 1959 397 
Q 2419 397 2687 759 
Q 2956 1122 2956 1747 
Q 2956 2369 2687 2733 
Q 2419 3097 1959 3097 
z
M 1959 3584 
Q 2709 3584 3137 3096 
Q 3566 2609 3566 1747 
Q 3566 888 3137 398 
Q 2709 -91 1959 -91 
Q 1206 -91 779 398 
Q 353 888 353 1747 
Q 353 2609 779 3096 
Q 1206 3584 1959 3584 
z
" transform="scale(0.015625)"/>
       <path id="DejaVuSans-63" d="M 3122 3366 
L 3122 2828 
Q 2878 2963 2633 3030 
Q 2388 3097 2138 3097 
Q 1578 3097 1268 2742 
Q 959 2388 959 1747 
Q 959 1106 1268 751 
Q 1578 397 2138 397 
Q 2388 397 2633 464 
Q 2878 531 3122 666 
L 3122 134 
Q 2881 22 2623 -34 
Q 2366 -91 2075 -91 
Q 1284 -91 818 406 
Q 353 903 353 1747 
Q 353 2603 823 3093 
Q 1294 3584 2113 3584 
Q 2378 3584 2631 3529 
Q 2884 3475 3122 3366 
z
" transform="scale(0.015625)"/>
       <path id="DejaVuSans-68" d="M 3513 2113 
L 3513 0 
L 2938 0 
L 2938 2094 
Q 2938 2591 2744 2837 
Q 2550 3084 2163 3084 
Q 1697 3084 1428 2787 
Q 1159 2491 1159 1978 
L 1159 0 
L 581 0 
L 581 4863 
L 1159 4863 
L 1159 2956 
Q 1366 3272 1645 3428 
Q 1925 3584 2291 3584 
Q 2894 3584 3203 3211 
Q 3513 2838 3513 2113 
z
" transform="scale(0.015625)"/>
       <path id="DejaVuSans-73" d="M 2834 3397 
L 2834 2853 
Q 2591 2978 2328 3040 
Q 2066 3103 1784 3103 
Q 1356 3103 1142 2972 
Q 928 2841 928 2578 
Q 928 2378 1081 2264 
Q 1234 2150 1697 2047 
L 1894 2003 
Q 2506 1872 2764 1633 
Q 3022 1394 3022 966 
Q 3022 478 2636 193 
Q 2250 -91 1575 -91 
Q 1294 -91 989 -36 
Q 684 19 347 128 
L 347 722 
Q 666 556 975 473 
Q 1284 391 1588 391 
Q 1994 391 2212 530 
Q 2431 669 2431 922 
Q 2431 1156 2273 1281 
Q 2116 1406 1581 1522 
L 1381 1569 
Q 847 1681 609 1914 
Q 372 2147 372 2553 
Q 372 3047 722 3315 
Q 1072 3584 1716 3584 
Q 2034 3584 2315 3537 
Q 2597 3491 2834 3397 
z
" transform="scale(0.015625)"/>
      </defs>
      <use xlink:href="#DejaVuSans-45"/>
      <use xlink:href="#DejaVuSans-70" transform="translate(63.183594 0)"/>
      <use xlink:href="#DejaVuSans-6f" transform="translate(126.660156 0)"/>
      <use xlink:href="#DejaVuSans-63" transform="translate(187.841797 0)"/>
      <use xlink:href="#DejaVuSans-68" transform="translate(242.822266 0)"/>
      <use xlink:href="#DejaVuSans-73" transform="translate(306.201172 0)"/>
     </g>
    </g>
   </g>
   <g id="matplotlib.axis_2">
    <g id="ytick_1">
     <g id="line2d_8">
      <defs>
       <path id="m07b25bf609" d="M 0 0 
L -3.5 0 
" style="stroke: #000000; stroke-width: 0.8"/>
      </defs>
      <g>
       <use xlink:href="#m07b25bf609" x="57.6" y="307.584" style="stroke: #000000; stroke-width: 0.8"/>
      </g>
     </g>
     <g id="text_9">
      <!-- 0.1 -->
      <g transform="translate(34.696875 311.383219) scale(0.1 -0.1)">
       <defs>
        <path id="DejaVuSans-2e" d="M 684 794 
L 1344 794 
L 1344 0 
L 684 0 
L 684 794 
z
" transform="scale(0.015625)"/>
       </defs>
       <use xlink:href="#DejaVuSans-30"/>
       <use xlink:href="#DejaVuSans-2e" transform="translate(63.623047 0)"/>
       <use xlink:href="#DejaVuSans-31" transform="translate(95.410156 0)"/>
      </g>
     </g>
    </g>
    <g id="ytick_2">
     <g id="line2d_9">
      <g>
       <use xlink:href="#m07b25bf609" x="57.6" y="278.016" style="stroke: #000000; stroke-width: 0.8"/>
      </g>
     </g>
     <g id="text_10">
      <!-- 0.2 -->
      <g transform="translate(34.696875 281.815219) scale(0.1 -0.1)">
       <use xlink:href="#DejaVuSans-30"/>
       <use xlink:href="#DejaVuSans-2e" transform="translate(63.623047 0)"/>
       <use xlink:href="#DejaVuSans-32" transform="translate(95.410156 0)"/>
      </g>
     </g>
    </g>
    <g id="ytick_3">
     <g id="line2d_10">
      <g>
       <use xlink:href="#m07b25bf609" x="57.6" y="248.448" style="stroke: #000000; stroke-width: 0.8"/>
      </g>
     </g>
     <g id="text_11">
      <!-- 0.3 -->
      <g transform="translate(34.696875 252.247219) scale(0.1 -0.1)">
       <use xlink:href="#DejaVuSans-30"/>
       <use xlink:href="#DejaVuSans-2e" transform="translate(63.623047 0)"/>
       <use xlink:href="#DejaVuSans-33" transform="translate(95.410156 0)"/>
      </g>
     </g>
    </g>
    <g id="ytick_4">
     <g id="line2d_11">
      <g>
       <use xlink:href="#m07b25bf609" x="57.6" y="218.88" style="stroke: #000000; stroke-width: 0.8"/>
      </g>
     </g>
     <g id="text_12">
      <!-- 0.4 -->
      <g transform="translate(34.696875 222.679219) scale(0.1 -0.1)">
       <use xlink:href="#DejaVuSans-30"/>
       <use xlink:href="#DejaVuSans-2e" transform="translate(63.623047 0)"/>
       <use xlink:href="#DejaVuSans-34" transform="translate(95.410156 0)"/>
      </g>
     </g>
    </g>
    <g id="ytick_5">
     <g id="line2d_12">
      <g>
       <use xlink:href="#m07b25bf609" x="57.6" y="189.312" style="stroke: #000000; stroke-width: 0.8"/>
      </g>
     </g>
     <g id="text_13">
      <!-- 0.5 -->
      <g transform="translate(34.696875 193.111219) scale(0.1 -0.1)">
       <use xlink:href="#DejaVuSans-30"/>
       <use xlink:href="#DejaVuSans-2e" transform="translate(63.623047 0)"/>
       <use xlink:href="#DejaVuSans-35" transform="translate(95.410156 0)"/>
      </g>
     </g>
    </g>
    <g id="ytick_6">
     <g id="line2d_13">
      <g>
       <use xlink:href="#m07b25bf609" x="57.6" y="159.744" style="stroke: #000000; stroke-width: 0.8"/>
      </g>
     </g>
     <g id="text_14">
      <!-- 0.6 -->
      <g transform="translate(34.696875 163.543219) scale(0.1 -0.1)">
       <use xlink:href="#DejaVuSans-30"/>
       <use xlink:href="#DejaVuSans-2e" transform="translate(63.623047 0)"/>
       <use xlink:href="#DejaVuSans-36" transform="translate(95.410156 0)"/>
      </g>
     </g>
    </g>
    <g id="ytick_7">
     <g id="line2d_14">
      <g>
       <use xlink:href="#m07b25bf609" x="57.6" y="130.176" style="stroke: #000000; stroke-width: 0.8"/>
      </g>
     </g>
     <g id="text_15">
      <!-- 0.7 -->
      <g transform="translate(34.696875 133.975219) scale(0.1 -0.1)">
       <defs>
        <path id="DejaVuSans-37" d="M 525 4666 
L 3525 4666 
L 3525 4397 
L 1831 0 
L 1172 0 
L 2766 4134 
L 525 4134 
L 525 4666 
z
" transform="scale(0.015625)"/>
       </defs>
       <use xlink:href="#DejaVuSans-30"/>
       <use xlink:href="#DejaVuSans-2e" transform="translate(63.623047 0)"/>
       <use xlink:href="#DejaVuSans-37" transform="translate(95.410156 0)"/>
      </g>
     </g>
    </g>
    <g id="ytick_8">
     <g id="line2d_15">
      <g>
       <use xlink:href="#m07b25bf609" x="57.6" y="100.608" style="stroke: #000000; stroke-width: 0.8"/>
      </g>
     </g>
     <g id="text_16">
      <!-- 0.8 -->
      <g transform="translate(34.696875 104.407219) scale(0.1 -0.1)">
       <defs>
        <path id="DejaVuSans-38" d="M 2034 2216 
Q 1584 2216 1326 1975 
Q 1069 1734 1069 1313 
Q 1069 891 1326 650 
Q 1584 409 2034 409 
Q 2484 409 2743 651 
Q 3003 894 3003 1313 
Q 3003 1734 2745 1975 
Q 2488 2216 2034 2216 
z
M 1403 2484 
Q 997 2584 770 2862 
Q 544 3141 544 3541 
Q 544 4100 942 4425 
Q 1341 4750 2034 4750 
Q 2731 4750 3128 4425 
Q 3525 4100 3525 3541 
Q 3525 3141 3298 2862 
Q 3072 2584 2669 2484 
Q 3125 2378 3379 2068 
Q 3634 1759 3634 1313 
Q 3634 634 3220 271 
Q 2806 -91 2034 -91 
Q 1263 -91 848 271 
Q 434 634 434 1313 
Q 434 1759 690 2068 
Q 947 2378 1403 2484 
z
M 1172 3481 
Q 1172 3119 1398 2916 
Q 1625 2713 2034 2713 
Q 2441 2713 2670 2916 
Q 2900 3119 2900 3481 
Q 2900 3844 2670 4047 
Q 2441 4250 2034 4250 
Q 1625 4250 1398 4047 
Q 1172 3844 1172 3481 
z
" transform="scale(0.015625)"/>
       </defs>
       <use xlink:href="#DejaVuSans-30"/>
       <use xlink:href="#DejaVuSans-2e" transform="translate(63.623047 0)"/>
       <use xlink:href="#DejaVuSans-38" transform="translate(95.410156 0)"/>
      </g>
     </g>
    </g>
    <g id="ytick_9">
     <g id="line2d_16">
      <g>
       <use xlink:href="#m07b25bf609" x="57.6" y="71.04" style="stroke: #000000; stroke-width: 0.8"/>
      </g>
     </g>
     <g id="text_17">
      <!-- 0.9 -->
      <g transform="translate(34.696875 74.839219) scale(0.1 -0.1)">
       <defs>
        <path id="DejaVuSans-39" d="M 703 97 
L 703 672 
Q 941 559 1184 500 
Q 1428 441 1663 441 
Q 2288 441 2617 861 
Q 2947 1281 2994 2138 
Q 2813 1869 2534 1725 
Q 2256 1581 1919 1581 
Q 1219 1581 811 2004 
Q 403 2428 403 3163 
Q 403 3881 828 4315 
Q 1253 4750 1959 4750 
Q 2769 4750 3195 4129 
Q 3622 3509 3622 2328 
Q 3622 1225 3098 567 
Q 2575 -91 1691 -91 
Q 1453 -91 1209 -44 
Q 966 3 703 97 
z
M 1959 2075 
Q 2384 2075 2632 2365 
Q 2881 2656 2881 3163 
Q 2881 3666 2632 3958 
Q 2384 4250 1959 4250 
Q 1534 4250 1286 3958 
Q 1038 3666 1038 3163 
Q 1038 2656 1286 2365 
Q 1534 2075 1959 2075 
z
" transform="scale(0.015625)"/>
       </defs>
       <use xlink:href="#DejaVuSans-30"/>
       <use xlink:href="#DejaVuSans-2e" transform="translate(63.623047 0)"/>
       <use xlink:href="#DejaVuSans-39" transform="translate(95.410156 0)"/>
      </g>
     </g>
    </g>
    <g id="ytick_10">
     <g id="line2d_17">
      <g>
       <use xlink:href="#m07b25bf609" x="57.6" y="41.472" style="stroke: #000000; stroke-width: 0.8"/>
      </g>
     </g>
     <g id="text_18">
      <!-- 1.0 -->
      <g transform="translate(34.696875 45.271219) scale(0.1 -0.1)">
       <use xlink:href="#DejaVuSans-31"/>
       <use xlink:href="#DejaVuSans-2e" transform="translate(63.623047 0)"/>
       <use xlink:href="#DejaVuSans-30" transform="translate(95.410156 0)"/>
      </g>
     </g>
    </g>
    <g id="text_19">
     <!-- Accuracy -->
     <g transform="translate(28.617187 197.356125) rotate(-90) scale(0.1 -0.1)">
      <defs>
       <path id="DejaVuSans-41" d="M 2188 4044 
L 1331 1722 
L 3047 1722 
L 2188 4044 
z
M 1831 4666 
L 2547 4666 
L 4325 0 
L 3669 0 
L 3244 1197 
L 1141 1197 
L 716 0 
L 50 0 
L 1831 4666 
z
" transform="scale(0.015625)"/>
       <path id="DejaVuSans-75" d="M 544 1381 
L 544 3500 
L 1119 3500 
L 1119 1403 
Q 1119 906 1312 657 
Q 1506 409 1894 409 
Q 2359 409 2629 706 
Q 2900 1003 2900 1516 
L 2900 3500 
L 3475 3500 
L 3475 0 
L 2900 0 
L 2900 538 
Q 2691 219 2414 64 
Q 2138 -91 1772 -91 
Q 1169 -91 856 284 
Q 544 659 544 1381 
z
M 1991 3584 
L 1991 3584 
z
" transform="scale(0.015625)"/>
       <path id="DejaVuSans-72" d="M 2631 2963 
Q 2534 3019 2420 3045 
Q 2306 3072 2169 3072 
Q 1681 3072 1420 2755 
Q 1159 2438 1159 1844 
L 1159 0 
L 581 0 
L 581 3500 
L 1159 3500 
L 1159 2956 
Q 1341 3275 1631 3429 
Q 1922 3584 2338 3584 
Q 2397 3584 2469 3576 
Q 2541 3569 2628 3553 
L 2631 2963 
z
" transform="scale(0.015625)"/>
       <path id="DejaVuSans-61" d="M 2194 1759 
Q 1497 1759 1228 1600 
Q 959 1441 959 1056 
Q 959 750 1161 570 
Q 1363 391 1709 391 
Q 2188 391 2477 730 
Q 2766 1069 2766 1631 
L 2766 1759 
L 2194 1759 
z
M 3341 1997 
L 3341 0 
L 2766 0 
L 2766 531 
Q 2569 213 2275 61 
Q 1981 -91 1556 -91 
Q 1019 -91 701 211 
Q 384 513 384 1019 
Q 384 1609 779 1909 
Q 1175 2209 1959 2209 
L 2766 2209 
L 2766 2266 
Q 2766 2663 2505 2880 
Q 2244 3097 1772 3097 
Q 1472 3097 1187 3025 
Q 903 2953 641 2809 
L 641 3341 
Q 956 3463 1253 3523 
Q 1550 3584 1831 3584 
Q 2591 3584 2966 3190 
Q 3341 2797 3341 1997 
z
" transform="scale(0.015625)"/>
       <path id="DejaVuSans-79" d="M 2059 -325 
Q 1816 -950 1584 -1140 
Q 1353 -1331 966 -1331 
L 506 -1331 
L 506 -850 
L 844 -850 
Q 1081 -850 1212 -737 
Q 1344 -625 1503 -206 
L 1606 56 
L 191 3500 
L 800 3500 
L 1894 763 
L 2988 3500 
L 3597 3500 
L 2059 -325 
z
" transform="scale(0.015625)"/>
      </defs>
      <use xlink:href="#DejaVuSans-41"/>
      <use xlink:href="#DejaVuSans-63" transform="translate(66.658203 0)"/>
      <use xlink:href="#DejaVuSans-63" transform="translate(121.638672 0)"/>
      <use xlink:href="#DejaVuSans-75" transform="translate(176.619141 0)"/>
      <use xlink:href="#DejaVuSans-72" transform="translate(239.998047 0)"/>
      <use xlink:href="#DejaVuSans-61" transform="translate(281.111328 0)"/>
      <use xlink:href="#DejaVuSans-63" transform="translate(342.390625 0)"/>
      <use xlink:href="#DejaVuSans-79" transform="translate(397.371094 0)"/>
     </g>
    </g>
   </g>
   <g id="line2d_18">
    <path d="M 73.832727 122.902272 
L 78.827413 108.354816 
L 83.822098 104.658816 
L 88.816783 104.215296 
L 93.811469 103.180416 
L 98.806154 101.64288 
L 103.800839 109.981056 
L 108.795524 111.282048 
L 113.79021 108.857472 
L 118.784895 109.094016 
L 123.77958 111.311616 
L 128.774266 110.395008 
L 133.768951 111.134208 
L 138.763636 112.13952 
L 143.758322 107.733888 
L 148.753007 109.271424 
L 153.747692 110.099328 
L 158.742378 109.567104 
L 163.737063 112.346496 
L 168.731748 111.54816 
L 173.726434 111.341184 
L 178.721119 108.709632 
L 183.715804 110.572416 
L 188.71049 113.056128 
L 193.705175 108.325248 
L 198.69986 108.29568 
L 203.694545 107.40864 
L 208.689231 108.177408 
L 213.683916 107.438208 
L 218.678601 106.580736 
L 223.673287 109.005312 
L 228.667972 107.940864 
L 233.662657 106.66944 
L 238.657343 105.959808 
L 243.652028 110.128896 
L 248.646713 106.96512 
L 253.641399 107.793024 
L 258.636084 110.454144 
L 263.630769 107.881728 
L 268.625455 113.203968 
L 273.62014 105.93024 
L 278.614825 113.115264 
L 283.60951 109.064448 
L 288.604196 109.123584 
L 293.598881 108.680064 
L 298.593566 107.615616 
L 303.588252 106.018944 
L 308.582937 108.768768 
L 313.577622 111.193344 
L 318.572308 106.994688 
L 323.566993 107.70432 
L 328.561678 106.07808 
L 333.556364 112.4352 
L 338.551049 108.29568 
L 343.545734 112.228224 
L 348.54042 110.838528 
L 353.535105 107.55648 
L 358.52979 115.332864 
L 363.524476 110.128896 
L 368.519161 114.35712 
L 373.513846 107.940864 
L 378.508531 108.561792 
L 383.503217 107.615616 
L 388.497902 109.212288 
L 393.492587 107.55648 
L 398.487273 105.161472 
" clip-path="url(#pd8f334387b)" style="fill: none; stroke: #1f77b4; stroke-width: 1.5; stroke-linecap: square"/>
   </g>
   <g id="line2d_19">
    <path d="M 73.832727 305.51424 
L 78.827413 301.37472 
L 83.822098 306.1056 
L 88.816783 301.96608 
L 93.811469 301.37472 
L 98.806154 302.85312 
L 103.800839 119.53152 
L 108.795524 113.9136 
L 113.79021 115.09632 
L 118.784895 109.18272 
L 123.77958 114.50496 
L 128.774266 110.06976 
L 133.768951 135.20256 
L 138.763636 139.93344 
L 143.758322 140.5248 
L 148.753007 143.4816 
L 153.747692 144.07296 
L 158.742378 149.98656 
L 163.737063 144.66432 
L 168.731748 139.63776 
L 173.726434 141.11616 
L 178.721119 134.01984 
L 183.715804 139.63776 
L 188.71049 135.79392 
L 193.705175 133.72416 
L 198.69986 131.6544 
L 203.694545 135.49824 
L 208.689231 137.27232 
L 213.683916 140.22912 
L 218.678601 138.15936 
L 223.673287 138.15936 
L 228.667972 134.6112 
L 233.662657 131.35872 
L 238.657343 132.54144 
L 243.652028 131.95008 
L 248.646713 133.42848 
L 253.641399 136.38528 
L 258.636084 135.20256 
L 263.630769 133.42848 
L 268.625455 131.6544 
L 273.62014 130.76736 
L 278.614825 132.54144 
L 283.60951 139.93344 
L 288.604196 135.79392 
L 293.598881 133.42848 
L 298.593566 135.79392 
L 303.588252 134.90688 
L 308.582937 138.15936 
L 313.577622 132.83712 
L 318.572308 132.83712 
L 323.566993 132.24576 
L 328.561678 136.0896 
L 333.556364 134.6112 
L 338.551049 132.83712 
L 343.545734 131.35872 
L 348.54042 131.06304 
L 353.535105 128.6976 
L 358.52979 134.01984 
L 363.524476 130.47168 
L 368.519161 136.97664 
L 373.513846 132.54144 
L 378.508531 129.88032 
L 383.503217 133.72416 
L 388.497902 133.42848 
L 393.492587 131.6544 
L 398.487273 131.95008 
" clip-path="url(#pd8f334387b)" style="fill: none; stroke: #ff7f0e; stroke-width: 1.5; stroke-linecap: square"/>
   </g>
   <g id="line2d_20">
    <path d="M 73.832727 302.26176 
L 78.827413 308.47104 
L 83.822098 303.74016 
L 88.816783 303.44448 
L 93.811469 304.03584 
L 98.806154 305.21856 
L 103.800839 309.65376 
L 108.795524 309.94944 
L 113.79021 311.72352 
L 118.784895 310.83648 
L 123.77958 311.72352 
L 128.774266 311.13216 
L 133.768951 118.3488 
L 138.763636 121.3056 
L 143.758322 120.12288 
L 148.753007 123.37536 
L 153.747692 121.89696 
L 158.742378 123.37536 
L 163.737063 142.59456 
L 168.731748 140.82048 
L 173.726434 139.0464 
L 178.721119 140.22912 
L 183.715804 141.70752 
L 188.71049 140.82048 
L 193.705175 134.01984 
L 198.69986 137.27232 
L 203.694545 129.88032 
L 208.689231 131.06304 
L 213.683916 137.86368 
L 218.678601 134.90688 
L 223.673287 140.22912 
L 228.667972 142.89024 
L 233.662657 136.97664 
L 238.657343 134.31552 
L 243.652028 139.63776 
L 248.646713 136.0896 
L 253.641399 138.15936 
L 258.636084 142.0032 
L 263.630769 142.89024 
L 268.625455 149.98656 
L 273.62014 137.568 
L 278.614825 139.63776 
L 283.60951 147.32544 
L 288.604196 141.41184 
L 293.598881 143.4816 
L 298.593566 140.82048 
L 303.588252 140.5248 
L 308.582937 146.73408 
L 313.577622 140.5248 
L 318.572308 136.0896 
L 323.566993 138.45504 
L 328.561678 142.29888 
L 333.556364 139.93344 
L 338.551049 145.25568 
L 343.545734 136.68096 
L 348.54042 128.6976 
L 353.535105 131.06304 
L 358.52979 138.15936 
L 363.524476 134.90688 
L 368.519161 134.01984 
L 373.513846 132.83712 
L 378.508531 134.6112 
L 383.503217 137.27232 
L 388.497902 139.63776 
L 393.492587 134.6112 
L 398.487273 133.42848 
" clip-path="url(#pd8f334387b)" style="fill: none; stroke: #2ca02c; stroke-width: 1.5; stroke-linecap: square"/>
   </g>
   <g id="line2d_21">
    <path d="M 73.832727 304.6272 
L 78.827413 313.20192 
L 83.822098 312.61056 
L 88.816783 312.31488 
L 93.811469 314.68032 
L 98.806154 314.976 
L 103.800839 315.86304 
L 108.795524 317.34144 
L 113.79021 316.4544 
L 118.784895 315.27168 
L 123.77958 313.79328 
L 128.774266 313.79328 
L 133.768951 314.38464 
L 138.763636 315.27168 
L 143.758322 313.79328 
L 148.753007 315.56736 
L 153.747692 312.0192 
L 158.742378 312.0192 
L 163.737063 112.4352 
L 168.731748 110.06976 
L 173.726434 102.67776 
L 178.721119 105.33888 
L 183.715804 104.15616 
L 188.71049 105.63456 
L 193.705175 117.75744 
L 198.69986 122.784 
L 203.694545 123.37536 
L 208.689231 128.99328 
L 213.683916 125.44512 
L 218.678601 127.51488 
L 223.673287 131.6544 
L 228.667972 128.99328 
L 233.662657 122.19264 
L 238.657343 123.96672 
L 243.652028 125.44512 
L 248.646713 132.54144 
L 253.641399 123.96672 
L 258.636084 126.03648 
L 263.630769 126.62784 
L 268.625455 130.76736 
L 273.62014 127.51488 
L 278.614825 124.85376 
L 283.60951 123.37536 
L 288.604196 121.3056 
L 293.598881 121.89696 
L 298.593566 120.41856 
L 303.588252 123.07968 
L 308.582937 127.81056 
L 313.577622 119.53152 
L 318.572308 118.64448 
L 323.566993 126.33216 
L 328.561678 125.14944 
L 333.556364 130.176 
L 338.551049 118.94016 
L 343.545734 117.75744 
L 348.54042 123.96672 
L 353.535105 120.71424 
L 358.52979 127.81056 
L 363.524476 122.48832 
L 368.519161 126.62784 
L 373.513846 122.48832 
L 378.508531 124.85376 
L 383.503217 120.71424 
L 388.497902 123.67104 
L 393.492587 120.71424 
L 398.487273 116.27904 
" clip-path="url(#pd8f334387b)" style="fill: none; stroke: #d62728; stroke-width: 1.5; stroke-linecap: square"/>
   </g>
   <g id="line2d_22">
    <path d="M 73.832727 314.976 
L 78.827413 313.4976 
L 83.822098 306.99264 
L 88.816783 313.79328 
L 93.811469 312.90624 
L 98.806154 313.79328 
L 103.800839 310.83648 
L 108.795524 312.0192 
L 113.79021 311.42784 
L 118.784895 314.08896 
L 123.77958 312.90624 
L 128.774266 312.0192 
L 133.768951 310.24512 
L 138.763636 310.24512 
L 143.758322 309.65376 
L 148.753007 309.0624 
L 153.747692 308.47104 
L 158.742378 311.72352 
L 163.737063 307.87968 
L 168.731748 312.0192 
L 173.726434 313.4976 
L 178.721119 310.5408 
L 183.715804 314.08896 
L 188.71049 313.79328 
L 193.705175 127.51488 
L 198.69986 123.37536 
L 203.694545 125.44512 
L 208.689231 122.19264 
L 213.683916 122.784 
L 218.678601 123.07968 
L 223.673287 136.0896 
L 228.667972 139.0464 
L 233.662657 138.15936 
L 238.657343 140.5248 
L 243.652028 142.0032 
L 248.646713 144.66432 
L 253.641399 142.29888 
L 258.636084 138.45504 
L 263.630769 139.63776 
L 268.625455 142.29888 
L 273.62014 136.97664 
L 278.614825 147.02976 
L 283.60951 138.75072 
L 288.604196 144.66432 
L 293.598881 139.34208 
L 298.593566 139.63776 
L 303.588252 139.34208 
L 308.582937 140.82048 
L 313.577622 141.41184 
L 318.572308 137.27232 
L 323.566993 136.38528 
L 328.561678 138.15936 
L 333.556364 141.70752 
L 338.551049 137.568 
L 343.545734 142.89024 
L 348.54042 145.55136 
L 353.535105 138.75072 
L 358.52979 142.89024 
L 363.524476 137.86368 
L 368.519161 142.89024 
L 373.513846 136.97664 
L 378.508531 135.79392 
L 383.503217 134.90688 
L 388.497902 136.38528 
L 393.492587 136.97664 
L 398.487273 131.06304 
" clip-path="url(#pd8f334387b)" style="fill: none; stroke: #9467bd; stroke-width: 1.5; stroke-linecap: square"/>
   </g>
   <g id="line2d_23">
    <path d="M 73.832727 313.20192 
L 78.827413 315.27168 
L 83.822098 306.69696 
L 88.816783 312.61056 
L 93.811469 312.0192 
L 98.806154 307.87968 
L 103.800839 310.5408 
L 108.795524 308.76672 
L 113.79021 308.47104 
L 118.784895 308.76672 
L 123.77958 307.87968 
L 128.774266 301.96608 
L 133.768951 306.40128 
L 138.763636 304.92288 
L 143.758322 306.40128 
L 148.753007 305.21856 
L 153.747692 304.92288 
L 158.742378 305.80992 
L 163.737063 307.87968 
L 168.731748 309.0624 
L 173.726434 307.87968 
L 178.721119 309.0624 
L 183.715804 310.24512 
L 188.71049 306.69696 
L 193.705175 306.1056 
L 198.69986 301.96608 
L 203.694545 307.28832 
L 208.689231 306.69696 
L 213.683916 309.0624 
L 218.678601 306.99264 
L 223.673287 113.32224 
L 228.667972 113.61792 
L 233.662657 110.06976 
L 238.657343 110.36544 
L 243.652028 105.33888 
L 248.646713 110.36544 
L 253.641399 123.67104 
L 258.636084 127.51488 
L 263.630769 123.96672 
L 268.625455 124.55808 
L 273.62014 123.67104 
L 278.614825 130.47168 
L 283.60951 129.58464 
L 288.604196 123.96672 
L 293.598881 125.14944 
L 298.593566 132.24576 
L 303.588252 128.40192 
L 308.582937 126.92352 
L 313.577622 129.58464 
L 318.572308 131.35872 
L 323.566993 127.2192 
L 328.561678 123.67104 
L 333.556364 132.24576 
L 338.551049 133.1328 
L 343.545734 131.35872 
L 348.54042 130.176 
L 353.535105 129.88032 
L 358.52979 129.88032 
L 363.524476 127.2192 
L 368.519161 130.176 
L 373.513846 128.10624 
L 378.508531 124.85376 
L 383.503217 125.44512 
L 388.497902 122.19264 
L 393.492587 126.92352 
L 398.487273 122.48832 
" clip-path="url(#pd8f334387b)" style="fill: none; stroke: #8c564b; stroke-width: 1.5; stroke-linecap: square"/>
   </g>
   <g id="line2d_24">
    <path d="M 73.832727 318.52416 
L 78.827413 314.976 
L 83.822098 312.90624 
L 88.816783 312.0192 
L 93.811469 313.20192 
L 98.806154 312.90624 
L 103.800839 313.79328 
L 108.795524 311.72352 
L 113.79021 312.31488 
L 118.784895 313.20192 
L 123.77958 310.5408 
L 128.774266 310.5408 
L 133.768951 309.94944 
L 138.763636 307.87968 
L 143.758322 311.72352 
L 148.753007 313.20192 
L 153.747692 308.76672 
L 158.742378 312.90624 
L 163.737063 317.04576 
L 168.731748 312.90624 
L 173.726434 317.04576 
L 178.721119 310.5408 
L 183.715804 313.20192 
L 188.71049 311.13216 
L 193.705175 313.4976 
L 198.69986 315.27168 
L 203.694545 313.79328 
L 208.689231 312.31488 
L 213.683916 314.38464 
L 218.678601 313.4976 
L 223.673287 317.34144 
L 228.667972 315.86304 
L 233.662657 319.11552 
L 238.657343 316.4544 
L 243.652028 316.75008 
L 248.646713 317.04576 
L 253.641399 127.51488 
L 258.636084 124.2624 
L 263.630769 119.8272 
L 268.625455 123.67104 
L 273.62014 123.67104 
L 278.614825 119.8272 
L 283.60951 139.93344 
L 288.604196 143.77728 
L 293.598881 140.82048 
L 298.593566 143.4816 
L 303.588252 140.82048 
L 308.582937 137.27232 
L 313.577622 145.84704 
L 318.572308 143.18592 
L 323.566993 139.63776 
L 328.561678 141.11616 
L 333.556364 144.66432 
L 338.551049 144.66432 
L 343.545734 152.352 
L 348.54042 147.9168 
L 353.535105 143.4816 
L 358.52979 142.89024 
L 363.524476 145.25568 
L 368.519161 145.84704 
L 373.513846 144.66432 
L 378.508531 140.5248 
L 383.503217 142.59456 
L 388.497902 138.75072 
L 393.492587 142.89024 
L 398.487273 143.18592 
" clip-path="url(#pd8f334387b)" style="fill: none; stroke: #e377c2; stroke-width: 1.5; stroke-linecap: square"/>
   </g>
   <g id="line2d_25">
    <path d="M 73.832727 304.92288 
L 78.827413 313.4976 
L 83.822098 310.5408 
L 88.816783 311.72352 
L 93.811469 310.83648 
L 98.806154 310.24512 
L 103.800839 309.65376 
L 108.795524 311.13216 
L 113.79021 305.51424 
L 118.784895 312.31488 
L 123.77958 305.21856 
L 128.774266 308.76672 
L 133.768951 312.31488 
L 138.763636 314.38464 
L 143.758322 306.69696 
L 148.753007 312.61056 
L 153.747692 310.5408 
L 158.742378 310.24512 
L 163.737063 310.5408 
L 168.731748 312.61056 
L 173.726434 312.0192 
L 178.721119 312.90624 
L 183.715804 313.20192 
L 188.71049 307.584 
L 193.705175 311.72352 
L 198.69986 314.68032 
L 203.694545 312.61056 
L 208.689231 314.976 
L 213.683916 310.83648 
L 218.678601 312.0192 
L 223.673287 311.42784 
L 228.667972 312.61056 
L 233.662657 311.42784 
L 238.657343 310.24512 
L 243.652028 314.68032 
L 248.646713 310.83648 
L 253.641399 311.42784 
L 258.636084 314.38464 
L 263.630769 311.13216 
L 268.625455 311.42784 
L 273.62014 309.94944 
L 278.614825 310.5408 
L 283.60951 118.64448 
L 288.604196 118.3488 
L 293.598881 119.23584 
L 298.593566 121.3056 
L 303.588252 120.12288 
L 308.582937 118.94016 
L 313.577622 129.58464 
L 318.572308 131.35872 
L 323.566993 131.35872 
L 328.561678 133.72416 
L 333.556364 133.42848 
L 338.551049 131.35872 
L 343.545734 133.42848 
L 348.54042 133.1328 
L 353.535105 132.54144 
L 358.52979 139.34208 
L 363.524476 134.6112 
L 368.519161 138.75072 
L 373.513846 128.10624 
L 378.508531 128.99328 
L 383.503217 124.55808 
L 388.497902 128.99328 
L 393.492587 127.2192 
L 398.487273 128.6976 
" clip-path="url(#pd8f334387b)" style="fill: none; stroke: #7f7f7f; stroke-width: 1.5; stroke-linecap: square"/>
   </g>
   <g id="line2d_26">
    <path d="M 73.832727 300.192 
L 78.827413 305.21856 
L 83.822098 312.31488 
L 88.816783 298.12224 
L 93.811469 302.55744 
L 98.806154 302.55744 
L 103.800839 302.55744 
L 108.795524 306.99264 
L 113.79021 302.26176 
L 118.784895 301.6704 
L 123.77958 302.85312 
L 128.774266 300.78336 
L 133.768951 300.48768 
L 138.763636 301.37472 
L 143.758322 304.33152 
L 148.753007 299.89632 
L 153.747692 306.69696 
L 158.742378 303.74016 
L 163.737063 302.85312 
L 168.731748 305.80992 
L 173.726434 304.33152 
L 178.721119 304.33152 
L 183.715804 303.74016 
L 188.71049 307.584 
L 193.705175 303.74016 
L 198.69986 301.96608 
L 203.694545 302.55744 
L 208.689231 300.48768 
L 213.683916 297.82656 
L 218.678601 303.74016 
L 223.673287 301.96608 
L 228.667972 304.6272 
L 233.662657 303.44448 
L 238.657343 303.44448 
L 243.652028 307.87968 
L 248.646713 302.26176 
L 253.641399 294.2784 
L 258.636084 293.68704 
L 263.630769 301.6704 
L 268.625455 297.2352 
L 273.62014 301.96608 
L 278.614825 299.30496 
L 283.60951 302.85312 
L 288.604196 304.03584 
L 293.598881 304.33152 
L 298.593566 299.30496 
L 303.588252 304.6272 
L 308.582937 301.6704 
L 313.577622 131.06304 
L 318.572308 131.35872 
L 323.566993 131.35872 
L 328.561678 127.81056 
L 333.556364 128.40192 
L 338.551049 126.62784 
L 343.545734 141.70752 
L 348.54042 144.66432 
L 353.535105 146.4384 
L 358.52979 146.4384 
L 363.524476 143.18592 
L 368.519161 147.62112 
L 373.513846 142.0032 
L 378.508531 139.63776 
L 383.503217 144.96 
L 388.497902 141.41184 
L 393.492587 145.55136 
L 398.487273 140.5248 
" clip-path="url(#pd8f334387b)" style="fill: none; stroke: #bcbd22; stroke-width: 1.5; stroke-linecap: square"/>
   </g>
   <g id="line2d_27">
    <path d="M 73.832727 300.78336 
L 78.827413 302.26176 
L 83.822098 304.33152 
L 88.816783 308.76672 
L 93.811469 301.37472 
L 98.806154 305.51424 
L 103.800839 305.21856 
L 108.795524 303.1488 
L 113.79021 304.92288 
L 118.784895 304.33152 
L 123.77958 307.28832 
L 128.774266 307.87968 
L 133.768951 305.51424 
L 138.763636 300.48768 
L 143.758322 302.26176 
L 148.753007 304.92288 
L 153.747692 303.74016 
L 158.742378 306.69696 
L 163.737063 305.21856 
L 168.731748 304.92288 
L 173.726434 305.21856 
L 178.721119 306.99264 
L 183.715804 306.1056 
L 188.71049 302.55744 
L 193.705175 307.28832 
L 198.69986 306.1056 
L 203.694545 306.1056 
L 208.689231 307.584 
L 213.683916 305.80992 
L 218.678601 308.17536 
L 223.673287 307.28832 
L 228.667972 307.28832 
L 233.662657 304.6272 
L 238.657343 304.92288 
L 243.652028 306.99264 
L 248.646713 304.92288 
L 253.641399 303.1488 
L 258.636084 303.1488 
L 263.630769 305.51424 
L 268.625455 303.44448 
L 273.62014 303.1488 
L 278.614825 306.1056 
L 283.60951 304.6272 
L 288.604196 306.1056 
L 293.598881 303.1488 
L 298.593566 305.80992 
L 303.588252 304.33152 
L 308.582937 307.584 
L 313.577622 303.1488 
L 318.572308 306.69696 
L 323.566993 306.99264 
L 328.561678 305.80992 
L 333.556364 301.07904 
L 338.551049 305.80992 
L 343.545734 119.23584 
L 348.54042 124.85376 
L 353.535105 121.00992 
L 358.52979 121.3056 
L 363.524476 117.46176 
L 368.519161 118.05312 
L 373.513846 134.6112 
L 378.508531 128.99328 
L 383.503217 136.68096 
L 388.497902 134.90688 
L 393.492587 136.68096 
L 398.487273 135.20256 
" clip-path="url(#pd8f334387b)" style="fill: none; stroke: #17becf; stroke-width: 1.5; stroke-linecap: square"/>
   </g>
   <g id="line2d_28">
    <path d="M 73.832727 310.24512 
L 78.827413 308.47104 
L 83.822098 312.61056 
L 88.816783 301.96608 
L 93.811469 302.55744 
L 98.806154 306.99264 
L 103.800839 309.94944 
L 108.795524 305.51424 
L 113.79021 304.6272 
L 118.784895 310.24512 
L 123.77958 309.65376 
L 128.774266 309.94944 
L 133.768951 307.28832 
L 138.763636 309.65376 
L 143.758322 310.24512 
L 148.753007 307.28832 
L 153.747692 301.07904 
L 158.742378 306.1056 
L 163.737063 306.69696 
L 168.731748 305.21856 
L 173.726434 306.99264 
L 178.721119 303.1488 
L 183.715804 305.51424 
L 188.71049 305.51424 
L 193.705175 306.1056 
L 198.69986 307.28832 
L 203.694545 307.584 
L 208.689231 307.584 
L 213.683916 309.0624 
L 218.678601 308.76672 
L 223.673287 309.0624 
L 228.667972 311.13216 
L 233.662657 313.4976 
L 238.657343 306.1056 
L 243.652028 313.20192 
L 248.646713 309.65376 
L 253.641399 311.13216 
L 258.636084 314.68032 
L 263.630769 309.0624 
L 268.625455 307.584 
L 273.62014 310.24512 
L 278.614825 307.28832 
L 283.60951 308.17536 
L 288.604196 306.99264 
L 293.598881 308.17536 
L 298.593566 305.51424 
L 303.588252 306.69696 
L 308.582937 307.87968 
L 313.577622 306.1056 
L 318.572308 308.17536 
L 323.566993 307.584 
L 328.561678 308.17536 
L 333.556364 306.99264 
L 338.551049 309.35808 
L 343.545734 305.51424 
L 348.54042 305.80992 
L 353.535105 309.65376 
L 358.52979 305.51424 
L 363.524476 305.80992 
L 368.519161 305.80992 
L 373.513846 107.70432 
L 378.508531 104.74752 
L 383.503217 102.97344 
L 388.497902 103.5648 
L 393.492587 109.77408 
L 398.487273 103.86048 
" clip-path="url(#pd8f334387b)" style="fill: none; stroke: #1f77b4; stroke-width: 1.5; stroke-linecap: square"/>
   </g>
   <g id="patch_3">
    <path d="M 57.6 307.584 
L 57.6 41.472 
" style="fill: none; stroke: #000000; stroke-width: 0.8; stroke-linejoin: miter; stroke-linecap: square"/>
   </g>
   <g id="patch_4">
    <path d="M 414.72 307.584 
L 414.72 41.472 
" style="fill: none; stroke: #000000; stroke-width: 0.8; stroke-linejoin: miter; stroke-linecap: square"/>
   </g>
   <g id="patch_5">
    <path d="M 57.6 307.584 
L 414.72 307.584 
" style="fill: none; stroke: #000000; stroke-width: 0.8; stroke-linejoin: miter; stroke-linecap: square"/>
   </g>
   <g id="patch_6">
    <path d="M 57.6 41.472 
L 414.72 41.472 
" style="fill: none; stroke: #000000; stroke-width: 0.8; stroke-linejoin: miter; stroke-linecap: square"/>
   </g>
  </g>
 </g>
 <defs>
  <clipPath id="pd8f334387b">
   <rect x="57.6" y="41.472" width="357.12" height="266.112"/>
  </clipPath>
 </defs>
</svg>
