<?xml version="1.0" encoding="utf-8" standalone="no"?>
<!DOCTYPE svg PUBLIC "-//W3C//DTD SVG 1.1//EN"
  "http://www.w3.org/Graphics/SVG/1.1/DTD/svg11.dtd">
<svg xmlns:xlink="http://www.w3.org/1999/xlink" width="460.8pt" height="345.6pt" viewBox="0 0 460.8 345.6" xmlns="http://www.w3.org/2000/svg" version="1.1">
 <metadata>
  <rdf:RDF xmlns:dc="http://purl.org/dc/elements/1.1/" xmlns:cc="http://creativecommons.org/ns#" xmlns:rdf="http://www.w3.org/1999/02/22-rdf-syntax-ns#">
   <cc:Work>
    <dc:type rdf:resource="http://purl.org/dc/dcmitype/StillImage"/>
    <dc:date>2025-02-17T11:22:08.350355</dc:date>
    <dc:format>image/svg+xml</dc:format>
    <dc:creator>
     <cc:Agent>
      <dc:title>Matplotlib v3.10.0, https://matplotlib.org/</dc:title>
     </cc:Agent>
    </dc:creator>
   </cc:Work>
  </rdf:RDF>
 </metadata>
 <defs>
  <style type="text/css">*{stroke-linejoin: round; stroke-linecap: butt}</style>
 </defs>
 <g id="figure_1">
  <g id="patch_1">
   <path d="M 0 345.6 
L 460.8 345.6 
L 460.8 0 
L 0 0 
z
" style="fill: #ffffff"/>
  </g>
  <g id="axes_1">
   <g id="patch_2">
    <path d="M 57.6 307.584 
L 414.72 307.584 
L 414.72 41.472 
L 57.6 41.472 
z
" style="fill: #ffffff"/>
   </g>
   <g id="matplotlib.axis_1">
    <g id="xtick_1">
     <g id="line2d_1">
      <defs>
       <path id="m9ab98e3a53" d="M 0 0 
L 0 3.5 
" style="stroke: #000000; stroke-width: 0.8"/>
      </defs>
      <g>
       <use xlink:href="#m9ab98e3a53" x="73.832727" y="307.584" style="stroke: #000000; stroke-width: 0.8"/>
      </g>
     </g>
     <g id="text_1">
      <!-- 0 -->
      <g transform="translate(70.651477 322.182437) scale(0.1 -0.1)">
       <defs>
        <path id="DejaVuSans-30" d="M 2034 4250 
Q 1547 4250 1301 3770 
Q 1056 3291 1056 2328 
Q 1056 1369 1301 889 
Q 1547 409 2034 409 
Q 2525 409 2770 889 
Q 3016 1369 3016 2328 
Q 3016 3291 2770 3770 
Q 2525 4250 2034 4250 
z
M 2034 4750 
Q 2819 4750 3233 4129 
Q 3647 3509 3647 2328 
Q 3647 1150 3233 529 
Q 2819 -91 2034 -91 
Q 1250 -91 836 529 
Q 422 1150 422 2328 
Q 422 3509 836 4129 
Q 1250 4750 2034 4750 
z
" transform="scale(0.015625)"/>
       </defs>
       <use xlink:href="#DejaVuSans-30"/>
      </g>
     </g>
    </g>
    <g id="xtick_2">
     <g id="line2d_2">
      <g>
       <use xlink:href="#m9ab98e3a53" x="123.77958" y="307.584" style="stroke: #000000; stroke-width: 0.8"/>
      </g>
     </g>
     <g id="text_2">
      <!-- 10 -->
      <g transform="translate(117.41708 322.182437) scale(0.1 -0.1)">
       <defs>
        <path id="DejaVuSans-31" d="M 794 531 
L 1825 531 
L 1825 4091 
L 703 3866 
L 703 4441 
L 1819 4666 
L 2450 4666 
L 2450 531 
L 3481 531 
L 3481 0 
L 794 0 
L 794 531 
z
" transform="scale(0.015625)"/>
       </defs>
       <use xlink:href="#DejaVuSans-31"/>
       <use xlink:href="#DejaVuSans-30" transform="translate(63.623047 0)"/>
      </g>
     </g>
    </g>
    <g id="xtick_3">
     <g id="line2d_3">
      <g>
       <use xlink:href="#m9ab98e3a53" x="173.726434" y="307.584" style="stroke: #000000; stroke-width: 0.8"/>
      </g>
     </g>
     <g id="text_3">
      <!-- 20 -->
      <g transform="translate(167.363934 322.182437) scale(0.1 -0.1)">
       <defs>
        <path id="DejaVuSans-32" d="M 1228 531 
L 3431 531 
L 3431 0 
L 469 0 
L 469 531 
Q 828 903 1448 1529 
Q 2069 2156 2228 2338 
Q 2531 2678 2651 2914 
Q 2772 3150 2772 3378 
Q 2772 3750 2511 3984 
Q 2250 4219 1831 4219 
Q 1534 4219 1204 4116 
Q 875 4013 500 3803 
L 500 4441 
Q 881 4594 1212 4672 
Q 1544 4750 1819 4750 
Q 2544 4750 2975 4387 
Q 3406 4025 3406 3419 
Q 3406 3131 3298 2873 
Q 3191 2616 2906 2266 
Q 2828 2175 2409 1742 
Q 1991 1309 1228 531 
z
" transform="scale(0.015625)"/>
       </defs>
       <use xlink:href="#DejaVuSans-32"/>
       <use xlink:href="#DejaVuSans-30" transform="translate(63.623047 0)"/>
      </g>
     </g>
    </g>
    <g id="xtick_4">
     <g id="line2d_4">
      <g>
       <use xlink:href="#m9ab98e3a53" x="223.673287" y="307.584" style="stroke: #000000; stroke-width: 0.8"/>
      </g>
     </g>
     <g id="text_4">
      <!-- 30 -->
      <g transform="translate(217.310787 322.182437) scale(0.1 -0.1)">
       <defs>
        <path id="DejaVuSans-33" d="M 2597 2516 
Q 3050 2419 3304 2112 
Q 3559 1806 3559 1356 
Q 3559 666 3084 287 
Q 2609 -91 1734 -91 
Q 1441 -91 1130 -33 
Q 819 25 488 141 
L 488 750 
Q 750 597 1062 519 
Q 1375 441 1716 441 
Q 2309 441 2620 675 
Q 2931 909 2931 1356 
Q 2931 1769 2642 2001 
Q 2353 2234 1838 2234 
L 1294 2234 
L 1294 2753 
L 1863 2753 
Q 2328 2753 2575 2939 
Q 2822 3125 2822 3475 
Q 2822 3834 2567 4026 
Q 2313 4219 1838 4219 
Q 1578 4219 1281 4162 
Q 984 4106 628 3988 
L 628 4550 
Q 988 4650 1302 4700 
Q 1616 4750 1894 4750 
Q 2613 4750 3031 4423 
Q 3450 4097 3450 3541 
Q 3450 3153 3228 2886 
Q 3006 2619 2597 2516 
z
" transform="scale(0.015625)"/>
       </defs>
       <use xlink:href="#DejaVuSans-33"/>
       <use xlink:href="#DejaVuSans-30" transform="translate(63.623047 0)"/>
      </g>
     </g>
    </g>
    <g id="xtick_5">
     <g id="line2d_5">
      <g>
       <use xlink:href="#m9ab98e3a53" x="273.62014" y="307.584" style="stroke: #000000; stroke-width: 0.8"/>
      </g>
     </g>
     <g id="text_5">
      <!-- 40 -->
      <g transform="translate(267.25764 322.182437) scale(0.1 -0.1)">
       <defs>
        <path id="DejaVuSans-34" d="M 2419 4116 
L 825 1625 
L 2419 1625 
L 2419 4116 
z
M 2253 4666 
L 3047 4666 
L 3047 1625 
L 3713 1625 
L 3713 1100 
L 3047 1100 
L 3047 0 
L 2419 0 
L 2419 1100 
L 313 1100 
L 313 1709 
L 2253 4666 
z
" transform="scale(0.015625)"/>
       </defs>
       <use xlink:href="#DejaVuSans-34"/>
       <use xlink:href="#DejaVuSans-30" transform="translate(63.623047 0)"/>
      </g>
     </g>
    </g>
    <g id="xtick_6">
     <g id="line2d_6">
      <g>
       <use xlink:href="#m9ab98e3a53" x="323.566993" y="307.584" style="stroke: #000000; stroke-width: 0.8"/>
      </g>
     </g>
     <g id="text_6">
      <!-- 50 -->
      <g transform="translate(317.204493 322.182437) scale(0.1 -0.1)">
       <defs>
        <path id="DejaVuSans-35" d="M 691 4666 
L 3169 4666 
L 3169 4134 
L 1269 4134 
L 1269 2991 
Q 1406 3038 1543 3061 
Q 1681 3084 1819 3084 
Q 2600 3084 3056 2656 
Q 3513 2228 3513 1497 
Q 3513 744 3044 326 
Q 2575 -91 1722 -91 
Q 1428 -91 1123 -41 
Q 819 9 494 109 
L 494 744 
Q 775 591 1075 516 
Q 1375 441 1709 441 
Q 2250 441 2565 725 
Q 2881 1009 2881 1497 
Q 2881 1984 2565 2268 
Q 2250 2553 1709 2553 
Q 1456 2553 1204 2497 
Q 953 2441 691 2322 
L 691 4666 
z
" transform="scale(0.015625)"/>
       </defs>
       <use xlink:href="#DejaVuSans-35"/>
       <use xlink:href="#DejaVuSans-30" transform="translate(63.623047 0)"/>
      </g>
     </g>
    </g>
    <g id="xtick_7">
     <g id="line2d_7">
      <g>
       <use xlink:href="#m9ab98e3a53" x="373.513846" y="307.584" style="stroke: #000000; stroke-width: 0.8"/>
      </g>
     </g>
     <g id="text_7">
      <!-- 60 -->
      <g transform="translate(367.151346 322.182437) scale(0.1 -0.1)">
       <defs>
        <path id="DejaVuSans-36" d="M 2113 2584 
Q 1688 2584 1439 2293 
Q 1191 2003 1191 1497 
Q 1191 994 1439 701 
Q 1688 409 2113 409 
Q 2538 409 2786 701 
Q 3034 994 3034 1497 
Q 3034 2003 2786 2293 
Q 2538 2584 2113 2584 
z
M 3366 4563 
L 3366 3988 
Q 3128 4100 2886 4159 
Q 2644 4219 2406 4219 
Q 1781 4219 1451 3797 
Q 1122 3375 1075 2522 
Q 1259 2794 1537 2939 
Q 1816 3084 2150 3084 
Q 2853 3084 3261 2657 
Q 3669 2231 3669 1497 
Q 3669 778 3244 343 
Q 2819 -91 2113 -91 
Q 1303 -91 875 529 
Q 447 1150 447 2328 
Q 447 3434 972 4092 
Q 1497 4750 2381 4750 
Q 2619 4750 2861 4703 
Q 3103 4656 3366 4563 
z
" transform="scale(0.015625)"/>
       </defs>
       <use xlink:href="#DejaVuSans-36"/>
       <use xlink:href="#DejaVuSans-30" transform="translate(63.623047 0)"/>
      </g>
     </g>
    </g>
    <g id="text_8">
     <!-- Epochs -->
     <g transform="translate(218.244375 335.860562) scale(0.1 -0.1)">
      <defs>
       <path id="DejaVuSans-45" d="M 628 4666 
L 3578 4666 
L 3578 4134 
L 1259 4134 
L 1259 2753 
L 3481 2753 
L 3481 2222 
L 1259 2222 
L 1259 531 
L 3634 531 
L 3634 0 
L 628 0 
L 628 4666 
z
" transform="scale(0.015625)"/>
       <path id="DejaVuSans-70" d="M 1159 525 
L 1159 -1331 
L 581 -1331 
L 581 3500 
L 1159 3500 
L 1159 2969 
Q 1341 3281 1617 3432 
Q 1894 3584 2278 3584 
Q 2916 3584 3314 3078 
Q 3713 2572 3713 1747 
Q 3713 922 3314 415 
Q 2916 -91 2278 -91 
Q 1894 -91 1617 61 
Q 1341 213 1159 525 
z
M 3116 1747 
Q 3116 2381 2855 2742 
Q 2594 3103 2138 3103 
Q 1681 3103 1420 2742 
Q 1159 2381 1159 1747 
Q 1159 1113 1420 752 
Q 1681 391 2138 391 
Q 2594 391 2855 752 
Q 3116 1113 3116 1747 
z
" transform="scale(0.015625)"/>
       <path id="DejaVuSans-6f" d="M 1959 3097 
Q 1497 3097 1228 2736 
Q 959 2375 959 1747 
Q 959 1119 1226 758 
Q 1494 397 1959 397 
Q 2419 397 2687 759 
Q 2956 1122 2956 1747 
Q 2956 2369 2687 2733 
Q 2419 3097 1959 3097 
z
M 1959 3584 
Q 2709 3584 3137 3096 
Q 3566 2609 3566 1747 
Q 3566 888 3137 398 
Q 2709 -91 1959 -91 
Q 1206 -91 779 398 
Q 353 888 353 1747 
Q 353 2609 779 3096 
Q 1206 3584 1959 3584 
z
" transform="scale(0.015625)"/>
       <path id="DejaVuSans-63" d="M 3122 3366 
L 3122 2828 
Q 2878 2963 2633 3030 
Q 2388 3097 2138 3097 
Q 1578 3097 1268 2742 
Q 959 2388 959 1747 
Q 959 1106 1268 751 
Q 1578 397 2138 397 
Q 2388 397 2633 464 
Q 2878 531 3122 666 
L 3122 134 
Q 2881 22 2623 -34 
Q 2366 -91 2075 -91 
Q 1284 -91 818 406 
Q 353 903 353 1747 
Q 353 2603 823 3093 
Q 1294 3584 2113 3584 
Q 2378 3584 2631 3529 
Q 2884 3475 3122 3366 
z
" transform="scale(0.015625)"/>
       <path id="DejaVuSans-68" d="M 3513 2113 
L 3513 0 
L 2938 0 
L 2938 2094 
Q 2938 2591 2744 2837 
Q 2550 3084 2163 3084 
Q 1697 3084 1428 2787 
Q 1159 2491 1159 1978 
L 1159 0 
L 581 0 
L 581 4863 
L 1159 4863 
L 1159 2956 
Q 1366 3272 1645 3428 
Q 1925 3584 2291 3584 
Q 2894 3584 3203 3211 
Q 3513 2838 3513 2113 
z
" transform="scale(0.015625)"/>
       <path id="DejaVuSans-73" d="M 2834 3397 
L 2834 2853 
Q 2591 2978 2328 3040 
Q 2066 3103 1784 3103 
Q 1356 3103 1142 2972 
Q 928 2841 928 2578 
Q 928 2378 1081 2264 
Q 1234 2150 1697 2047 
L 1894 2003 
Q 2506 1872 2764 1633 
Q 3022 1394 3022 966 
Q 3022 478 2636 193 
Q 2250 -91 1575 -91 
Q 1294 -91 989 -36 
Q 684 19 347 128 
L 347 722 
Q 666 556 975 473 
Q 1284 391 1588 391 
Q 1994 391 2212 530 
Q 2431 669 2431 922 
Q 2431 1156 2273 1281 
Q 2116 1406 1581 1522 
L 1381 1569 
Q 847 1681 609 1914 
Q 372 2147 372 2553 
Q 372 3047 722 3315 
Q 1072 3584 1716 3584 
Q 2034 3584 2315 3537 
Q 2597 3491 2834 3397 
z
" transform="scale(0.015625)"/>
      </defs>
      <use xlink:href="#DejaVuSans-45"/>
      <use xlink:href="#DejaVuSans-70" transform="translate(63.183594 0)"/>
      <use xlink:href="#DejaVuSans-6f" transform="translate(126.660156 0)"/>
      <use xlink:href="#DejaVuSans-63" transform="translate(187.841797 0)"/>
      <use xlink:href="#DejaVuSans-68" transform="translate(242.822266 0)"/>
      <use xlink:href="#DejaVuSans-73" transform="translate(306.201172 0)"/>
     </g>
    </g>
   </g>
   <g id="matplotlib.axis_2">
    <g id="ytick_1">
     <g id="line2d_8">
      <defs>
       <path id="m13058a83d1" d="M 0 0 
L -3.5 0 
" style="stroke: #000000; stroke-width: 0.8"/>
      </defs>
      <g>
       <use xlink:href="#m13058a83d1" x="57.6" y="307.584" style="stroke: #000000; stroke-width: 0.8"/>
      </g>
     </g>
     <g id="text_9">
      <!-- 0.1 -->
      <g transform="translate(34.696875 311.383219) scale(0.1 -0.1)">
       <defs>
        <path id="DejaVuSans-2e" d="M 684 794 
L 1344 794 
L 1344 0 
L 684 0 
L 684 794 
z
" transform="scale(0.015625)"/>
       </defs>
       <use xlink:href="#DejaVuSans-30"/>
       <use xlink:href="#DejaVuSans-2e" transform="translate(63.623047 0)"/>
       <use xlink:href="#DejaVuSans-31" transform="translate(95.410156 0)"/>
      </g>
     </g>
    </g>
    <g id="ytick_2">
     <g id="line2d_9">
      <g>
       <use xlink:href="#m13058a83d1" x="57.6" y="278.016" style="stroke: #000000; stroke-width: 0.8"/>
      </g>
     </g>
     <g id="text_10">
      <!-- 0.2 -->
      <g transform="translate(34.696875 281.815219) scale(0.1 -0.1)">
       <use xlink:href="#DejaVuSans-30"/>
       <use xlink:href="#DejaVuSans-2e" transform="translate(63.623047 0)"/>
       <use xlink:href="#DejaVuSans-32" transform="translate(95.410156 0)"/>
      </g>
     </g>
    </g>
    <g id="ytick_3">
     <g id="line2d_10">
      <g>
       <use xlink:href="#m13058a83d1" x="57.6" y="248.448" style="stroke: #000000; stroke-width: 0.8"/>
      </g>
     </g>
     <g id="text_11">
      <!-- 0.3 -->
      <g transform="translate(34.696875 252.247219) scale(0.1 -0.1)">
       <use xlink:href="#DejaVuSans-30"/>
       <use xlink:href="#DejaVuSans-2e" transform="translate(63.623047 0)"/>
       <use xlink:href="#DejaVuSans-33" transform="translate(95.410156 0)"/>
      </g>
     </g>
    </g>
    <g id="ytick_4">
     <g id="line2d_11">
      <g>
       <use xlink:href="#m13058a83d1" x="57.6" y="218.88" style="stroke: #000000; stroke-width: 0.8"/>
      </g>
     </g>
     <g id="text_12">
      <!-- 0.4 -->
      <g transform="translate(34.696875 222.679219) scale(0.1 -0.1)">
       <use xlink:href="#DejaVuSans-30"/>
       <use xlink:href="#DejaVuSans-2e" transform="translate(63.623047 0)"/>
       <use xlink:href="#DejaVuSans-34" transform="translate(95.410156 0)"/>
      </g>
     </g>
    </g>
    <g id="ytick_5">
     <g id="line2d_12">
      <g>
       <use xlink:href="#m13058a83d1" x="57.6" y="189.312" style="stroke: #000000; stroke-width: 0.8"/>
      </g>
     </g>
     <g id="text_13">
      <!-- 0.5 -->
      <g transform="translate(34.696875 193.111219) scale(0.1 -0.1)">
       <use xlink:href="#DejaVuSans-30"/>
       <use xlink:href="#DejaVuSans-2e" transform="translate(63.623047 0)"/>
       <use xlink:href="#DejaVuSans-35" transform="translate(95.410156 0)"/>
      </g>
     </g>
    </g>
    <g id="ytick_6">
     <g id="line2d_13">
      <g>
       <use xlink:href="#m13058a83d1" x="57.6" y="159.744" style="stroke: #000000; stroke-width: 0.8"/>
      </g>
     </g>
     <g id="text_14">
      <!-- 0.6 -->
      <g transform="translate(34.696875 163.543219) scale(0.1 -0.1)">
       <use xlink:href="#DejaVuSans-30"/>
       <use xlink:href="#DejaVuSans-2e" transform="translate(63.623047 0)"/>
       <use xlink:href="#DejaVuSans-36" transform="translate(95.410156 0)"/>
      </g>
     </g>
    </g>
    <g id="ytick_7">
     <g id="line2d_14">
      <g>
       <use xlink:href="#m13058a83d1" x="57.6" y="130.176" style="stroke: #000000; stroke-width: 0.8"/>
      </g>
     </g>
     <g id="text_15">
      <!-- 0.7 -->
      <g transform="translate(34.696875 133.975219) scale(0.1 -0.1)">
       <defs>
        <path id="DejaVuSans-37" d="M 525 4666 
L 3525 4666 
L 3525 4397 
L 1831 0 
L 1172 0 
L 2766 4134 
L 525 4134 
L 525 4666 
z
" transform="scale(0.015625)"/>
       </defs>
       <use xlink:href="#DejaVuSans-30"/>
       <use xlink:href="#DejaVuSans-2e" transform="translate(63.623047 0)"/>
       <use xlink:href="#DejaVuSans-37" transform="translate(95.410156 0)"/>
      </g>
     </g>
    </g>
    <g id="ytick_8">
     <g id="line2d_15">
      <g>
       <use xlink:href="#m13058a83d1" x="57.6" y="100.608" style="stroke: #000000; stroke-width: 0.8"/>
      </g>
     </g>
     <g id="text_16">
      <!-- 0.8 -->
      <g transform="translate(34.696875 104.407219) scale(0.1 -0.1)">
       <defs>
        <path id="DejaVuSans-38" d="M 2034 2216 
Q 1584 2216 1326 1975 
Q 1069 1734 1069 1313 
Q 1069 891 1326 650 
Q 1584 409 2034 409 
Q 2484 409 2743 651 
Q 3003 894 3003 1313 
Q 3003 1734 2745 1975 
Q 2488 2216 2034 2216 
z
M 1403 2484 
Q 997 2584 770 2862 
Q 544 3141 544 3541 
Q 544 4100 942 4425 
Q 1341 4750 2034 4750 
Q 2731 4750 3128 4425 
Q 3525 4100 3525 3541 
Q 3525 3141 3298 2862 
Q 3072 2584 2669 2484 
Q 3125 2378 3379 2068 
Q 3634 1759 3634 1313 
Q 3634 634 3220 271 
Q 2806 -91 2034 -91 
Q 1263 -91 848 271 
Q 434 634 434 1313 
Q 434 1759 690 2068 
Q 947 2378 1403 2484 
z
M 1172 3481 
Q 1172 3119 1398 2916 
Q 1625 2713 2034 2713 
Q 2441 2713 2670 2916 
Q 2900 3119 2900 3481 
Q 2900 3844 2670 4047 
Q 2441 4250 2034 4250 
Q 1625 4250 1398 4047 
Q 1172 3844 1172 3481 
z
" transform="scale(0.015625)"/>
       </defs>
       <use xlink:href="#DejaVuSans-30"/>
       <use xlink:href="#DejaVuSans-2e" transform="translate(63.623047 0)"/>
       <use xlink:href="#DejaVuSans-38" transform="translate(95.410156 0)"/>
      </g>
     </g>
    </g>
    <g id="ytick_9">
     <g id="line2d_16">
      <g>
       <use xlink:href="#m13058a83d1" x="57.6" y="71.04" style="stroke: #000000; stroke-width: 0.8"/>
      </g>
     </g>
     <g id="text_17">
      <!-- 0.9 -->
      <g transform="translate(34.696875 74.839219) scale(0.1 -0.1)">
       <defs>
        <path id="DejaVuSans-39" d="M 703 97 
L 703 672 
Q 941 559 1184 500 
Q 1428 441 1663 441 
Q 2288 441 2617 861 
Q 2947 1281 2994 2138 
Q 2813 1869 2534 1725 
Q 2256 1581 1919 1581 
Q 1219 1581 811 2004 
Q 403 2428 403 3163 
Q 403 3881 828 4315 
Q 1253 4750 1959 4750 
Q 2769 4750 3195 4129 
Q 3622 3509 3622 2328 
Q 3622 1225 3098 567 
Q 2575 -91 1691 -91 
Q 1453 -91 1209 -44 
Q 966 3 703 97 
z
M 1959 2075 
Q 2384 2075 2632 2365 
Q 2881 2656 2881 3163 
Q 2881 3666 2632 3958 
Q 2384 4250 1959 4250 
Q 1534 4250 1286 3958 
Q 1038 3666 1038 3163 
Q 1038 2656 1286 2365 
Q 1534 2075 1959 2075 
z
" transform="scale(0.015625)"/>
       </defs>
       <use xlink:href="#DejaVuSans-30"/>
       <use xlink:href="#DejaVuSans-2e" transform="translate(63.623047 0)"/>
       <use xlink:href="#DejaVuSans-39" transform="translate(95.410156 0)"/>
      </g>
     </g>
    </g>
    <g id="ytick_10">
     <g id="line2d_17">
      <g>
       <use xlink:href="#m13058a83d1" x="57.6" y="41.472" style="stroke: #000000; stroke-width: 0.8"/>
      </g>
     </g>
     <g id="text_18">
      <!-- 1.0 -->
      <g transform="translate(34.696875 45.271219) scale(0.1 -0.1)">
       <use xlink:href="#DejaVuSans-31"/>
       <use xlink:href="#DejaVuSans-2e" transform="translate(63.623047 0)"/>
       <use xlink:href="#DejaVuSans-30" transform="translate(95.410156 0)"/>
      </g>
     </g>
    </g>
    <g id="text_19">
     <!-- Accuracy -->
     <g transform="translate(28.617187 197.356125) rotate(-90) scale(0.1 -0.1)">
      <defs>
       <path id="DejaVuSans-41" d="M 2188 4044 
L 1331 1722 
L 3047 1722 
L 2188 4044 
z
M 1831 4666 
L 2547 4666 
L 4325 0 
L 3669 0 
L 3244 1197 
L 1141 1197 
L 716 0 
L 50 0 
L 1831 4666 
z
" transform="scale(0.015625)"/>
       <path id="DejaVuSans-75" d="M 544 1381 
L 544 3500 
L 1119 3500 
L 1119 1403 
Q 1119 906 1312 657 
Q 1506 409 1894 409 
Q 2359 409 2629 706 
Q 2900 1003 2900 1516 
L 2900 3500 
L 3475 3500 
L 3475 0 
L 2900 0 
L 2900 538 
Q 2691 219 2414 64 
Q 2138 -91 1772 -91 
Q 1169 -91 856 284 
Q 544 659 544 1381 
z
M 1991 3584 
L 1991 3584 
z
" transform="scale(0.015625)"/>
       <path id="DejaVuSans-72" d="M 2631 2963 
Q 2534 3019 2420 3045 
Q 2306 3072 2169 3072 
Q 1681 3072 1420 2755 
Q 1159 2438 1159 1844 
L 1159 0 
L 581 0 
L 581 3500 
L 1159 3500 
L 1159 2956 
Q 1341 3275 1631 3429 
Q 1922 3584 2338 3584 
Q 2397 3584 2469 3576 
Q 2541 3569 2628 3553 
L 2631 2963 
z
" transform="scale(0.015625)"/>
       <path id="DejaVuSans-61" d="M 2194 1759 
Q 1497 1759 1228 1600 
Q 959 1441 959 1056 
Q 959 750 1161 570 
Q 1363 391 1709 391 
Q 2188 391 2477 730 
Q 2766 1069 2766 1631 
L 2766 1759 
L 2194 1759 
z
M 3341 1997 
L 3341 0 
L 2766 0 
L 2766 531 
Q 2569 213 2275 61 
Q 1981 -91 1556 -91 
Q 1019 -91 701 211 
Q 384 513 384 1019 
Q 384 1609 779 1909 
Q 1175 2209 1959 2209 
L 2766 2209 
L 2766 2266 
Q 2766 2663 2505 2880 
Q 2244 3097 1772 3097 
Q 1472 3097 1187 3025 
Q 903 2953 641 2809 
L 641 3341 
Q 956 3463 1253 3523 
Q 1550 3584 1831 3584 
Q 2591 3584 2966 3190 
Q 3341 2797 3341 1997 
z
" transform="scale(0.015625)"/>
       <path id="DejaVuSans-79" d="M 2059 -325 
Q 1816 -950 1584 -1140 
Q 1353 -1331 966 -1331 
L 506 -1331 
L 506 -850 
L 844 -850 
Q 1081 -850 1212 -737 
Q 1344 -625 1503 -206 
L 1606 56 
L 191 3500 
L 800 3500 
L 1894 763 
L 2988 3500 
L 3597 3500 
L 2059 -325 
z
" transform="scale(0.015625)"/>
      </defs>
      <use xlink:href="#DejaVuSans-41"/>
      <use xlink:href="#DejaVuSans-63" transform="translate(66.658203 0)"/>
      <use xlink:href="#DejaVuSans-63" transform="translate(121.638672 0)"/>
      <use xlink:href="#DejaVuSans-75" transform="translate(176.619141 0)"/>
      <use xlink:href="#DejaVuSans-72" transform="translate(239.998047 0)"/>
      <use xlink:href="#DejaVuSans-61" transform="translate(281.111328 0)"/>
      <use xlink:href="#DejaVuSans-63" transform="translate(342.390625 0)"/>
      <use xlink:href="#DejaVuSans-79" transform="translate(397.371094 0)"/>
     </g>
    </g>
   </g>
   <g id="line2d_18">
    <path d="M 73.832727 122.370048 
L 78.827413 108.473088 
L 83.822098 104.629248 
L 88.816783 101.524608 
L 93.811469 100.667136 
L 98.806154 102.52992 
L 103.800839 121.335168 
L 108.795524 124.321536 
L 113.79021 124.439808 
L 118.784895 122.784 
L 123.77958 126.893952 
L 128.774266 127.544448 
L 133.768951 128.99328 
L 138.763636 129.407232 
L 143.758322 132.304896 
L 148.753007 131.595264 
L 153.747692 130.057728 
L 158.742378 136.917504 
L 163.737063 148.537728 
L 168.731748 149.188224 
L 173.726434 148.567296 
L 178.721119 152.64768 
L 183.715804 152.765952 
L 188.71049 154.037376 
L 193.705175 159.59616 
L 198.69986 157.437696 
L 203.694545 157.733376 
L 208.689231 161.991168 
L 213.683916 163.824384 
L 218.678601 164.415744 
L 223.673287 178.283136 
L 228.667972 175.355904 
L 233.662657 173.167872 
L 238.657343 180.057216 
L 243.652028 176.982144 
L 248.646713 182.95488 
L 253.641399 191.795712 
L 258.636084 193.510656 
L 263.630769 191.500032 
L 268.625455 193.185408 
L 273.62014 194.04288 
L 278.614825 196.497024 
L 283.60951 212.848128 
L 288.604196 207.437184 
L 293.598881 203.475072 
L 298.593566 205.515264 
L 303.588252 203.682048 
L 308.582937 207.466752 
L 313.577622 220.565376 
L 318.572308 214.208256 
L 323.566993 217.785984 
L 328.561678 223.788288 
L 333.556364 222.309888 
L 338.551049 220.180992 
L 343.545734 242.5344 
L 348.54042 231.062016 
L 353.535105 227.779968 
L 358.52979 226.833792 
L 363.524476 228.607872 
L 368.519161 226.242432 
L 373.513846 229.554048 
L 378.508531 223.196928 
L 383.503217 220.299264 
L 388.497902 222.369024 
L 393.492587 223.876992 
L 398.487273 222.989952 
" clip-path="url(#p9de4f3e6b2)" style="fill: none; stroke: #1f77b4; stroke-width: 1.5; stroke-linecap: square"/>
   </g>
   <g id="line2d_19">
    <path d="M 73.832727 304.33152 
L 78.827413 304.33152 
L 83.822098 309.35808 
L 88.816783 304.92288 
L 93.811469 305.51424 
L 98.806154 303.74016 
L 103.800839 107.40864 
L 108.795524 100.01664 
L 113.79021 99.72096 
L 118.784895 105.63456 
L 123.77958 98.24256 
L 128.774266 100.608 
L 133.768951 128.40192 
L 138.763636 133.1328 
L 143.758322 138.75072 
L 148.753007 130.176 
L 153.747692 135.79392 
L 158.742378 136.38528 
L 163.737063 142.59456 
L 168.731748 136.68096 
L 173.726434 134.6112 
L 178.721119 139.34208 
L 183.715804 141.41184 
L 188.71049 141.11616 
L 193.705175 152.64768 
L 198.69986 154.71744 
L 203.694545 156.19584 
L 208.689231 151.76064 
L 213.683916 155.60448 
L 218.678601 164.47488 
L 223.673287 178.07616 
L 228.667972 177.78048 
L 233.662657 170.97984 
L 238.657343 171.5712 
L 243.652028 173.64096 
L 248.646713 175.71072 
L 253.641399 199.95648 
L 258.636084 200.25216 
L 263.630769 202.02624 
L 268.625455 206.46144 
L 273.62014 200.25216 
L 278.614825 208.23552 
L 283.60951 216.51456 
L 288.604196 207.34848 
L 293.598881 208.5312 
L 298.593566 215.03616 
L 303.588252 217.10592 
L 308.582937 215.9232 
L 313.577622 215.9232 
L 318.572308 212.9664 
L 323.566993 211.488 
L 328.561678 215.62752 
L 333.556364 212.37504 
L 338.551049 210.89664 
L 343.545734 246.08256 
L 348.54042 243.71712 
L 353.535105 235.43808 
L 358.52979 243.12576 
L 363.524476 237.21216 
L 368.519161 241.94304 
L 373.513846 216.51456 
L 378.508531 210.60096 
L 383.503217 208.23552 
L 388.497902 209.71392 
L 393.492587 211.488 
L 398.487273 212.37504 
" clip-path="url(#p9de4f3e6b2)" style="fill: none; stroke: #ff7f0e; stroke-width: 1.5; stroke-linecap: square"/>
   </g>
   <g id="line2d_20">
    <path d="M 73.832727 318.81984 
L 78.827413 314.68032 
L 83.822098 318.81984 
L 88.816783 321.18528 
L 93.811469 318.22848 
L 98.806154 314.38464 
L 103.800839 322.07232 
L 108.795524 322.368 
L 113.79021 321.18528 
L 118.784895 316.75008 
L 123.77958 317.34144 
L 128.774266 318.81984 
L 133.768951 121.89696 
L 138.763636 115.09632 
L 143.758322 109.77408 
L 148.753007 106.22592 
L 153.747692 107.11296 
L 158.742378 110.36544 
L 163.737063 140.82048 
L 168.731748 136.68096 
L 173.726434 132.83712 
L 178.721119 139.93344 
L 183.715804 141.70752 
L 188.71049 143.4816 
L 193.705175 144.66432 
L 198.69986 136.68096 
L 203.694545 133.72416 
L 208.689231 138.75072 
L 213.683916 143.18592 
L 218.678601 144.36864 
L 223.673287 148.80384 
L 228.667972 142.29888 
L 233.662657 147.62112 
L 238.657343 144.96 
L 243.652028 149.3952 
L 248.646713 155.90016 
L 253.641399 171.5712 
L 258.636084 165.6576 
L 263.630769 168.91008 
L 268.625455 165.95328 
L 273.62014 178.66752 
L 278.614825 176.30208 
L 283.60951 184.58112 
L 288.604196 184.8768 
L 293.598881 180.4416 
L 298.593566 176.0064 
L 303.588252 181.03296 
L 308.582937 184.28544 
L 313.577622 215.62752 
L 318.572308 200.84352 
L 323.566993 213.55776 
L 328.561678 211.78368 
L 333.556364 211.19232 
L 338.551049 209.12256 
L 343.545734 220.65408 
L 348.54042 213.85344 
L 353.535105 207.64416 
L 358.52979 210.60096 
L 363.524476 213.26208 
L 368.519161 209.71392 
L 373.513846 210.89664 
L 378.508531 206.75712 
L 383.503217 206.16576 
L 388.497902 204.98304 
L 393.492587 206.46144 
L 398.487273 208.23552 
" clip-path="url(#p9de4f3e6b2)" style="fill: none; stroke: #2ca02c; stroke-width: 1.5; stroke-linecap: square"/>
   </g>
   <g id="line2d_21">
    <path d="M 73.832727 298.41792 
L 78.827413 300.78336 
L 83.822098 304.92288 
L 88.816783 302.85312 
L 93.811469 304.6272 
L 98.806154 303.74016 
L 103.800839 308.17536 
L 108.795524 307.28832 
L 113.79021 307.584 
L 118.784895 306.69696 
L 123.77958 300.78336 
L 128.774266 306.40128 
L 133.768951 311.42784 
L 138.763636 311.13216 
L 143.758322 306.40128 
L 148.753007 309.65376 
L 153.747692 308.76672 
L 158.742378 306.1056 
L 163.737063 100.01664 
L 168.731748 97.05984 
L 173.726434 90.55488 
L 178.721119 90.55488 
L 183.715804 89.37216 
L 188.71049 87.59808 
L 193.705175 115.68768 
L 198.69986 117.75744 
L 203.694545 115.98336 
L 208.689231 129.58464 
L 213.683916 125.44512 
L 218.678601 130.76736 
L 223.673287 134.6112 
L 228.667972 131.35872 
L 233.662657 134.31552 
L 238.657343 132.54144 
L 243.652028 136.0896 
L 248.646713 138.45504 
L 253.641399 152.05632 
L 258.636084 151.76064 
L 263.630769 155.3088 
L 268.625455 154.12608 
L 273.62014 155.01312 
L 278.614825 156.49152 
L 283.60951 176.0064 
L 288.604196 172.16256 
L 293.598881 176.59776 
L 298.593566 173.64096 
L 303.588252 179.25888 
L 308.582937 179.25888 
L 313.577622 189.01632 
L 318.572308 181.92 
L 323.566993 188.12928 
L 328.561678 190.49472 
L 333.556364 190.49472 
L 338.551049 178.37184 
L 343.545734 196.11264 
L 348.54042 195.2256 
L 353.535105 192.2688 
L 358.52979 193.7472 
L 363.524476 195.2256 
L 368.519161 196.704 
L 373.513846 196.99968 
L 378.508531 193.7472 
L 383.503217 195.52128 
L 388.497902 201.43488 
L 393.492587 196.11264 
L 398.487273 199.6608 
" clip-path="url(#p9de4f3e6b2)" style="fill: none; stroke: #d62728; stroke-width: 1.5; stroke-linecap: square"/>
   </g>
   <g id="line2d_22">
    <path d="M 73.832727 310.24512 
L 78.827413 309.35808 
L 83.822098 309.0624 
L 88.816783 310.5408 
L 93.811469 311.42784 
L 98.806154 314.68032 
L 103.800839 311.72352 
L 108.795524 311.42784 
L 113.79021 308.17536 
L 118.784895 307.87968 
L 123.77958 311.13216 
L 128.774266 304.92288 
L 133.768951 310.83648 
L 138.763636 309.0624 
L 143.758322 307.584 
L 148.753007 310.5408 
L 153.747692 308.17536 
L 158.742378 308.47104 
L 163.737063 314.38464 
L 168.731748 314.38464 
L 173.726434 314.38464 
L 178.721119 315.27168 
L 183.715804 311.13216 
L 188.71049 314.38464 
L 193.705175 120.12288 
L 198.69986 108.29568 
L 203.694545 113.02656 
L 208.689231 106.5216 
L 213.683916 107.40864 
L 218.678601 103.26912 
L 223.673287 131.06304 
L 228.667972 134.90688 
L 233.662657 134.01984 
L 238.657343 133.72416 
L 243.652028 131.6544 
L 248.646713 140.5248 
L 253.641399 149.98656 
L 258.636084 152.352 
L 263.630769 148.80384 
L 268.625455 152.64768 
L 273.62014 157.37856 
L 278.614825 159.44832 
L 283.60951 177.4848 
L 288.604196 174.528 
L 293.598881 181.62432 
L 298.593566 175.41504 
L 303.588252 175.41504 
L 308.582937 181.62432 
L 313.577622 190.19904 
L 318.572308 182.51136 
L 323.566993 187.24224 
L 328.561678 187.53792 
L 333.556364 190.19904 
L 338.551049 188.12928 
L 343.545734 213.26208 
L 348.54042 208.23552 
L 353.535105 199.6608 
L 358.52979 202.32192 
L 363.524476 203.50464 
L 368.519161 205.27872 
L 373.513846 204.98304 
L 378.508531 198.47808 
L 383.503217 199.36512 
L 388.497902 202.32192 
L 393.492587 199.36512 
L 398.487273 197.88672 
" clip-path="url(#p9de4f3e6b2)" style="fill: none; stroke: #9467bd; stroke-width: 1.5; stroke-linecap: square"/>
   </g>
   <g id="line2d_23">
    <path d="M 73.832727 309.35808 
L 78.827413 312.0192 
L 83.822098 309.0624 
L 88.816783 310.83648 
L 93.811469 312.31488 
L 98.806154 315.86304 
L 103.800839 305.80992 
L 108.795524 303.44448 
L 113.79021 308.76672 
L 118.784895 301.96608 
L 123.77958 305.51424 
L 128.774266 303.1488 
L 133.768951 302.26176 
L 138.763636 307.584 
L 143.758322 302.26176 
L 148.753007 306.1056 
L 153.747692 311.42784 
L 158.742378 307.87968 
L 163.737063 309.65376 
L 168.731748 310.24512 
L 173.726434 315.27168 
L 178.721119 316.75008 
L 183.715804 316.75008 
L 188.71049 318.81984 
L 193.705175 309.94944 
L 198.69986 308.76672 
L 203.694545 308.17536 
L 208.689231 313.20192 
L 213.683916 311.72352 
L 218.678601 313.20192 
L 223.673287 97.05984 
L 228.667972 94.99008 
L 233.662657 94.10304 
L 238.657343 95.87712 
L 243.652028 93.80736 
L 248.646713 90.2592 
L 253.641399 115.98336 
L 258.636084 118.94016 
L 263.630769 118.64448 
L 268.625455 121.3056 
L 273.62014 123.96672 
L 278.614825 122.48832 
L 283.60951 146.4384 
L 288.604196 149.3952 
L 293.598881 150.57792 
L 298.593566 147.02976 
L 303.588252 151.16928 
L 308.582937 155.3088 
L 313.577622 159.15264 
L 318.572308 154.12608 
L 323.566993 158.2656 
L 328.561678 164.1792 
L 333.556364 160.63104 
L 338.551049 156.19584 
L 343.545734 177.18912 
L 348.54042 172.45824 
L 353.535105 165.6576 
L 358.52979 170.68416 
L 363.524476 166.54464 
L 368.519161 165.95328 
L 373.513846 173.64096 
L 378.508531 169.50144 
L 383.503217 174.82368 
L 388.497902 168.02304 
L 393.492587 170.97984 
L 398.487273 169.20576 
" clip-path="url(#p9de4f3e6b2)" style="fill: none; stroke: #8c564b; stroke-width: 1.5; stroke-linecap: square"/>
   </g>
   <g id="line2d_24">
    <path d="M 73.832727 304.92288 
L 78.827413 299.00928 
L 83.822098 300.48768 
L 88.816783 303.44448 
L 93.811469 301.37472 
L 98.806154 301.07904 
L 103.800839 297.2352 
L 108.795524 297.2352 
L 113.79021 298.41792 
L 118.784895 297.2352 
L 123.77958 300.78336 
L 128.774266 297.2352 
L 133.768951 287.77344 
L 138.763636 290.73024 
L 143.758322 290.73024 
L 148.753007 294.2784 
L 153.747692 297.2352 
L 158.742378 297.2352 
L 163.737063 300.192 
L 168.731748 302.55744 
L 173.726434 298.41792 
L 178.721119 298.7136 
L 183.715804 303.1488 
L 188.71049 301.96608 
L 193.705175 308.76672 
L 198.69986 308.47104 
L 203.694545 301.37472 
L 208.689231 305.21856 
L 213.683916 309.65376 
L 218.678601 308.47104 
L 223.673287 293.98272 
L 228.667972 294.86976 
L 233.662657 293.39136 
L 238.657343 294.2784 
L 243.652028 302.55744 
L 248.646713 296.93952 
L 253.641399 111.84384 
L 258.636084 104.45184 
L 263.630769 100.31232 
L 268.625455 98.24256 
L 273.62014 97.35552 
L 278.614825 96.1728 
L 283.60951 136.38528 
L 288.604196 135.20256 
L 293.598881 144.96 
L 298.593566 133.42848 
L 303.588252 142.89024 
L 308.582937 145.84704 
L 313.577622 151.46496 
L 318.572308 147.62112 
L 323.566993 155.01312 
L 328.561678 154.71744 
L 333.556364 155.3088 
L 338.551049 160.63104 
L 343.545734 186.65088 
L 348.54042 181.92 
L 353.535105 177.4848 
L 358.52979 176.59776 
L 363.524476 171.86688 
L 368.519161 174.528 
L 373.513846 178.9632 
L 378.508531 170.38848 
L 383.503217 170.0928 
L 388.497902 168.6144 
L 393.492587 162.40512 
L 398.487273 163.88352 
" clip-path="url(#p9de4f3e6b2)" style="fill: none; stroke: #e377c2; stroke-width: 1.5; stroke-linecap: square"/>
   </g>
   <g id="line2d_25">
    <path d="M 73.832727 309.65376 
L 78.827413 310.83648 
L 83.822098 313.4976 
L 88.816783 314.68032 
L 93.811469 313.79328 
L 98.806154 312.31488 
L 103.800839 318.22848 
L 108.795524 322.66368 
L 113.79021 319.70688 
L 118.784895 320.8896 
L 123.77958 321.48096 
L 128.774266 319.11552 
L 133.768951 317.63712 
L 138.763636 322.07232 
L 143.758322 317.63712 
L 148.753007 320.59392 
L 153.747692 317.04576 
L 158.742378 317.9328 
L 163.737063 312.0192 
L 168.731748 307.584 
L 173.726434 310.5408 
L 178.721119 301.07904 
L 183.715804 309.0624 
L 188.71049 303.74016 
L 193.705175 316.4544 
L 198.69986 311.72352 
L 203.694545 313.79328 
L 208.689231 310.24512 
L 213.683916 311.13216 
L 218.678601 311.42784 
L 223.673287 308.76672 
L 228.667972 301.07904 
L 233.662657 306.69696 
L 238.657343 304.33152 
L 243.652028 299.30496 
L 248.646713 299.60064 
L 253.641399 315.27168 
L 258.636084 312.90624 
L 263.630769 307.584 
L 268.625455 312.0192 
L 273.62014 312.90624 
L 278.614825 309.35808 
L 283.60951 109.4784 
L 288.604196 103.26912 
L 293.598881 104.45184 
L 298.593566 99.42528 
L 303.588252 100.608 
L 308.582937 101.79072 
L 313.577622 119.53152 
L 318.572308 127.51488 
L 323.566993 129.88032 
L 328.561678 125.44512 
L 333.556364 131.06304 
L 338.551049 129.88032 
L 343.545734 148.80384 
L 348.54042 143.18592 
L 353.535105 145.55136 
L 358.52979 145.84704 
L 363.524476 142.89024 
L 368.519161 142.89024 
L 373.513846 150.28224 
L 378.508531 143.18592 
L 383.503217 139.93344 
L 388.497902 147.32544 
L 393.492587 147.02976 
L 398.487273 145.55136 
" clip-path="url(#p9de4f3e6b2)" style="fill: none; stroke: #7f7f7f; stroke-width: 1.5; stroke-linecap: square"/>
   </g>
   <g id="line2d_26">
    <path d="M 73.832727 291.91296 
L 78.827413 299.00928 
L 83.822098 294.86976 
L 88.816783 299.00928 
L 93.811469 296.64384 
L 98.806154 298.7136 
L 103.800839 299.30496 
L 108.795524 295.46112 
L 113.79021 297.53088 
L 118.784895 293.68704 
L 123.77958 295.16544 
L 128.774266 299.00928 
L 133.768951 301.07904 
L 138.763636 301.96608 
L 143.758322 304.03584 
L 148.753007 304.03584 
L 153.747692 302.85312 
L 158.742378 301.37472 
L 163.737063 306.40128 
L 168.731748 302.85312 
L 173.726434 299.00928 
L 178.721119 306.1056 
L 183.715804 299.89632 
L 188.71049 304.33152 
L 193.705175 309.94944 
L 198.69986 306.69696 
L 203.694545 305.80992 
L 208.689231 305.80992 
L 213.683916 304.33152 
L 218.678601 306.69696 
L 223.673287 306.1056 
L 228.667972 299.89632 
L 233.662657 301.6704 
L 238.657343 301.96608 
L 243.652028 303.1488 
L 248.646713 301.07904 
L 253.641399 304.03584 
L 258.636084 304.03584 
L 263.630769 306.1056 
L 268.625455 308.17536 
L 273.62014 307.28832 
L 278.614825 302.26176 
L 283.60951 305.51424 
L 288.604196 310.83648 
L 293.598881 312.0192 
L 298.593566 309.35808 
L 303.588252 312.0192 
L 308.582937 312.31488 
L 313.577622 117.75744 
L 318.572308 111.54816 
L 323.566993 108.88704 
L 328.561678 107.70432 
L 333.556364 105.93024 
L 338.551049 107.40864 
L 343.545734 142.89024 
L 348.54042 145.84704 
L 353.535105 143.4816 
L 358.52979 143.4816 
L 363.524476 147.9168 
L 368.519161 145.55136 
L 373.513846 142.0032 
L 378.508531 143.4816 
L 383.503217 142.0032 
L 388.497902 145.55136 
L 393.492587 144.07296 
L 398.487273 147.32544 
" clip-path="url(#p9de4f3e6b2)" style="fill: none; stroke: #bcbd22; stroke-width: 1.5; stroke-linecap: square"/>
   </g>
   <g id="line2d_27">
    <path d="M 73.832727 305.21856 
L 78.827413 309.0624 
L 83.822098 308.17536 
L 88.816783 313.79328 
L 93.811469 317.34144 
L 98.806154 313.4976 
L 103.800839 310.5408 
L 108.795524 316.75008 
L 113.79021 308.17536 
L 118.784895 312.90624 
L 123.77958 307.584 
L 128.774266 308.47104 
L 133.768951 316.15872 
L 138.763636 313.79328 
L 143.758322 314.976 
L 148.753007 312.31488 
L 153.747692 316.4544 
L 158.742378 312.0192 
L 163.737063 308.17536 
L 168.731748 310.83648 
L 173.726434 307.87968 
L 178.721119 306.69696 
L 183.715804 308.76672 
L 188.71049 307.87968 
L 193.705175 306.1056 
L 198.69986 309.65376 
L 203.694545 306.69696 
L 208.689231 308.76672 
L 213.683916 306.69696 
L 218.678601 306.40128 
L 223.673287 313.4976 
L 228.667972 315.56736 
L 233.662657 312.90624 
L 238.657343 313.4976 
L 243.652028 310.83648 
L 248.646713 310.83648 
L 253.641399 308.47104 
L 258.636084 303.74016 
L 263.630769 301.37472 
L 268.625455 305.80992 
L 273.62014 303.74016 
L 278.614825 301.37472 
L 283.60951 299.30496 
L 288.604196 306.40128 
L 293.598881 300.78336 
L 298.593566 299.00928 
L 303.588252 298.12224 
L 308.582937 297.53088 
L 313.577622 306.99264 
L 318.572308 308.76672 
L 323.566993 305.21856 
L 328.561678 305.80992 
L 333.556364 305.80992 
L 338.551049 307.584 
L 343.545734 104.74752 
L 348.54042 99.1296 
L 353.535105 95.87712 
L 358.52979 93.216 
L 363.524476 94.99008 
L 368.519161 94.39872 
L 373.513846 140.5248 
L 378.508531 136.38528 
L 383.503217 134.6112 
L 388.497902 140.82048 
L 393.492587 143.18592 
L 398.487273 137.86368 
" clip-path="url(#p9de4f3e6b2)" style="fill: none; stroke: #17becf; stroke-width: 1.5; stroke-linecap: square"/>
   </g>
   <g id="line2d_28">
    <path d="M 73.832727 319.4112 
L 78.827413 322.66368 
L 83.822098 322.66368 
L 88.816783 317.9328 
L 93.811469 318.52416 
L 98.806154 314.38464 
L 103.800839 311.42784 
L 108.795524 313.4976 
L 113.79021 314.08896 
L 118.784895 313.79328 
L 123.77958 313.4976 
L 128.774266 313.79328 
L 133.768951 317.63712 
L 138.763636 316.75008 
L 143.758322 320.59392 
L 148.753007 318.22848 
L 153.747692 318.52416 
L 158.742378 320.00256 
L 163.737063 316.15872 
L 168.731748 315.86304 
L 173.726434 317.34144 
L 178.721119 316.4544 
L 183.715804 316.75008 
L 188.71049 313.4976 
L 193.705175 320.00256 
L 198.69986 315.86304 
L 203.694545 318.22848 
L 208.689231 315.86304 
L 213.683916 319.70688 
L 218.678601 314.976 
L 223.673287 322.95936 
L 228.667972 319.70688 
L 233.662657 319.11552 
L 238.657343 316.15872 
L 243.652028 314.976 
L 248.646713 318.52416 
L 253.641399 322.95936 
L 258.636084 324.43776 
L 263.630769 322.95936 
L 268.625455 321.48096 
L 273.62014 320.8896 
L 278.614825 323.55072 
L 283.60951 321.18528 
L 288.604196 321.77664 
L 293.598881 320.8896 
L 298.593566 320.8896 
L 303.588252 317.34144 
L 308.582937 321.48096 
L 313.577622 313.20192 
L 318.572308 311.13216 
L 323.566993 314.08896 
L 328.561678 312.61056 
L 333.556364 312.90624 
L 338.551049 315.56736 
L 343.545734 309.0624 
L 348.54042 310.24512 
L 353.535105 316.75008 
L 358.52979 316.4544 
L 363.524476 315.27168 
L 368.519161 316.15872 
L 373.513846 94.6944 
L 378.508531 87.00672 
L 383.503217 83.75424 
L 388.497902 81.68448 
L 393.492587 81.09312 
L 398.487273 83.16288 
" clip-path="url(#p9de4f3e6b2)" style="fill: none; stroke: #1f77b4; stroke-width: 1.5; stroke-linecap: square"/>
   </g>
   <g id="patch_3">
    <path d="M 57.6 307.584 
L 57.6 41.472 
" style="fill: none; stroke: #000000; stroke-width: 0.8; stroke-linejoin: miter; stroke-linecap: square"/>
   </g>
   <g id="patch_4">
    <path d="M 414.72 307.584 
L 414.72 41.472 
" style="fill: none; stroke: #000000; stroke-width: 0.8; stroke-linejoin: miter; stroke-linecap: square"/>
   </g>
   <g id="patch_5">
    <path d="M 57.6 307.584 
L 414.72 307.584 
" style="fill: none; stroke: #000000; stroke-width: 0.8; stroke-linejoin: miter; stroke-linecap: square"/>
   </g>
   <g id="patch_6">
    <path d="M 57.6 41.472 
L 414.72 41.472 
" style="fill: none; stroke: #000000; stroke-width: 0.8; stroke-linejoin: miter; stroke-linecap: square"/>
   </g>
  </g>
 </g>
 <defs>
  <clipPath id="p9de4f3e6b2">
   <rect x="57.6" y="41.472" width="357.12" height="266.112"/>
  </clipPath>
 </defs>
</svg>
