<?xml version="1.0" encoding="utf-8" standalone="no"?>
<!DOCTYPE svg PUBLIC "-//W3C//DTD SVG 1.1//EN"
  "http://www.w3.org/Graphics/SVG/1.1/DTD/svg11.dtd">
<svg xmlns:xlink="http://www.w3.org/1999/xlink" width="460.8pt" height="345.6pt" viewBox="0 0 460.8 345.6" xmlns="http://www.w3.org/2000/svg" version="1.1">
 <metadata>
  <rdf:RDF xmlns:dc="http://purl.org/dc/elements/1.1/" xmlns:cc="http://creativecommons.org/ns#" xmlns:rdf="http://www.w3.org/1999/02/22-rdf-syntax-ns#">
   <cc:Work>
    <dc:type rdf:resource="http://purl.org/dc/dcmitype/StillImage"/>
    <dc:date>2025-02-17T11:30:52.288833</dc:date>
    <dc:format>image/svg+xml</dc:format>
    <dc:creator>
     <cc:Agent>
      <dc:title>Matplotlib v3.10.0, https://matplotlib.org/</dc:title>
     </cc:Agent>
    </dc:creator>
   </cc:Work>
  </rdf:RDF>
 </metadata>
 <defs>
  <style type="text/css">*{stroke-linejoin: round; stroke-linecap: butt}</style>
 </defs>
 <g id="figure_1">
  <g id="patch_1">
   <path d="M 0 345.6 
L 460.8 345.6 
L 460.8 0 
L 0 0 
z
" style="fill: #ffffff"/>
  </g>
  <g id="axes_1">
   <g id="patch_2">
    <path d="M 57.6 307.584 
L 414.72 307.584 
L 414.72 41.472 
L 57.6 41.472 
z
" style="fill: #ffffff"/>
   </g>
   <g id="matplotlib.axis_1">
    <g id="xtick_1">
     <g id="line2d_1">
      <defs>
       <path id="m932946ed8b" d="M 0 0 
L 0 3.5 
" style="stroke: #000000; stroke-width: 0.8"/>
      </defs>
      <g>
       <use xlink:href="#m932946ed8b" x="73.832727" y="307.584" style="stroke: #000000; stroke-width: 0.8"/>
      </g>
     </g>
     <g id="text_1">
      <!-- 0 -->
      <g transform="translate(70.651477 322.182437) scale(0.1 -0.1)">
       <defs>
        <path id="DejaVuSans-30" d="M 2034 4250 
Q 1547 4250 1301 3770 
Q 1056 3291 1056 2328 
Q 1056 1369 1301 889 
Q 1547 409 2034 409 
Q 2525 409 2770 889 
Q 3016 1369 3016 2328 
Q 3016 3291 2770 3770 
Q 2525 4250 2034 4250 
z
M 2034 4750 
Q 2819 4750 3233 4129 
Q 3647 3509 3647 2328 
Q 3647 1150 3233 529 
Q 2819 -91 2034 -91 
Q 1250 -91 836 529 
Q 422 1150 422 2328 
Q 422 3509 836 4129 
Q 1250 4750 2034 4750 
z
" transform="scale(0.015625)"/>
       </defs>
       <use xlink:href="#DejaVuSans-30"/>
      </g>
     </g>
    </g>
    <g id="xtick_2">
     <g id="line2d_2">
      <g>
       <use xlink:href="#m932946ed8b" x="123.77958" y="307.584" style="stroke: #000000; stroke-width: 0.8"/>
      </g>
     </g>
     <g id="text_2">
      <!-- 10 -->
      <g transform="translate(117.41708 322.182437) scale(0.1 -0.1)">
       <defs>
        <path id="DejaVuSans-31" d="M 794 531 
L 1825 531 
L 1825 4091 
L 703 3866 
L 703 4441 
L 1819 4666 
L 2450 4666 
L 2450 531 
L 3481 531 
L 3481 0 
L 794 0 
L 794 531 
z
" transform="scale(0.015625)"/>
       </defs>
       <use xlink:href="#DejaVuSans-31"/>
       <use xlink:href="#DejaVuSans-30" transform="translate(63.623047 0)"/>
      </g>
     </g>
    </g>
    <g id="xtick_3">
     <g id="line2d_3">
      <g>
       <use xlink:href="#m932946ed8b" x="173.726434" y="307.584" style="stroke: #000000; stroke-width: 0.8"/>
      </g>
     </g>
     <g id="text_3">
      <!-- 20 -->
      <g transform="translate(167.363934 322.182437) scale(0.1 -0.1)">
       <defs>
        <path id="DejaVuSans-32" d="M 1228 531 
L 3431 531 
L 3431 0 
L 469 0 
L 469 531 
Q 828 903 1448 1529 
Q 2069 2156 2228 2338 
Q 2531 2678 2651 2914 
Q 2772 3150 2772 3378 
Q 2772 3750 2511 3984 
Q 2250 4219 1831 4219 
Q 1534 4219 1204 4116 
Q 875 4013 500 3803 
L 500 4441 
Q 881 4594 1212 4672 
Q 1544 4750 1819 4750 
Q 2544 4750 2975 4387 
Q 3406 4025 3406 3419 
Q 3406 3131 3298 2873 
Q 3191 2616 2906 2266 
Q 2828 2175 2409 1742 
Q 1991 1309 1228 531 
z
" transform="scale(0.015625)"/>
       </defs>
       <use xlink:href="#DejaVuSans-32"/>
       <use xlink:href="#DejaVuSans-30" transform="translate(63.623047 0)"/>
      </g>
     </g>
    </g>
    <g id="xtick_4">
     <g id="line2d_4">
      <g>
       <use xlink:href="#m932946ed8b" x="223.673287" y="307.584" style="stroke: #000000; stroke-width: 0.8"/>
      </g>
     </g>
     <g id="text_4">
      <!-- 30 -->
      <g transform="translate(217.310787 322.182437) scale(0.1 -0.1)">
       <defs>
        <path id="DejaVuSans-33" d="M 2597 2516 
Q 3050 2419 3304 2112 
Q 3559 1806 3559 1356 
Q 3559 666 3084 287 
Q 2609 -91 1734 -91 
Q 1441 -91 1130 -33 
Q 819 25 488 141 
L 488 750 
Q 750 597 1062 519 
Q 1375 441 1716 441 
Q 2309 441 2620 675 
Q 2931 909 2931 1356 
Q 2931 1769 2642 2001 
Q 2353 2234 1838 2234 
L 1294 2234 
L 1294 2753 
L 1863 2753 
Q 2328 2753 2575 2939 
Q 2822 3125 2822 3475 
Q 2822 3834 2567 4026 
Q 2313 4219 1838 4219 
Q 1578 4219 1281 4162 
Q 984 4106 628 3988 
L 628 4550 
Q 988 4650 1302 4700 
Q 1616 4750 1894 4750 
Q 2613 4750 3031 4423 
Q 3450 4097 3450 3541 
Q 3450 3153 3228 2886 
Q 3006 2619 2597 2516 
z
" transform="scale(0.015625)"/>
       </defs>
       <use xlink:href="#DejaVuSans-33"/>
       <use xlink:href="#DejaVuSans-30" transform="translate(63.623047 0)"/>
      </g>
     </g>
    </g>
    <g id="xtick_5">
     <g id="line2d_5">
      <g>
       <use xlink:href="#m932946ed8b" x="273.62014" y="307.584" style="stroke: #000000; stroke-width: 0.8"/>
      </g>
     </g>
     <g id="text_5">
      <!-- 40 -->
      <g transform="translate(267.25764 322.182437) scale(0.1 -0.1)">
       <defs>
        <path id="DejaVuSans-34" d="M 2419 4116 
L 825 1625 
L 2419 1625 
L 2419 4116 
z
M 2253 4666 
L 3047 4666 
L 3047 1625 
L 3713 1625 
L 3713 1100 
L 3047 1100 
L 3047 0 
L 2419 0 
L 2419 1100 
L 313 1100 
L 313 1709 
L 2253 4666 
z
" transform="scale(0.015625)"/>
       </defs>
       <use xlink:href="#DejaVuSans-34"/>
       <use xlink:href="#DejaVuSans-30" transform="translate(63.623047 0)"/>
      </g>
     </g>
    </g>
    <g id="xtick_6">
     <g id="line2d_6">
      <g>
       <use xlink:href="#m932946ed8b" x="323.566993" y="307.584" style="stroke: #000000; stroke-width: 0.8"/>
      </g>
     </g>
     <g id="text_6">
      <!-- 50 -->
      <g transform="translate(317.204493 322.182437) scale(0.1 -0.1)">
       <defs>
        <path id="DejaVuSans-35" d="M 691 4666 
L 3169 4666 
L 3169 4134 
L 1269 4134 
L 1269 2991 
Q 1406 3038 1543 3061 
Q 1681 3084 1819 3084 
Q 2600 3084 3056 2656 
Q 3513 2228 3513 1497 
Q 3513 744 3044 326 
Q 2575 -91 1722 -91 
Q 1428 -91 1123 -41 
Q 819 9 494 109 
L 494 744 
Q 775 591 1075 516 
Q 1375 441 1709 441 
Q 2250 441 2565 725 
Q 2881 1009 2881 1497 
Q 2881 1984 2565 2268 
Q 2250 2553 1709 2553 
Q 1456 2553 1204 2497 
Q 953 2441 691 2322 
L 691 4666 
z
" transform="scale(0.015625)"/>
       </defs>
       <use xlink:href="#DejaVuSans-35"/>
       <use xlink:href="#DejaVuSans-30" transform="translate(63.623047 0)"/>
      </g>
     </g>
    </g>
    <g id="xtick_7">
     <g id="line2d_7">
      <g>
       <use xlink:href="#m932946ed8b" x="373.513846" y="307.584" style="stroke: #000000; stroke-width: 0.8"/>
      </g>
     </g>
     <g id="text_7">
      <!-- 60 -->
      <g transform="translate(367.151346 322.182437) scale(0.1 -0.1)">
       <defs>
        <path id="DejaVuSans-36" d="M 2113 2584 
Q 1688 2584 1439 2293 
Q 1191 2003 1191 1497 
Q 1191 994 1439 701 
Q 1688 409 2113 409 
Q 2538 409 2786 701 
Q 3034 994 3034 1497 
Q 3034 2003 2786 2293 
Q 2538 2584 2113 2584 
z
M 3366 4563 
L 3366 3988 
Q 3128 4100 2886 4159 
Q 2644 4219 2406 4219 
Q 1781 4219 1451 3797 
Q 1122 3375 1075 2522 
Q 1259 2794 1537 2939 
Q 1816 3084 2150 3084 
Q 2853 3084 3261 2657 
Q 3669 2231 3669 1497 
Q 3669 778 3244 343 
Q 2819 -91 2113 -91 
Q 1303 -91 875 529 
Q 447 1150 447 2328 
Q 447 3434 972 4092 
Q 1497 4750 2381 4750 
Q 2619 4750 2861 4703 
Q 3103 4656 3366 4563 
z
" transform="scale(0.015625)"/>
       </defs>
       <use xlink:href="#DejaVuSans-36"/>
       <use xlink:href="#DejaVuSans-30" transform="translate(63.623047 0)"/>
      </g>
     </g>
    </g>
    <g id="text_8">
     <!-- Epochs -->
     <g transform="translate(218.244375 335.860562) scale(0.1 -0.1)">
      <defs>
       <path id="DejaVuSans-45" d="M 628 4666 
L 3578 4666 
L 3578 4134 
L 1259 4134 
L 1259 2753 
L 3481 2753 
L 3481 2222 
L 1259 2222 
L 1259 531 
L 3634 531 
L 3634 0 
L 628 0 
L 628 4666 
z
" transform="scale(0.015625)"/>
       <path id="DejaVuSans-70" d="M 1159 525 
L 1159 -1331 
L 581 -1331 
L 581 3500 
L 1159 3500 
L 1159 2969 
Q 1341 3281 1617 3432 
Q 1894 3584 2278 3584 
Q 2916 3584 3314 3078 
Q 3713 2572 3713 1747 
Q 3713 922 3314 415 
Q 2916 -91 2278 -91 
Q 1894 -91 1617 61 
Q 1341 213 1159 525 
z
M 3116 1747 
Q 3116 2381 2855 2742 
Q 2594 3103 2138 3103 
Q 1681 3103 1420 2742 
Q 1159 2381 1159 1747 
Q 1159 1113 1420 752 
Q 1681 391 2138 391 
Q 2594 391 2855 752 
Q 3116 1113 3116 1747 
z
" transform="scale(0.015625)"/>
       <path id="DejaVuSans-6f" d="M 1959 3097 
Q 1497 3097 1228 2736 
Q 959 2375 959 1747 
Q 959 1119 1226 758 
Q 1494 397 1959 397 
Q 2419 397 2687 759 
Q 2956 1122 2956 1747 
Q 2956 2369 2687 2733 
Q 2419 3097 1959 3097 
z
M 1959 3584 
Q 2709 3584 3137 3096 
Q 3566 2609 3566 1747 
Q 3566 888 3137 398 
Q 2709 -91 1959 -91 
Q 1206 -91 779 398 
Q 353 888 353 1747 
Q 353 2609 779 3096 
Q 1206 3584 1959 3584 
z
" transform="scale(0.015625)"/>
       <path id="DejaVuSans-63" d="M 3122 3366 
L 3122 2828 
Q 2878 2963 2633 3030 
Q 2388 3097 2138 3097 
Q 1578 3097 1268 2742 
Q 959 2388 959 1747 
Q 959 1106 1268 751 
Q 1578 397 2138 397 
Q 2388 397 2633 464 
Q 2878 531 3122 666 
L 3122 134 
Q 2881 22 2623 -34 
Q 2366 -91 2075 -91 
Q 1284 -91 818 406 
Q 353 903 353 1747 
Q 353 2603 823 3093 
Q 1294 3584 2113 3584 
Q 2378 3584 2631 3529 
Q 2884 3475 3122 3366 
z
" transform="scale(0.015625)"/>
       <path id="DejaVuSans-68" d="M 3513 2113 
L 3513 0 
L 2938 0 
L 2938 2094 
Q 2938 2591 2744 2837 
Q 2550 3084 2163 3084 
Q 1697 3084 1428 2787 
Q 1159 2491 1159 1978 
L 1159 0 
L 581 0 
L 581 4863 
L 1159 4863 
L 1159 2956 
Q 1366 3272 1645 3428 
Q 1925 3584 2291 3584 
Q 2894 3584 3203 3211 
Q 3513 2838 3513 2113 
z
" transform="scale(0.015625)"/>
       <path id="DejaVuSans-73" d="M 2834 3397 
L 2834 2853 
Q 2591 2978 2328 3040 
Q 2066 3103 1784 3103 
Q 1356 3103 1142 2972 
Q 928 2841 928 2578 
Q 928 2378 1081 2264 
Q 1234 2150 1697 2047 
L 1894 2003 
Q 2506 1872 2764 1633 
Q 3022 1394 3022 966 
Q 3022 478 2636 193 
Q 2250 -91 1575 -91 
Q 1294 -91 989 -36 
Q 684 19 347 128 
L 347 722 
Q 666 556 975 473 
Q 1284 391 1588 391 
Q 1994 391 2212 530 
Q 2431 669 2431 922 
Q 2431 1156 2273 1281 
Q 2116 1406 1581 1522 
L 1381 1569 
Q 847 1681 609 1914 
Q 372 2147 372 2553 
Q 372 3047 722 3315 
Q 1072 3584 1716 3584 
Q 2034 3584 2315 3537 
Q 2597 3491 2834 3397 
z
" transform="scale(0.015625)"/>
      </defs>
      <use xlink:href="#DejaVuSans-45"/>
      <use xlink:href="#DejaVuSans-70" transform="translate(63.183594 0)"/>
      <use xlink:href="#DejaVuSans-6f" transform="translate(126.660156 0)"/>
      <use xlink:href="#DejaVuSans-63" transform="translate(187.841797 0)"/>
      <use xlink:href="#DejaVuSans-68" transform="translate(242.822266 0)"/>
      <use xlink:href="#DejaVuSans-73" transform="translate(306.201172 0)"/>
     </g>
    </g>
   </g>
   <g id="matplotlib.axis_2">
    <g id="ytick_1">
     <g id="line2d_8">
      <defs>
       <path id="m35b208e052" d="M 0 0 
L -3.5 0 
" style="stroke: #000000; stroke-width: 0.8"/>
      </defs>
      <g>
       <use xlink:href="#m35b208e052" x="57.6" y="307.584" style="stroke: #000000; stroke-width: 0.8"/>
      </g>
     </g>
     <g id="text_9">
      <!-- 0.1 -->
      <g transform="translate(34.696875 311.383219) scale(0.1 -0.1)">
       <defs>
        <path id="DejaVuSans-2e" d="M 684 794 
L 1344 794 
L 1344 0 
L 684 0 
L 684 794 
z
" transform="scale(0.015625)"/>
       </defs>
       <use xlink:href="#DejaVuSans-30"/>
       <use xlink:href="#DejaVuSans-2e" transform="translate(63.623047 0)"/>
       <use xlink:href="#DejaVuSans-31" transform="translate(95.410156 0)"/>
      </g>
     </g>
    </g>
    <g id="ytick_2">
     <g id="line2d_9">
      <g>
       <use xlink:href="#m35b208e052" x="57.6" y="278.016" style="stroke: #000000; stroke-width: 0.8"/>
      </g>
     </g>
     <g id="text_10">
      <!-- 0.2 -->
      <g transform="translate(34.696875 281.815219) scale(0.1 -0.1)">
       <use xlink:href="#DejaVuSans-30"/>
       <use xlink:href="#DejaVuSans-2e" transform="translate(63.623047 0)"/>
       <use xlink:href="#DejaVuSans-32" transform="translate(95.410156 0)"/>
      </g>
     </g>
    </g>
    <g id="ytick_3">
     <g id="line2d_10">
      <g>
       <use xlink:href="#m35b208e052" x="57.6" y="248.448" style="stroke: #000000; stroke-width: 0.8"/>
      </g>
     </g>
     <g id="text_11">
      <!-- 0.3 -->
      <g transform="translate(34.696875 252.247219) scale(0.1 -0.1)">
       <use xlink:href="#DejaVuSans-30"/>
       <use xlink:href="#DejaVuSans-2e" transform="translate(63.623047 0)"/>
       <use xlink:href="#DejaVuSans-33" transform="translate(95.410156 0)"/>
      </g>
     </g>
    </g>
    <g id="ytick_4">
     <g id="line2d_11">
      <g>
       <use xlink:href="#m35b208e052" x="57.6" y="218.88" style="stroke: #000000; stroke-width: 0.8"/>
      </g>
     </g>
     <g id="text_12">
      <!-- 0.4 -->
      <g transform="translate(34.696875 222.679219) scale(0.1 -0.1)">
       <use xlink:href="#DejaVuSans-30"/>
       <use xlink:href="#DejaVuSans-2e" transform="translate(63.623047 0)"/>
       <use xlink:href="#DejaVuSans-34" transform="translate(95.410156 0)"/>
      </g>
     </g>
    </g>
    <g id="ytick_5">
     <g id="line2d_12">
      <g>
       <use xlink:href="#m35b208e052" x="57.6" y="189.312" style="stroke: #000000; stroke-width: 0.8"/>
      </g>
     </g>
     <g id="text_13">
      <!-- 0.5 -->
      <g transform="translate(34.696875 193.111219) scale(0.1 -0.1)">
       <use xlink:href="#DejaVuSans-30"/>
       <use xlink:href="#DejaVuSans-2e" transform="translate(63.623047 0)"/>
       <use xlink:href="#DejaVuSans-35" transform="translate(95.410156 0)"/>
      </g>
     </g>
    </g>
    <g id="ytick_6">
     <g id="line2d_13">
      <g>
       <use xlink:href="#m35b208e052" x="57.6" y="159.744" style="stroke: #000000; stroke-width: 0.8"/>
      </g>
     </g>
     <g id="text_14">
      <!-- 0.6 -->
      <g transform="translate(34.696875 163.543219) scale(0.1 -0.1)">
       <use xlink:href="#DejaVuSans-30"/>
       <use xlink:href="#DejaVuSans-2e" transform="translate(63.623047 0)"/>
       <use xlink:href="#DejaVuSans-36" transform="translate(95.410156 0)"/>
      </g>
     </g>
    </g>
    <g id="ytick_7">
     <g id="line2d_14">
      <g>
       <use xlink:href="#m35b208e052" x="57.6" y="130.176" style="stroke: #000000; stroke-width: 0.8"/>
      </g>
     </g>
     <g id="text_15">
      <!-- 0.7 -->
      <g transform="translate(34.696875 133.975219) scale(0.1 -0.1)">
       <defs>
        <path id="DejaVuSans-37" d="M 525 4666 
L 3525 4666 
L 3525 4397 
L 1831 0 
L 1172 0 
L 2766 4134 
L 525 4134 
L 525 4666 
z
" transform="scale(0.015625)"/>
       </defs>
       <use xlink:href="#DejaVuSans-30"/>
       <use xlink:href="#DejaVuSans-2e" transform="translate(63.623047 0)"/>
       <use xlink:href="#DejaVuSans-37" transform="translate(95.410156 0)"/>
      </g>
     </g>
    </g>
    <g id="ytick_8">
     <g id="line2d_15">
      <g>
       <use xlink:href="#m35b208e052" x="57.6" y="100.608" style="stroke: #000000; stroke-width: 0.8"/>
      </g>
     </g>
     <g id="text_16">
      <!-- 0.8 -->
      <g transform="translate(34.696875 104.407219) scale(0.1 -0.1)">
       <defs>
        <path id="DejaVuSans-38" d="M 2034 2216 
Q 1584 2216 1326 1975 
Q 1069 1734 1069 1313 
Q 1069 891 1326 650 
Q 1584 409 2034 409 
Q 2484 409 2743 651 
Q 3003 894 3003 1313 
Q 3003 1734 2745 1975 
Q 2488 2216 2034 2216 
z
M 1403 2484 
Q 997 2584 770 2862 
Q 544 3141 544 3541 
Q 544 4100 942 4425 
Q 1341 4750 2034 4750 
Q 2731 4750 3128 4425 
Q 3525 4100 3525 3541 
Q 3525 3141 3298 2862 
Q 3072 2584 2669 2484 
Q 3125 2378 3379 2068 
Q 3634 1759 3634 1313 
Q 3634 634 3220 271 
Q 2806 -91 2034 -91 
Q 1263 -91 848 271 
Q 434 634 434 1313 
Q 434 1759 690 2068 
Q 947 2378 1403 2484 
z
M 1172 3481 
Q 1172 3119 1398 2916 
Q 1625 2713 2034 2713 
Q 2441 2713 2670 2916 
Q 2900 3119 2900 3481 
Q 2900 3844 2670 4047 
Q 2441 4250 2034 4250 
Q 1625 4250 1398 4047 
Q 1172 3844 1172 3481 
z
" transform="scale(0.015625)"/>
       </defs>
       <use xlink:href="#DejaVuSans-30"/>
       <use xlink:href="#DejaVuSans-2e" transform="translate(63.623047 0)"/>
       <use xlink:href="#DejaVuSans-38" transform="translate(95.410156 0)"/>
      </g>
     </g>
    </g>
    <g id="ytick_9">
     <g id="line2d_16">
      <g>
       <use xlink:href="#m35b208e052" x="57.6" y="71.04" style="stroke: #000000; stroke-width: 0.8"/>
      </g>
     </g>
     <g id="text_17">
      <!-- 0.9 -->
      <g transform="translate(34.696875 74.839219) scale(0.1 -0.1)">
       <defs>
        <path id="DejaVuSans-39" d="M 703 97 
L 703 672 
Q 941 559 1184 500 
Q 1428 441 1663 441 
Q 2288 441 2617 861 
Q 2947 1281 2994 2138 
Q 2813 1869 2534 1725 
Q 2256 1581 1919 1581 
Q 1219 1581 811 2004 
Q 403 2428 403 3163 
Q 403 3881 828 4315 
Q 1253 4750 1959 4750 
Q 2769 4750 3195 4129 
Q 3622 3509 3622 2328 
Q 3622 1225 3098 567 
Q 2575 -91 1691 -91 
Q 1453 -91 1209 -44 
Q 966 3 703 97 
z
M 1959 2075 
Q 2384 2075 2632 2365 
Q 2881 2656 2881 3163 
Q 2881 3666 2632 3958 
Q 2384 4250 1959 4250 
Q 1534 4250 1286 3958 
Q 1038 3666 1038 3163 
Q 1038 2656 1286 2365 
Q 1534 2075 1959 2075 
z
" transform="scale(0.015625)"/>
       </defs>
       <use xlink:href="#DejaVuSans-30"/>
       <use xlink:href="#DejaVuSans-2e" transform="translate(63.623047 0)"/>
       <use xlink:href="#DejaVuSans-39" transform="translate(95.410156 0)"/>
      </g>
     </g>
    </g>
    <g id="ytick_10">
     <g id="line2d_17">
      <g>
       <use xlink:href="#m35b208e052" x="57.6" y="41.472" style="stroke: #000000; stroke-width: 0.8"/>
      </g>
     </g>
     <g id="text_18">
      <!-- 1.0 -->
      <g transform="translate(34.696875 45.271219) scale(0.1 -0.1)">
       <use xlink:href="#DejaVuSans-31"/>
       <use xlink:href="#DejaVuSans-2e" transform="translate(63.623047 0)"/>
       <use xlink:href="#DejaVuSans-30" transform="translate(95.410156 0)"/>
      </g>
     </g>
    </g>
    <g id="text_19">
     <!-- Accuracy -->
     <g transform="translate(28.617187 197.356125) rotate(-90) scale(0.1 -0.1)">
      <defs>
       <path id="DejaVuSans-41" d="M 2188 4044 
L 1331 1722 
L 3047 1722 
L 2188 4044 
z
M 1831 4666 
L 2547 4666 
L 4325 0 
L 3669 0 
L 3244 1197 
L 1141 1197 
L 716 0 
L 50 0 
L 1831 4666 
z
" transform="scale(0.015625)"/>
       <path id="DejaVuSans-75" d="M 544 1381 
L 544 3500 
L 1119 3500 
L 1119 1403 
Q 1119 906 1312 657 
Q 1506 409 1894 409 
Q 2359 409 2629 706 
Q 2900 1003 2900 1516 
L 2900 3500 
L 3475 3500 
L 3475 0 
L 2900 0 
L 2900 538 
Q 2691 219 2414 64 
Q 2138 -91 1772 -91 
Q 1169 -91 856 284 
Q 544 659 544 1381 
z
M 1991 3584 
L 1991 3584 
z
" transform="scale(0.015625)"/>
       <path id="DejaVuSans-72" d="M 2631 2963 
Q 2534 3019 2420 3045 
Q 2306 3072 2169 3072 
Q 1681 3072 1420 2755 
Q 1159 2438 1159 1844 
L 1159 0 
L 581 0 
L 581 3500 
L 1159 3500 
L 1159 2956 
Q 1341 3275 1631 3429 
Q 1922 3584 2338 3584 
Q 2397 3584 2469 3576 
Q 2541 3569 2628 3553 
L 2631 2963 
z
" transform="scale(0.015625)"/>
       <path id="DejaVuSans-61" d="M 2194 1759 
Q 1497 1759 1228 1600 
Q 959 1441 959 1056 
Q 959 750 1161 570 
Q 1363 391 1709 391 
Q 2188 391 2477 730 
Q 2766 1069 2766 1631 
L 2766 1759 
L 2194 1759 
z
M 3341 1997 
L 3341 0 
L 2766 0 
L 2766 531 
Q 2569 213 2275 61 
Q 1981 -91 1556 -91 
Q 1019 -91 701 211 
Q 384 513 384 1019 
Q 384 1609 779 1909 
Q 1175 2209 1959 2209 
L 2766 2209 
L 2766 2266 
Q 2766 2663 2505 2880 
Q 2244 3097 1772 3097 
Q 1472 3097 1187 3025 
Q 903 2953 641 2809 
L 641 3341 
Q 956 3463 1253 3523 
Q 1550 3584 1831 3584 
Q 2591 3584 2966 3190 
Q 3341 2797 3341 1997 
z
" transform="scale(0.015625)"/>
       <path id="DejaVuSans-79" d="M 2059 -325 
Q 1816 -950 1584 -1140 
Q 1353 -1331 966 -1331 
L 506 -1331 
L 506 -850 
L 844 -850 
Q 1081 -850 1212 -737 
Q 1344 -625 1503 -206 
L 1606 56 
L 191 3500 
L 800 3500 
L 1894 763 
L 2988 3500 
L 3597 3500 
L 2059 -325 
z
" transform="scale(0.015625)"/>
      </defs>
      <use xlink:href="#DejaVuSans-41"/>
      <use xlink:href="#DejaVuSans-63" transform="translate(66.658203 0)"/>
      <use xlink:href="#DejaVuSans-63" transform="translate(121.638672 0)"/>
      <use xlink:href="#DejaVuSans-75" transform="translate(176.619141 0)"/>
      <use xlink:href="#DejaVuSans-72" transform="translate(239.998047 0)"/>
      <use xlink:href="#DejaVuSans-61" transform="translate(281.111328 0)"/>
      <use xlink:href="#DejaVuSans-63" transform="translate(342.390625 0)"/>
      <use xlink:href="#DejaVuSans-79" transform="translate(397.371094 0)"/>
     </g>
    </g>
   </g>
   <g id="line2d_18">
    <path d="M 73.832727 122.695296 
L 78.827413 107.290368 
L 83.822098 104.688384 
L 88.816783 101.79072 
L 93.811469 102.411648 
L 98.806154 102.470784 
L 103.800839 114.179712 
L 108.795524 113.203968 
L 113.79021 112.494336 
L 118.784895 111.222912 
L 123.77958 116.604288 
L 128.774266 113.47008 
L 133.768951 113.1744 
L 138.763636 112.28736 
L 143.758322 113.558784 
L 148.753007 112.967424 
L 153.747692 112.405632 
L 158.742378 111.755136 
L 163.737063 113.056128 
L 168.731748 109.419264 
L 173.726434 109.892352 
L 178.721119 111.222912 
L 183.715804 112.198656 
L 188.71049 109.862784 
L 193.705175 109.744512 
L 198.69986 106.994688 
L 203.694545 108.502656 
L 208.689231 110.040192 
L 213.683916 108.88704 
L 218.678601 108.14784 
L 223.673287 110.838528 
L 228.667972 110.542848 
L 233.662657 110.838528 
L 238.657343 109.507968 
L 243.652028 109.389696 
L 248.646713 110.2176 
L 253.641399 113.440512 
L 258.636084 113.02656 
L 263.630769 112.996992 
L 268.625455 113.02656 
L 273.62014 111.282048 
L 278.614825 112.849152 
L 283.60951 110.276736 
L 288.604196 109.655808 
L 293.598881 110.335872 
L 298.593566 109.685376 
L 303.588252 110.483712 
L 308.582937 109.537536 
L 313.577622 112.169088 
L 318.572308 108.177408 
L 323.566993 108.709632 
L 328.561678 111.932544 
L 333.556364 110.51328 
L 338.551049 110.749824 
L 343.545734 112.346496 
L 348.54042 111.193344 
L 353.535105 110.897664 
L 358.52979 108.975744 
L 363.524476 109.419264 
L 368.519161 109.714944 
L 373.513846 111.40032 
L 378.508531 109.507968 
L 383.503217 107.40864 
L 388.497902 109.507968 
L 393.492587 108.768768 
L 398.487273 108.384384 
" clip-path="url(#p761952acad)" style="fill: none; stroke: #1f77b4; stroke-width: 1.5; stroke-linecap: square"/>
   </g>
   <g id="line2d_19">
    <path d="M 73.832727 303.1488 
L 78.827413 309.35808 
L 83.822098 303.74016 
L 88.816783 306.69696 
L 93.811469 309.94944 
L 98.806154 306.69696 
L 103.800839 112.13952 
L 108.795524 110.66112 
L 113.79021 104.45184 
L 118.784895 102.97344 
L 123.77958 102.67776 
L 128.774266 104.45184 
L 133.768951 125.14944 
L 138.763636 132.54144 
L 143.758322 132.54144 
L 148.753007 129.28896 
L 153.747692 136.38528 
L 158.742378 134.90688 
L 163.737063 129.58464 
L 168.731748 132.83712 
L 173.726434 129.28896 
L 178.721119 130.176 
L 183.715804 131.06304 
L 188.71049 126.92352 
L 193.705175 127.81056 
L 198.69986 134.6112 
L 203.694545 132.83712 
L 208.689231 131.06304 
L 213.683916 131.6544 
L 218.678601 137.86368 
L 223.673287 132.54144 
L 228.667972 132.54144 
L 233.662657 130.176 
L 238.657343 137.86368 
L 243.652028 130.176 
L 248.646713 137.86368 
L 253.641399 127.2192 
L 258.636084 132.24576 
L 263.630769 135.49824 
L 268.625455 125.44512 
L 273.62014 134.6112 
L 278.614825 125.7408 
L 283.60951 129.28896 
L 288.604196 134.01984 
L 293.598881 129.58464 
L 298.593566 132.83712 
L 303.588252 136.38528 
L 308.582937 133.42848 
L 313.577622 134.01984 
L 318.572308 127.81056 
L 323.566993 129.58464 
L 328.561678 136.97664 
L 333.556364 131.6544 
L 338.551049 132.24576 
L 343.545734 125.14944 
L 348.54042 129.28896 
L 353.535105 128.99328 
L 358.52979 131.6544 
L 363.524476 128.99328 
L 368.519161 136.97664 
L 373.513846 122.48832 
L 378.508531 124.55808 
L 383.503217 121.00992 
L 388.497902 122.48832 
L 393.492587 125.7408 
L 398.487273 120.71424 
" clip-path="url(#p761952acad)" style="fill: none; stroke: #ff7f0e; stroke-width: 1.5; stroke-linecap: square"/>
   </g>
   <g id="line2d_20">
    <path d="M 73.832727 315.27168 
L 78.827413 319.11552 
L 83.822098 320.8896 
L 88.816783 317.9328 
L 93.811469 318.81984 
L 98.806154 317.34144 
L 103.800839 317.63712 
L 108.795524 318.22848 
L 113.79021 319.11552 
L 118.784895 320.8896 
L 123.77958 317.34144 
L 128.774266 319.70688 
L 133.768951 122.784 
L 138.763636 121.89696 
L 143.758322 118.94016 
L 148.753007 119.23584 
L 153.747692 118.64448 
L 158.742378 118.64448 
L 163.737063 129.28896 
L 168.731748 129.88032 
L 173.726434 136.38528 
L 178.721119 138.15936 
L 183.715804 142.0032 
L 188.71049 139.0464 
L 193.705175 142.59456 
L 198.69986 139.93344 
L 203.694545 138.15936 
L 208.689231 139.0464 
L 213.683916 138.75072 
L 218.678601 140.82048 
L 223.673287 136.68096 
L 228.667972 134.6112 
L 233.662657 137.86368 
L 238.657343 133.72416 
L 243.652028 141.11616 
L 248.646713 134.31552 
L 253.641399 135.20256 
L 258.636084 137.27232 
L 263.630769 135.79392 
L 268.625455 138.15936 
L 273.62014 135.20256 
L 278.614825 141.11616 
L 283.60951 135.49824 
L 288.604196 136.38528 
L 293.598881 137.568 
L 298.593566 137.86368 
L 303.588252 134.31552 
L 308.582937 136.97664 
L 313.577622 135.20256 
L 318.572308 133.72416 
L 323.566993 134.01984 
L 328.561678 138.45504 
L 333.556364 137.27232 
L 338.551049 136.97664 
L 343.545734 135.20256 
L 348.54042 134.90688 
L 353.535105 134.01984 
L 358.52979 130.76736 
L 363.524476 131.35872 
L 368.519161 131.95008 
L 373.513846 137.568 
L 378.508531 136.0896 
L 383.503217 138.45504 
L 388.497902 136.97664 
L 393.492587 131.06304 
L 398.487273 132.54144 
" clip-path="url(#p761952acad)" style="fill: none; stroke: #2ca02c; stroke-width: 1.5; stroke-linecap: square"/>
   </g>
   <g id="line2d_21">
    <path d="M 73.832727 300.48768 
L 78.827413 305.51424 
L 83.822098 301.37472 
L 88.816783 304.6272 
L 93.811469 297.82656 
L 98.806154 301.96608 
L 103.800839 310.24512 
L 108.795524 306.40128 
L 113.79021 310.24512 
L 118.784895 308.47104 
L 123.77958 306.69696 
L 128.774266 306.40128 
L 133.768951 299.30496 
L 138.763636 309.0624 
L 143.758322 306.40128 
L 148.753007 309.65376 
L 153.747692 301.6704 
L 158.742378 306.1056 
L 163.737063 101.79072 
L 168.731748 104.15616 
L 173.726434 103.5648 
L 178.721119 99.1296 
L 183.715804 102.67776 
L 188.71049 99.1296 
L 193.705175 117.16608 
L 198.69986 118.3488 
L 203.694545 114.50496 
L 208.689231 120.41856 
L 213.683916 123.07968 
L 218.678601 123.37536 
L 223.673287 123.07968 
L 228.667972 122.19264 
L 233.662657 127.51488 
L 238.657343 125.14944 
L 243.652028 122.48832 
L 248.646713 125.14944 
L 253.641399 118.64448 
L 258.636084 119.53152 
L 263.630769 124.55808 
L 268.625455 123.37536 
L 273.62014 124.55808 
L 278.614825 119.53152 
L 283.60951 115.392 
L 288.604196 113.61792 
L 293.598881 119.23584 
L 298.593566 116.27904 
L 303.588252 118.05312 
L 308.582937 120.71424 
L 313.577622 115.68768 
L 318.572308 118.3488 
L 323.566993 121.89696 
L 328.561678 125.7408 
L 333.556364 126.03648 
L 338.551049 123.07968 
L 343.545734 121.00992 
L 348.54042 117.75744 
L 353.535105 122.19264 
L 358.52979 118.05312 
L 363.524476 121.60128 
L 368.519161 123.07968 
L 373.513846 115.98336 
L 378.508531 118.64448 
L 383.503217 116.27904 
L 388.497902 117.75744 
L 393.492587 115.392 
L 398.487273 115.09632 
" clip-path="url(#p761952acad)" style="fill: none; stroke: #d62728; stroke-width: 1.5; stroke-linecap: square"/>
   </g>
   <g id="line2d_22">
    <path d="M 73.832727 303.44448 
L 78.827413 306.99264 
L 83.822098 304.92288 
L 88.816783 311.13216 
L 93.811469 309.0624 
L 98.806154 308.47104 
L 103.800839 310.24512 
L 108.795524 309.35808 
L 113.79021 306.99264 
L 118.784895 306.99264 
L 123.77958 304.6272 
L 128.774266 307.584 
L 133.768951 302.55744 
L 138.763636 300.48768 
L 143.758322 304.33152 
L 148.753007 305.21856 
L 153.747692 302.55744 
L 158.742378 307.28832 
L 163.737063 304.6272 
L 168.731748 302.85312 
L 173.726434 302.26176 
L 178.721119 303.74016 
L 183.715804 301.96608 
L 188.71049 303.74016 
L 193.705175 115.392 
L 198.69986 116.57472 
L 203.694545 116.27904 
L 208.689231 118.64448 
L 213.683916 113.32224 
L 218.678601 112.4352 
L 223.673287 127.2192 
L 228.667972 134.01984 
L 233.662657 132.24576 
L 238.657343 135.49824 
L 243.652028 136.38528 
L 248.646713 137.86368 
L 253.641399 138.15936 
L 258.636084 133.42848 
L 263.630769 139.34208 
L 268.625455 137.27232 
L 273.62014 136.0896 
L 278.614825 135.20256 
L 283.60951 133.72416 
L 288.604196 138.15936 
L 293.598881 140.5248 
L 298.593566 137.86368 
L 303.588252 139.34208 
L 308.582937 136.68096 
L 313.577622 139.63776 
L 318.572308 134.31552 
L 323.566993 135.20256 
L 328.561678 136.38528 
L 333.556364 135.20256 
L 338.551049 136.68096 
L 343.545734 133.42848 
L 348.54042 137.86368 
L 353.535105 134.01984 
L 358.52979 134.6112 
L 363.524476 135.20256 
L 368.519161 144.36864 
L 373.513846 134.90688 
L 378.508531 134.31552 
L 383.503217 132.83712 
L 388.497902 136.97664 
L 393.492587 133.72416 
L 398.487273 132.54144 
" clip-path="url(#p761952acad)" style="fill: none; stroke: #9467bd; stroke-width: 1.5; stroke-linecap: square"/>
   </g>
   <g id="line2d_23">
    <path d="M 73.832727 326.21184 
L 78.827413 319.4112 
L 83.822098 318.81984 
L 88.816783 316.75008 
L 93.811469 320.00256 
L 98.806154 319.4112 
L 103.800839 310.83648 
L 108.795524 314.08896 
L 113.79021 317.63712 
L 118.784895 313.20192 
L 123.77958 314.976 
L 128.774266 315.56736 
L 133.768951 316.15872 
L 138.763636 314.68032 
L 143.758322 315.27168 
L 148.753007 318.22848 
L 153.747692 316.75008 
L 158.742378 315.86304 
L 163.737063 312.0192 
L 168.731748 313.4976 
L 173.726434 312.31488 
L 178.721119 312.31488 
L 183.715804 309.65376 
L 188.71049 312.0192 
L 193.705175 313.4976 
L 198.69986 311.72352 
L 203.694545 315.86304 
L 208.689231 310.5408 
L 213.683916 316.4544 
L 218.678601 312.61056 
L 223.673287 110.36544 
L 228.667972 108 
L 233.662657 107.11296 
L 238.657343 105.63456 
L 243.652028 106.5216 
L 248.646713 104.45184 
L 253.641399 119.23584 
L 258.636084 119.23584 
L 263.630769 121.89696 
L 268.625455 124.2624 
L 273.62014 122.19264 
L 278.614825 126.92352 
L 283.60951 129.58464 
L 288.604196 123.96672 
L 293.598881 129.88032 
L 298.593566 123.96672 
L 303.588252 128.99328 
L 308.582937 121.89696 
L 313.577622 135.79392 
L 318.572308 125.14944 
L 323.566993 123.37536 
L 328.561678 127.51488 
L 333.556364 127.51488 
L 338.551049 131.35872 
L 343.545734 129.58464 
L 348.54042 128.40192 
L 353.535105 126.03648 
L 358.52979 125.44512 
L 363.524476 123.67104 
L 368.519161 125.14944 
L 373.513846 133.1328 
L 378.508531 131.35872 
L 383.503217 130.47168 
L 388.497902 125.44512 
L 393.492587 127.2192 
L 398.487273 128.99328 
" clip-path="url(#p761952acad)" style="fill: none; stroke: #8c564b; stroke-width: 1.5; stroke-linecap: square"/>
   </g>
   <g id="line2d_24">
    <path d="M 73.832727 310.5408 
L 78.827413 314.08896 
L 83.822098 306.1056 
L 88.816783 309.65376 
L 93.811469 310.83648 
L 98.806154 312.0192 
L 103.800839 312.0192 
L 108.795524 310.24512 
L 113.79021 309.35808 
L 118.784895 308.76672 
L 123.77958 309.65376 
L 128.774266 306.69696 
L 133.768951 304.92288 
L 138.763636 309.0624 
L 143.758322 306.99264 
L 148.753007 307.87968 
L 153.747692 305.51424 
L 158.742378 308.47104 
L 163.737063 308.17536 
L 168.731748 310.24512 
L 173.726434 309.35808 
L 178.721119 308.76672 
L 183.715804 308.76672 
L 188.71049 308.17536 
L 193.705175 306.69696 
L 198.69986 305.80992 
L 203.694545 306.40128 
L 208.689231 305.51424 
L 213.683916 303.44448 
L 218.678601 305.80992 
L 223.673287 308.47104 
L 228.667972 309.65376 
L 233.662657 309.0624 
L 238.657343 307.28832 
L 243.652028 313.4976 
L 248.646713 306.1056 
L 253.641399 114.20928 
L 258.636084 116.27904 
L 263.630769 110.36544 
L 268.625455 114.20928 
L 273.62014 112.13952 
L 278.614825 117.16608 
L 283.60951 128.6976 
L 288.604196 129.28896 
L 293.598881 136.68096 
L 298.593566 138.45504 
L 303.588252 137.86368 
L 308.582937 135.49824 
L 313.577622 138.75072 
L 318.572308 131.95008 
L 323.566993 135.79392 
L 328.561678 137.568 
L 333.556364 140.22912 
L 338.551049 131.06304 
L 343.545734 133.42848 
L 348.54042 134.6112 
L 353.535105 133.72416 
L 358.52979 131.06304 
L 363.524476 135.79392 
L 368.519161 133.42848 
L 373.513846 133.42848 
L 378.508531 135.20256 
L 383.503217 136.0896 
L 388.497902 133.1328 
L 393.492587 135.49824 
L 398.487273 139.34208 
" clip-path="url(#p761952acad)" style="fill: none; stroke: #e377c2; stroke-width: 1.5; stroke-linecap: square"/>
   </g>
   <g id="line2d_25">
    <path d="M 73.832727 308.47104 
L 78.827413 309.0624 
L 83.822098 306.69696 
L 88.816783 311.42784 
L 93.811469 311.72352 
L 98.806154 311.72352 
L 103.800839 300.78336 
L 108.795524 304.6272 
L 113.79021 301.37472 
L 118.784895 303.74016 
L 123.77958 305.80992 
L 128.774266 303.44448 
L 133.768951 309.0624 
L 138.763636 307.87968 
L 143.758322 309.35808 
L 148.753007 304.33152 
L 153.747692 305.51424 
L 158.742378 310.83648 
L 163.737063 312.61056 
L 168.731748 311.72352 
L 173.726434 308.76672 
L 178.721119 310.83648 
L 183.715804 310.24512 
L 188.71049 305.80992 
L 193.705175 301.6704 
L 198.69986 299.89632 
L 203.694545 301.37472 
L 208.689231 300.48768 
L 213.683916 301.07904 
L 218.678601 301.37472 
L 223.673287 304.33152 
L 228.667972 306.1056 
L 233.662657 305.80992 
L 238.657343 308.47104 
L 243.652028 306.99264 
L 248.646713 312.0192 
L 253.641399 309.94944 
L 258.636084 306.69696 
L 263.630769 311.13216 
L 268.625455 306.1056 
L 273.62014 304.6272 
L 278.614825 302.26176 
L 283.60951 114.20928 
L 288.604196 112.73088 
L 293.598881 115.98336 
L 298.593566 111.84384 
L 303.588252 112.4352 
L 308.582937 113.61792 
L 313.577622 127.2192 
L 318.572308 127.51488 
L 323.566993 128.10624 
L 328.561678 128.99328 
L 333.556364 126.92352 
L 338.551049 126.62784 
L 343.545734 130.176 
L 348.54042 127.51488 
L 353.535105 132.54144 
L 358.52979 130.76736 
L 363.524476 130.76736 
L 368.519161 131.95008 
L 373.513846 129.28896 
L 378.508531 125.7408 
L 383.503217 127.2192 
L 388.497902 129.88032 
L 393.492587 126.62784 
L 398.487273 123.67104 
" clip-path="url(#p761952acad)" style="fill: none; stroke: #7f7f7f; stroke-width: 1.5; stroke-linecap: square"/>
   </g>
   <g id="line2d_26">
    <path d="M 73.832727 306.1056 
L 78.827413 305.21856 
L 83.822098 306.1056 
L 88.816783 304.03584 
L 93.811469 309.65376 
L 98.806154 307.28832 
L 103.800839 304.03584 
L 108.795524 302.26176 
L 113.79021 296.93952 
L 118.784895 294.57408 
L 123.77958 297.2352 
L 128.774266 304.03584 
L 133.768951 303.1488 
L 138.763636 303.74016 
L 143.758322 302.26176 
L 148.753007 305.21856 
L 153.747692 305.21856 
L 158.742378 306.69696 
L 163.737063 302.26176 
L 168.731748 304.92288 
L 173.726434 303.44448 
L 178.721119 303.1488 
L 183.715804 299.30496 
L 188.71049 302.26176 
L 193.705175 306.40128 
L 198.69986 306.99264 
L 203.694545 306.69696 
L 208.689231 301.96608 
L 213.683916 306.40128 
L 218.678601 304.33152 
L 223.673287 306.69696 
L 228.667972 304.33152 
L 233.662657 311.13216 
L 238.657343 308.47104 
L 243.652028 307.584 
L 248.646713 303.44448 
L 253.641399 303.1488 
L 258.636084 305.51424 
L 263.630769 306.69696 
L 268.625455 306.1056 
L 273.62014 309.0624 
L 278.614825 305.80992 
L 283.60951 309.35808 
L 288.604196 307.87968 
L 293.598881 301.37472 
L 298.593566 300.48768 
L 303.588252 304.03584 
L 308.582937 298.7136 
L 313.577622 126.62784 
L 318.572308 120.71424 
L 323.566993 118.94016 
L 328.561678 121.3056 
L 333.556364 120.41856 
L 338.551049 122.48832 
L 343.545734 136.0896 
L 348.54042 136.97664 
L 353.535105 138.75072 
L 358.52979 133.1328 
L 363.524476 137.568 
L 368.519161 141.11616 
L 373.513846 140.22912 
L 378.508531 139.93344 
L 383.503217 139.93344 
L 388.497902 140.5248 
L 393.492587 143.18592 
L 398.487273 139.63776 
" clip-path="url(#p761952acad)" style="fill: none; stroke: #bcbd22; stroke-width: 1.5; stroke-linecap: square"/>
   </g>
   <g id="line2d_27">
    <path d="M 73.832727 309.94944 
L 78.827413 311.72352 
L 83.822098 314.976 
L 88.816783 309.35808 
L 93.811469 310.83648 
L 98.806154 316.75008 
L 103.800839 311.13216 
L 108.795524 308.17536 
L 113.79021 307.584 
L 118.784895 305.80992 
L 123.77958 304.03584 
L 128.774266 308.17536 
L 133.768951 307.28832 
L 138.763636 307.584 
L 143.758322 309.94944 
L 148.753007 306.1056 
L 153.747692 305.51424 
L 158.742378 302.26176 
L 163.737063 305.51424 
L 168.731748 309.35808 
L 173.726434 307.28832 
L 178.721119 309.0624 
L 183.715804 303.1488 
L 188.71049 311.72352 
L 193.705175 306.40128 
L 198.69986 304.6272 
L 203.694545 302.55744 
L 208.689231 309.0624 
L 213.683916 306.1056 
L 218.678601 308.17536 
L 223.673287 310.83648 
L 228.667972 311.42784 
L 233.662657 312.61056 
L 238.657343 312.31488 
L 243.652028 308.76672 
L 248.646713 311.13216 
L 253.641399 310.24512 
L 258.636084 308.47104 
L 263.630769 311.13216 
L 268.625455 307.28832 
L 273.62014 313.4976 
L 278.614825 309.94944 
L 283.60951 307.87968 
L 288.604196 308.47104 
L 293.598881 308.47104 
L 298.593566 306.69696 
L 303.588252 312.31488 
L 308.582937 309.0624 
L 313.577622 310.24512 
L 318.572308 308.47104 
L 323.566993 306.99264 
L 328.561678 310.83648 
L 333.556364 311.13216 
L 338.551049 311.13216 
L 343.545734 117.75744 
L 348.54042 115.98336 
L 353.535105 110.9568 
L 358.52979 113.32224 
L 363.524476 113.02656 
L 368.519161 114.20928 
L 373.513846 132.83712 
L 378.508531 136.0896 
L 383.503217 130.76736 
L 388.497902 129.88032 
L 393.492587 134.90688 
L 398.487273 131.95008 
" clip-path="url(#p761952acad)" style="fill: none; stroke: #17becf; stroke-width: 1.5; stroke-linecap: square"/>
   </g>
   <g id="line2d_28">
    <path d="M 73.832727 319.70688 
L 78.827413 317.04576 
L 83.822098 317.63712 
L 88.816783 313.20192 
L 93.811469 314.68032 
L 98.806154 316.75008 
L 103.800839 317.9328 
L 108.795524 318.81984 
L 113.79021 320.8896 
L 118.784895 321.18528 
L 123.77958 317.9328 
L 128.774266 317.9328 
L 133.768951 318.52416 
L 138.763636 318.81984 
L 143.758322 314.38464 
L 148.753007 316.4544 
L 153.747692 317.63712 
L 158.742378 317.9328 
L 163.737063 318.81984 
L 168.731748 318.81984 
L 173.726434 320.00256 
L 178.721119 317.63712 
L 183.715804 317.04576 
L 188.71049 318.52416 
L 193.705175 321.77664 
L 198.69986 322.07232 
L 203.694545 322.368 
L 208.689231 321.77664 
L 213.683916 320.8896 
L 218.678601 321.18528 
L 223.673287 322.66368 
L 228.667972 317.34144 
L 233.662657 320.8896 
L 238.657343 320.29824 
L 243.652028 323.25504 
L 248.646713 321.18528 
L 253.641399 319.70688 
L 258.636084 322.368 
L 263.630769 319.4112 
L 268.625455 321.18528 
L 273.62014 321.18528 
L 278.614825 320.8896 
L 283.60951 322.07232 
L 288.604196 315.56736 
L 293.598881 319.70688 
L 298.593566 318.22848 
L 303.588252 318.81984 
L 308.582937 320.29824 
L 313.577622 320.59392 
L 318.572308 318.22848 
L 323.566993 319.4112 
L 328.561678 320.59392 
L 333.556364 320.8896 
L 338.551049 318.52416 
L 343.545734 319.11552 
L 348.54042 319.70688 
L 353.535105 320.00256 
L 358.52979 319.70688 
L 363.524476 318.81984 
L 368.519161 316.4544 
L 373.513846 98.83392 
L 378.508531 93.51168 
L 383.503217 97.94688 
L 388.497902 96.76416 
L 393.492587 100.90368 
L 398.487273 96.46848 
" clip-path="url(#p761952acad)" style="fill: none; stroke: #1f77b4; stroke-width: 1.5; stroke-linecap: square"/>
   </g>
   <g id="patch_3">
    <path d="M 57.6 307.584 
L 57.6 41.472 
" style="fill: none; stroke: #000000; stroke-width: 0.8; stroke-linejoin: miter; stroke-linecap: square"/>
   </g>
   <g id="patch_4">
    <path d="M 414.72 307.584 
L 414.72 41.472 
" style="fill: none; stroke: #000000; stroke-width: 0.8; stroke-linejoin: miter; stroke-linecap: square"/>
   </g>
   <g id="patch_5">
    <path d="M 57.6 307.584 
L 414.72 307.584 
" style="fill: none; stroke: #000000; stroke-width: 0.8; stroke-linejoin: miter; stroke-linecap: square"/>
   </g>
   <g id="patch_6">
    <path d="M 57.6 41.472 
L 414.72 41.472 
" style="fill: none; stroke: #000000; stroke-width: 0.8; stroke-linejoin: miter; stroke-linecap: square"/>
   </g>
  </g>
 </g>
 <defs>
  <clipPath id="p761952acad">
   <rect x="57.6" y="41.472" width="357.12" height="266.112"/>
  </clipPath>
 </defs>
</svg>
