<?xml version="1.0" encoding="utf-8" standalone="no"?>
<!DOCTYPE svg PUBLIC "-//W3C//DTD SVG 1.1//EN"
  "http://www.w3.org/Graphics/SVG/1.1/DTD/svg11.dtd">
<svg xmlns:xlink="http://www.w3.org/1999/xlink" width="460.8pt" height="345.6pt" viewBox="0 0 460.8 345.6" xmlns="http://www.w3.org/2000/svg" version="1.1">
 <metadata>
  <rdf:RDF xmlns:dc="http://purl.org/dc/elements/1.1/" xmlns:cc="http://creativecommons.org/ns#" xmlns:rdf="http://www.w3.org/1999/02/22-rdf-syntax-ns#">
   <cc:Work>
    <dc:type rdf:resource="http://purl.org/dc/dcmitype/StillImage"/>
    <dc:date>2025-02-17T11:34:28.257540</dc:date>
    <dc:format>image/svg+xml</dc:format>
    <dc:creator>
     <cc:Agent>
      <dc:title>Matplotlib v3.10.0, https://matplotlib.org/</dc:title>
     </cc:Agent>
    </dc:creator>
   </cc:Work>
  </rdf:RDF>
 </metadata>
 <defs>
  <style type="text/css">*{stroke-linejoin: round; stroke-linecap: butt}</style>
 </defs>
 <g id="figure_1">
  <g id="patch_1">
   <path d="M 0 345.6 
L 460.8 345.6 
L 460.8 0 
L 0 0 
z
" style="fill: #ffffff"/>
  </g>
  <g id="axes_1">
   <g id="patch_2">
    <path d="M 57.6 307.584 
L 414.72 307.584 
L 414.72 41.472 
L 57.6 41.472 
z
" style="fill: #ffffff"/>
   </g>
   <g id="matplotlib.axis_1">
    <g id="xtick_1">
     <g id="line2d_1">
      <defs>
       <path id="m2208542d37" d="M 0 0 
L 0 3.5 
" style="stroke: #000000; stroke-width: 0.8"/>
      </defs>
      <g>
       <use xlink:href="#m2208542d37" x="73.832727" y="307.584" style="stroke: #000000; stroke-width: 0.8"/>
      </g>
     </g>
     <g id="text_1">
      <!-- 0 -->
      <g transform="translate(70.651477 322.182437) scale(0.1 -0.1)">
       <defs>
        <path id="DejaVuSans-30" d="M 2034 4250 
Q 1547 4250 1301 3770 
Q 1056 3291 1056 2328 
Q 1056 1369 1301 889 
Q 1547 409 2034 409 
Q 2525 409 2770 889 
Q 3016 1369 3016 2328 
Q 3016 3291 2770 3770 
Q 2525 4250 2034 4250 
z
M 2034 4750 
Q 2819 4750 3233 4129 
Q 3647 3509 3647 2328 
Q 3647 1150 3233 529 
Q 2819 -91 2034 -91 
Q 1250 -91 836 529 
Q 422 1150 422 2328 
Q 422 3509 836 4129 
Q 1250 4750 2034 4750 
z
" transform="scale(0.015625)"/>
       </defs>
       <use xlink:href="#DejaVuSans-30"/>
      </g>
     </g>
    </g>
    <g id="xtick_2">
     <g id="line2d_2">
      <g>
       <use xlink:href="#m2208542d37" x="123.77958" y="307.584" style="stroke: #000000; stroke-width: 0.8"/>
      </g>
     </g>
     <g id="text_2">
      <!-- 10 -->
      <g transform="translate(117.41708 322.182437) scale(0.1 -0.1)">
       <defs>
        <path id="DejaVuSans-31" d="M 794 531 
L 1825 531 
L 1825 4091 
L 703 3866 
L 703 4441 
L 1819 4666 
L 2450 4666 
L 2450 531 
L 3481 531 
L 3481 0 
L 794 0 
L 794 531 
z
" transform="scale(0.015625)"/>
       </defs>
       <use xlink:href="#DejaVuSans-31"/>
       <use xlink:href="#DejaVuSans-30" transform="translate(63.623047 0)"/>
      </g>
     </g>
    </g>
    <g id="xtick_3">
     <g id="line2d_3">
      <g>
       <use xlink:href="#m2208542d37" x="173.726434" y="307.584" style="stroke: #000000; stroke-width: 0.8"/>
      </g>
     </g>
     <g id="text_3">
      <!-- 20 -->
      <g transform="translate(167.363934 322.182437) scale(0.1 -0.1)">
       <defs>
        <path id="DejaVuSans-32" d="M 1228 531 
L 3431 531 
L 3431 0 
L 469 0 
L 469 531 
Q 828 903 1448 1529 
Q 2069 2156 2228 2338 
Q 2531 2678 2651 2914 
Q 2772 3150 2772 3378 
Q 2772 3750 2511 3984 
Q 2250 4219 1831 4219 
Q 1534 4219 1204 4116 
Q 875 4013 500 3803 
L 500 4441 
Q 881 4594 1212 4672 
Q 1544 4750 1819 4750 
Q 2544 4750 2975 4387 
Q 3406 4025 3406 3419 
Q 3406 3131 3298 2873 
Q 3191 2616 2906 2266 
Q 2828 2175 2409 1742 
Q 1991 1309 1228 531 
z
" transform="scale(0.015625)"/>
       </defs>
       <use xlink:href="#DejaVuSans-32"/>
       <use xlink:href="#DejaVuSans-30" transform="translate(63.623047 0)"/>
      </g>
     </g>
    </g>
    <g id="xtick_4">
     <g id="line2d_4">
      <g>
       <use xlink:href="#m2208542d37" x="223.673287" y="307.584" style="stroke: #000000; stroke-width: 0.8"/>
      </g>
     </g>
     <g id="text_4">
      <!-- 30 -->
      <g transform="translate(217.310787 322.182437) scale(0.1 -0.1)">
       <defs>
        <path id="DejaVuSans-33" d="M 2597 2516 
Q 3050 2419 3304 2112 
Q 3559 1806 3559 1356 
Q 3559 666 3084 287 
Q 2609 -91 1734 -91 
Q 1441 -91 1130 -33 
Q 819 25 488 141 
L 488 750 
Q 750 597 1062 519 
Q 1375 441 1716 441 
Q 2309 441 2620 675 
Q 2931 909 2931 1356 
Q 2931 1769 2642 2001 
Q 2353 2234 1838 2234 
L 1294 2234 
L 1294 2753 
L 1863 2753 
Q 2328 2753 2575 2939 
Q 2822 3125 2822 3475 
Q 2822 3834 2567 4026 
Q 2313 4219 1838 4219 
Q 1578 4219 1281 4162 
Q 984 4106 628 3988 
L 628 4550 
Q 988 4650 1302 4700 
Q 1616 4750 1894 4750 
Q 2613 4750 3031 4423 
Q 3450 4097 3450 3541 
Q 3450 3153 3228 2886 
Q 3006 2619 2597 2516 
z
" transform="scale(0.015625)"/>
       </defs>
       <use xlink:href="#DejaVuSans-33"/>
       <use xlink:href="#DejaVuSans-30" transform="translate(63.623047 0)"/>
      </g>
     </g>
    </g>
    <g id="xtick_5">
     <g id="line2d_5">
      <g>
       <use xlink:href="#m2208542d37" x="273.62014" y="307.584" style="stroke: #000000; stroke-width: 0.8"/>
      </g>
     </g>
     <g id="text_5">
      <!-- 40 -->
      <g transform="translate(267.25764 322.182437) scale(0.1 -0.1)">
       <defs>
        <path id="DejaVuSans-34" d="M 2419 4116 
L 825 1625 
L 2419 1625 
L 2419 4116 
z
M 2253 4666 
L 3047 4666 
L 3047 1625 
L 3713 1625 
L 3713 1100 
L 3047 1100 
L 3047 0 
L 2419 0 
L 2419 1100 
L 313 1100 
L 313 1709 
L 2253 4666 
z
" transform="scale(0.015625)"/>
       </defs>
       <use xlink:href="#DejaVuSans-34"/>
       <use xlink:href="#DejaVuSans-30" transform="translate(63.623047 0)"/>
      </g>
     </g>
    </g>
    <g id="xtick_6">
     <g id="line2d_6">
      <g>
       <use xlink:href="#m2208542d37" x="323.566993" y="307.584" style="stroke: #000000; stroke-width: 0.8"/>
      </g>
     </g>
     <g id="text_6">
      <!-- 50 -->
      <g transform="translate(317.204493 322.182437) scale(0.1 -0.1)">
       <defs>
        <path id="DejaVuSans-35" d="M 691 4666 
L 3169 4666 
L 3169 4134 
L 1269 4134 
L 1269 2991 
Q 1406 3038 1543 3061 
Q 1681 3084 1819 3084 
Q 2600 3084 3056 2656 
Q 3513 2228 3513 1497 
Q 3513 744 3044 326 
Q 2575 -91 1722 -91 
Q 1428 -91 1123 -41 
Q 819 9 494 109 
L 494 744 
Q 775 591 1075 516 
Q 1375 441 1709 441 
Q 2250 441 2565 725 
Q 2881 1009 2881 1497 
Q 2881 1984 2565 2268 
Q 2250 2553 1709 2553 
Q 1456 2553 1204 2497 
Q 953 2441 691 2322 
L 691 4666 
z
" transform="scale(0.015625)"/>
       </defs>
       <use xlink:href="#DejaVuSans-35"/>
       <use xlink:href="#DejaVuSans-30" transform="translate(63.623047 0)"/>
      </g>
     </g>
    </g>
    <g id="xtick_7">
     <g id="line2d_7">
      <g>
       <use xlink:href="#m2208542d37" x="373.513846" y="307.584" style="stroke: #000000; stroke-width: 0.8"/>
      </g>
     </g>
     <g id="text_7">
      <!-- 60 -->
      <g transform="translate(367.151346 322.182437) scale(0.1 -0.1)">
       <defs>
        <path id="DejaVuSans-36" d="M 2113 2584 
Q 1688 2584 1439 2293 
Q 1191 2003 1191 1497 
Q 1191 994 1439 701 
Q 1688 409 2113 409 
Q 2538 409 2786 701 
Q 3034 994 3034 1497 
Q 3034 2003 2786 2293 
Q 2538 2584 2113 2584 
z
M 3366 4563 
L 3366 3988 
Q 3128 4100 2886 4159 
Q 2644 4219 2406 4219 
Q 1781 4219 1451 3797 
Q 1122 3375 1075 2522 
Q 1259 2794 1537 2939 
Q 1816 3084 2150 3084 
Q 2853 3084 3261 2657 
Q 3669 2231 3669 1497 
Q 3669 778 3244 343 
Q 2819 -91 2113 -91 
Q 1303 -91 875 529 
Q 447 1150 447 2328 
Q 447 3434 972 4092 
Q 1497 4750 2381 4750 
Q 2619 4750 2861 4703 
Q 3103 4656 3366 4563 
z
" transform="scale(0.015625)"/>
       </defs>
       <use xlink:href="#DejaVuSans-36"/>
       <use xlink:href="#DejaVuSans-30" transform="translate(63.623047 0)"/>
      </g>
     </g>
    </g>
    <g id="text_8">
     <!-- Epochs -->
     <g transform="translate(218.244375 335.860562) scale(0.1 -0.1)">
      <defs>
       <path id="DejaVuSans-45" d="M 628 4666 
L 3578 4666 
L 3578 4134 
L 1259 4134 
L 1259 2753 
L 3481 2753 
L 3481 2222 
L 1259 2222 
L 1259 531 
L 3634 531 
L 3634 0 
L 628 0 
L 628 4666 
z
" transform="scale(0.015625)"/>
       <path id="DejaVuSans-70" d="M 1159 525 
L 1159 -1331 
L 581 -1331 
L 581 3500 
L 1159 3500 
L 1159 2969 
Q 1341 3281 1617 3432 
Q 1894 3584 2278 3584 
Q 2916 3584 3314 3078 
Q 3713 2572 3713 1747 
Q 3713 922 3314 415 
Q 2916 -91 2278 -91 
Q 1894 -91 1617 61 
Q 1341 213 1159 525 
z
M 3116 1747 
Q 3116 2381 2855 2742 
Q 2594 3103 2138 3103 
Q 1681 3103 1420 2742 
Q 1159 2381 1159 1747 
Q 1159 1113 1420 752 
Q 1681 391 2138 391 
Q 2594 391 2855 752 
Q 3116 1113 3116 1747 
z
" transform="scale(0.015625)"/>
       <path id="DejaVuSans-6f" d="M 1959 3097 
Q 1497 3097 1228 2736 
Q 959 2375 959 1747 
Q 959 1119 1226 758 
Q 1494 397 1959 397 
Q 2419 397 2687 759 
Q 2956 1122 2956 1747 
Q 2956 2369 2687 2733 
Q 2419 3097 1959 3097 
z
M 1959 3584 
Q 2709 3584 3137 3096 
Q 3566 2609 3566 1747 
Q 3566 888 3137 398 
Q 2709 -91 1959 -91 
Q 1206 -91 779 398 
Q 353 888 353 1747 
Q 353 2609 779 3096 
Q 1206 3584 1959 3584 
z
" transform="scale(0.015625)"/>
       <path id="DejaVuSans-63" d="M 3122 3366 
L 3122 2828 
Q 2878 2963 2633 3030 
Q 2388 3097 2138 3097 
Q 1578 3097 1268 2742 
Q 959 2388 959 1747 
Q 959 1106 1268 751 
Q 1578 397 2138 397 
Q 2388 397 2633 464 
Q 2878 531 3122 666 
L 3122 134 
Q 2881 22 2623 -34 
Q 2366 -91 2075 -91 
Q 1284 -91 818 406 
Q 353 903 353 1747 
Q 353 2603 823 3093 
Q 1294 3584 2113 3584 
Q 2378 3584 2631 3529 
Q 2884 3475 3122 3366 
z
" transform="scale(0.015625)"/>
       <path id="DejaVuSans-68" d="M 3513 2113 
L 3513 0 
L 2938 0 
L 2938 2094 
Q 2938 2591 2744 2837 
Q 2550 3084 2163 3084 
Q 1697 3084 1428 2787 
Q 1159 2491 1159 1978 
L 1159 0 
L 581 0 
L 581 4863 
L 1159 4863 
L 1159 2956 
Q 1366 3272 1645 3428 
Q 1925 3584 2291 3584 
Q 2894 3584 3203 3211 
Q 3513 2838 3513 2113 
z
" transform="scale(0.015625)"/>
       <path id="DejaVuSans-73" d="M 2834 3397 
L 2834 2853 
Q 2591 2978 2328 3040 
Q 2066 3103 1784 3103 
Q 1356 3103 1142 2972 
Q 928 2841 928 2578 
Q 928 2378 1081 2264 
Q 1234 2150 1697 2047 
L 1894 2003 
Q 2506 1872 2764 1633 
Q 3022 1394 3022 966 
Q 3022 478 2636 193 
Q 2250 -91 1575 -91 
Q 1294 -91 989 -36 
Q 684 19 347 128 
L 347 722 
Q 666 556 975 473 
Q 1284 391 1588 391 
Q 1994 391 2212 530 
Q 2431 669 2431 922 
Q 2431 1156 2273 1281 
Q 2116 1406 1581 1522 
L 1381 1569 
Q 847 1681 609 1914 
Q 372 2147 372 2553 
Q 372 3047 722 3315 
Q 1072 3584 1716 3584 
Q 2034 3584 2315 3537 
Q 2597 3491 2834 3397 
z
" transform="scale(0.015625)"/>
      </defs>
      <use xlink:href="#DejaVuSans-45"/>
      <use xlink:href="#DejaVuSans-70" transform="translate(63.183594 0)"/>
      <use xlink:href="#DejaVuSans-6f" transform="translate(126.660156 0)"/>
      <use xlink:href="#DejaVuSans-63" transform="translate(187.841797 0)"/>
      <use xlink:href="#DejaVuSans-68" transform="translate(242.822266 0)"/>
      <use xlink:href="#DejaVuSans-73" transform="translate(306.201172 0)"/>
     </g>
    </g>
   </g>
   <g id="matplotlib.axis_2">
    <g id="ytick_1">
     <g id="line2d_8">
      <defs>
       <path id="m8f56770457" d="M 0 0 
L -3.5 0 
" style="stroke: #000000; stroke-width: 0.8"/>
      </defs>
      <g>
       <use xlink:href="#m8f56770457" x="57.6" y="307.584" style="stroke: #000000; stroke-width: 0.8"/>
      </g>
     </g>
     <g id="text_9">
      <!-- 0.1 -->
      <g transform="translate(34.696875 311.383219) scale(0.1 -0.1)">
       <defs>
        <path id="DejaVuSans-2e" d="M 684 794 
L 1344 794 
L 1344 0 
L 684 0 
L 684 794 
z
" transform="scale(0.015625)"/>
       </defs>
       <use xlink:href="#DejaVuSans-30"/>
       <use xlink:href="#DejaVuSans-2e" transform="translate(63.623047 0)"/>
       <use xlink:href="#DejaVuSans-31" transform="translate(95.410156 0)"/>
      </g>
     </g>
    </g>
    <g id="ytick_2">
     <g id="line2d_9">
      <g>
       <use xlink:href="#m8f56770457" x="57.6" y="278.016" style="stroke: #000000; stroke-width: 0.8"/>
      </g>
     </g>
     <g id="text_10">
      <!-- 0.2 -->
      <g transform="translate(34.696875 281.815219) scale(0.1 -0.1)">
       <use xlink:href="#DejaVuSans-30"/>
       <use xlink:href="#DejaVuSans-2e" transform="translate(63.623047 0)"/>
       <use xlink:href="#DejaVuSans-32" transform="translate(95.410156 0)"/>
      </g>
     </g>
    </g>
    <g id="ytick_3">
     <g id="line2d_10">
      <g>
       <use xlink:href="#m8f56770457" x="57.6" y="248.448" style="stroke: #000000; stroke-width: 0.8"/>
      </g>
     </g>
     <g id="text_11">
      <!-- 0.3 -->
      <g transform="translate(34.696875 252.247219) scale(0.1 -0.1)">
       <use xlink:href="#DejaVuSans-30"/>
       <use xlink:href="#DejaVuSans-2e" transform="translate(63.623047 0)"/>
       <use xlink:href="#DejaVuSans-33" transform="translate(95.410156 0)"/>
      </g>
     </g>
    </g>
    <g id="ytick_4">
     <g id="line2d_11">
      <g>
       <use xlink:href="#m8f56770457" x="57.6" y="218.88" style="stroke: #000000; stroke-width: 0.8"/>
      </g>
     </g>
     <g id="text_12">
      <!-- 0.4 -->
      <g transform="translate(34.696875 222.679219) scale(0.1 -0.1)">
       <use xlink:href="#DejaVuSans-30"/>
       <use xlink:href="#DejaVuSans-2e" transform="translate(63.623047 0)"/>
       <use xlink:href="#DejaVuSans-34" transform="translate(95.410156 0)"/>
      </g>
     </g>
    </g>
    <g id="ytick_5">
     <g id="line2d_12">
      <g>
       <use xlink:href="#m8f56770457" x="57.6" y="189.312" style="stroke: #000000; stroke-width: 0.8"/>
      </g>
     </g>
     <g id="text_13">
      <!-- 0.5 -->
      <g transform="translate(34.696875 193.111219) scale(0.1 -0.1)">
       <use xlink:href="#DejaVuSans-30"/>
       <use xlink:href="#DejaVuSans-2e" transform="translate(63.623047 0)"/>
       <use xlink:href="#DejaVuSans-35" transform="translate(95.410156 0)"/>
      </g>
     </g>
    </g>
    <g id="ytick_6">
     <g id="line2d_13">
      <g>
       <use xlink:href="#m8f56770457" x="57.6" y="159.744" style="stroke: #000000; stroke-width: 0.8"/>
      </g>
     </g>
     <g id="text_14">
      <!-- 0.6 -->
      <g transform="translate(34.696875 163.543219) scale(0.1 -0.1)">
       <use xlink:href="#DejaVuSans-30"/>
       <use xlink:href="#DejaVuSans-2e" transform="translate(63.623047 0)"/>
       <use xlink:href="#DejaVuSans-36" transform="translate(95.410156 0)"/>
      </g>
     </g>
    </g>
    <g id="ytick_7">
     <g id="line2d_14">
      <g>
       <use xlink:href="#m8f56770457" x="57.6" y="130.176" style="stroke: #000000; stroke-width: 0.8"/>
      </g>
     </g>
     <g id="text_15">
      <!-- 0.7 -->
      <g transform="translate(34.696875 133.975219) scale(0.1 -0.1)">
       <defs>
        <path id="DejaVuSans-37" d="M 525 4666 
L 3525 4666 
L 3525 4397 
L 1831 0 
L 1172 0 
L 2766 4134 
L 525 4134 
L 525 4666 
z
" transform="scale(0.015625)"/>
       </defs>
       <use xlink:href="#DejaVuSans-30"/>
       <use xlink:href="#DejaVuSans-2e" transform="translate(63.623047 0)"/>
       <use xlink:href="#DejaVuSans-37" transform="translate(95.410156 0)"/>
      </g>
     </g>
    </g>
    <g id="ytick_8">
     <g id="line2d_15">
      <g>
       <use xlink:href="#m8f56770457" x="57.6" y="100.608" style="stroke: #000000; stroke-width: 0.8"/>
      </g>
     </g>
     <g id="text_16">
      <!-- 0.8 -->
      <g transform="translate(34.696875 104.407219) scale(0.1 -0.1)">
       <defs>
        <path id="DejaVuSans-38" d="M 2034 2216 
Q 1584 2216 1326 1975 
Q 1069 1734 1069 1313 
Q 1069 891 1326 650 
Q 1584 409 2034 409 
Q 2484 409 2743 651 
Q 3003 894 3003 1313 
Q 3003 1734 2745 1975 
Q 2488 2216 2034 2216 
z
M 1403 2484 
Q 997 2584 770 2862 
Q 544 3141 544 3541 
Q 544 4100 942 4425 
Q 1341 4750 2034 4750 
Q 2731 4750 3128 4425 
Q 3525 4100 3525 3541 
Q 3525 3141 3298 2862 
Q 3072 2584 2669 2484 
Q 3125 2378 3379 2068 
Q 3634 1759 3634 1313 
Q 3634 634 3220 271 
Q 2806 -91 2034 -91 
Q 1263 -91 848 271 
Q 434 634 434 1313 
Q 434 1759 690 2068 
Q 947 2378 1403 2484 
z
M 1172 3481 
Q 1172 3119 1398 2916 
Q 1625 2713 2034 2713 
Q 2441 2713 2670 2916 
Q 2900 3119 2900 3481 
Q 2900 3844 2670 4047 
Q 2441 4250 2034 4250 
Q 1625 4250 1398 4047 
Q 1172 3844 1172 3481 
z
" transform="scale(0.015625)"/>
       </defs>
       <use xlink:href="#DejaVuSans-30"/>
       <use xlink:href="#DejaVuSans-2e" transform="translate(63.623047 0)"/>
       <use xlink:href="#DejaVuSans-38" transform="translate(95.410156 0)"/>
      </g>
     </g>
    </g>
    <g id="ytick_9">
     <g id="line2d_16">
      <g>
       <use xlink:href="#m8f56770457" x="57.6" y="71.04" style="stroke: #000000; stroke-width: 0.8"/>
      </g>
     </g>
     <g id="text_17">
      <!-- 0.9 -->
      <g transform="translate(34.696875 74.839219) scale(0.1 -0.1)">
       <defs>
        <path id="DejaVuSans-39" d="M 703 97 
L 703 672 
Q 941 559 1184 500 
Q 1428 441 1663 441 
Q 2288 441 2617 861 
Q 2947 1281 2994 2138 
Q 2813 1869 2534 1725 
Q 2256 1581 1919 1581 
Q 1219 1581 811 2004 
Q 403 2428 403 3163 
Q 403 3881 828 4315 
Q 1253 4750 1959 4750 
Q 2769 4750 3195 4129 
Q 3622 3509 3622 2328 
Q 3622 1225 3098 567 
Q 2575 -91 1691 -91 
Q 1453 -91 1209 -44 
Q 966 3 703 97 
z
M 1959 2075 
Q 2384 2075 2632 2365 
Q 2881 2656 2881 3163 
Q 2881 3666 2632 3958 
Q 2384 4250 1959 4250 
Q 1534 4250 1286 3958 
Q 1038 3666 1038 3163 
Q 1038 2656 1286 2365 
Q 1534 2075 1959 2075 
z
" transform="scale(0.015625)"/>
       </defs>
       <use xlink:href="#DejaVuSans-30"/>
       <use xlink:href="#DejaVuSans-2e" transform="translate(63.623047 0)"/>
       <use xlink:href="#DejaVuSans-39" transform="translate(95.410156 0)"/>
      </g>
     </g>
    </g>
    <g id="ytick_10">
     <g id="line2d_17">
      <g>
       <use xlink:href="#m8f56770457" x="57.6" y="41.472" style="stroke: #000000; stroke-width: 0.8"/>
      </g>
     </g>
     <g id="text_18">
      <!-- 1.0 -->
      <g transform="translate(34.696875 45.271219) scale(0.1 -0.1)">
       <use xlink:href="#DejaVuSans-31"/>
       <use xlink:href="#DejaVuSans-2e" transform="translate(63.623047 0)"/>
       <use xlink:href="#DejaVuSans-30" transform="translate(95.410156 0)"/>
      </g>
     </g>
    </g>
    <g id="text_19">
     <!-- Accuracy -->
     <g transform="translate(28.617187 197.356125) rotate(-90) scale(0.1 -0.1)">
      <defs>
       <path id="DejaVuSans-41" d="M 2188 4044 
L 1331 1722 
L 3047 1722 
L 2188 4044 
z
M 1831 4666 
L 2547 4666 
L 4325 0 
L 3669 0 
L 3244 1197 
L 1141 1197 
L 716 0 
L 50 0 
L 1831 4666 
z
" transform="scale(0.015625)"/>
       <path id="DejaVuSans-75" d="M 544 1381 
L 544 3500 
L 1119 3500 
L 1119 1403 
Q 1119 906 1312 657 
Q 1506 409 1894 409 
Q 2359 409 2629 706 
Q 2900 1003 2900 1516 
L 2900 3500 
L 3475 3500 
L 3475 0 
L 2900 0 
L 2900 538 
Q 2691 219 2414 64 
Q 2138 -91 1772 -91 
Q 1169 -91 856 284 
Q 544 659 544 1381 
z
M 1991 3584 
L 1991 3584 
z
" transform="scale(0.015625)"/>
       <path id="DejaVuSans-72" d="M 2631 2963 
Q 2534 3019 2420 3045 
Q 2306 3072 2169 3072 
Q 1681 3072 1420 2755 
Q 1159 2438 1159 1844 
L 1159 0 
L 581 0 
L 581 3500 
L 1159 3500 
L 1159 2956 
Q 1341 3275 1631 3429 
Q 1922 3584 2338 3584 
Q 2397 3584 2469 3576 
Q 2541 3569 2628 3553 
L 2631 2963 
z
" transform="scale(0.015625)"/>
       <path id="DejaVuSans-61" d="M 2194 1759 
Q 1497 1759 1228 1600 
Q 959 1441 959 1056 
Q 959 750 1161 570 
Q 1363 391 1709 391 
Q 2188 391 2477 730 
Q 2766 1069 2766 1631 
L 2766 1759 
L 2194 1759 
z
M 3341 1997 
L 3341 0 
L 2766 0 
L 2766 531 
Q 2569 213 2275 61 
Q 1981 -91 1556 -91 
Q 1019 -91 701 211 
Q 384 513 384 1019 
Q 384 1609 779 1909 
Q 1175 2209 1959 2209 
L 2766 2209 
L 2766 2266 
Q 2766 2663 2505 2880 
Q 2244 3097 1772 3097 
Q 1472 3097 1187 3025 
Q 903 2953 641 2809 
L 641 3341 
Q 956 3463 1253 3523 
Q 1550 3584 1831 3584 
Q 2591 3584 2966 3190 
Q 3341 2797 3341 1997 
z
" transform="scale(0.015625)"/>
       <path id="DejaVuSans-79" d="M 2059 -325 
Q 1816 -950 1584 -1140 
Q 1353 -1331 966 -1331 
L 506 -1331 
L 506 -850 
L 844 -850 
Q 1081 -850 1212 -737 
Q 1344 -625 1503 -206 
L 1606 56 
L 191 3500 
L 800 3500 
L 1894 763 
L 2988 3500 
L 3597 3500 
L 2059 -325 
z
" transform="scale(0.015625)"/>
      </defs>
      <use xlink:href="#DejaVuSans-41"/>
      <use xlink:href="#DejaVuSans-63" transform="translate(66.658203 0)"/>
      <use xlink:href="#DejaVuSans-63" transform="translate(121.638672 0)"/>
      <use xlink:href="#DejaVuSans-75" transform="translate(176.619141 0)"/>
      <use xlink:href="#DejaVuSans-72" transform="translate(239.998047 0)"/>
      <use xlink:href="#DejaVuSans-61" transform="translate(281.111328 0)"/>
      <use xlink:href="#DejaVuSans-63" transform="translate(342.390625 0)"/>
      <use xlink:href="#DejaVuSans-79" transform="translate(397.371094 0)"/>
     </g>
    </g>
   </g>
   <g id="line2d_18">
    <path d="M 73.832727 135.025152 
L 78.827413 112.790016 
L 83.822098 107.55648 
L 88.816783 103.890048 
L 93.811469 102.67776 
L 98.806154 101.672448 
L 103.800839 107.674752 
L 108.795524 108.798336 
L 113.79021 109.744512 
L 118.784895 111.40032 
L 123.77958 111.755136 
L 128.774266 112.080384 
L 133.768951 111.134208 
L 138.763636 112.316928 
L 143.758322 113.499648 
L 148.753007 114.475392 
L 153.747692 115.185024 
L 158.742378 115.392 
L 163.737063 120.004608 
L 168.731748 120.448128 
L 173.726434 120.802944 
L 178.721119 120.950784 
L 183.715804 121.956096 
L 188.71049 121.867392 
L 193.705175 118.230528 
L 198.69986 119.413248 
L 203.694545 120.300288 
L 208.689231 121.483008 
L 213.683916 121.89696 
L 218.678601 122.517888 
L 223.673287 117.520896 
L 228.667972 118.141824 
L 233.662657 118.999296 
L 238.657343 119.413248 
L 243.652028 120.27072 
L 248.646713 121.719552 
L 253.641399 121.689984 
L 258.636084 122.606592 
L 263.630769 123.848448 
L 268.625455 124.972032 
L 273.62014 125.59296 
L 278.614825 126.62784 
L 283.60951 127.51488 
L 288.604196 128.165376 
L 293.598881 128.194944 
L 298.593566 128.608896 
L 303.588252 129.525504 
L 308.582937 130.176 
L 313.577622 134.049408 
L 318.572308 135.113856 
L 323.566993 134.818176 
L 328.561678 134.581632 
L 333.556364 135.3504 
L 338.551049 135.764352 
L 343.545734 134.788608 
L 348.54042 135.143424 
L 353.535105 137.006208 
L 358.52979 138.336768 
L 363.524476 138.928128 
L 368.519161 139.63776 
L 373.513846 133.635456 
L 378.508531 134.285952 
L 383.503217 134.31552 
L 388.497902 134.995584 
L 393.492587 135.853056 
L 398.487273 136.178304 
" clip-path="url(#p921b95dabf)" style="fill: none; stroke: #1f77b4; stroke-width: 1.5; stroke-linecap: square"/>
   </g>
   <g id="line2d_19">
    <path d="M 73.832727 306.1056 
L 78.827413 302.85312 
L 83.822098 299.30496 
L 88.816783 307.584 
L 93.811469 309.65376 
L 98.806154 304.33152 
L 103.800839 130.176 
L 108.795524 118.05312 
L 113.79021 114.80064 
L 118.784895 110.36544 
L 123.77958 106.5216 
L 128.774266 104.74752 
L 133.768951 114.80064 
L 138.763636 112.4352 
L 143.758322 113.61792 
L 148.753007 114.50496 
L 153.747692 112.73088 
L 158.742378 112.4352 
L 163.737063 118.94016 
L 168.731748 118.05312 
L 173.726434 120.71424 
L 178.721119 119.8272 
L 183.715804 121.89696 
L 188.71049 122.19264 
L 193.705175 121.3056 
L 198.69986 121.00992 
L 203.694545 123.67104 
L 208.689231 119.8272 
L 213.683916 120.12288 
L 218.678601 120.71424 
L 223.673287 115.98336 
L 228.667972 117.46176 
L 233.662657 116.57472 
L 238.657343 116.27904 
L 243.652028 119.23584 
L 248.646713 118.05312 
L 253.641399 116.27904 
L 258.636084 113.61792 
L 263.630769 115.68768 
L 268.625455 116.8704 
L 273.62014 115.68768 
L 278.614825 117.46176 
L 283.60951 121.00992 
L 288.604196 120.12288 
L 293.598881 119.23584 
L 298.593566 117.46176 
L 303.588252 116.27904 
L 308.582937 115.09632 
L 313.577622 123.67104 
L 318.572308 121.60128 
L 323.566993 123.67104 
L 328.561678 124.55808 
L 333.556364 124.55808 
L 338.551049 124.55808 
L 343.545734 128.40192 
L 348.54042 125.44512 
L 353.535105 127.81056 
L 358.52979 127.51488 
L 363.524476 126.03648 
L 368.519161 126.33216 
L 373.513846 121.89696 
L 378.508531 120.12288 
L 383.503217 118.64448 
L 388.497902 120.41856 
L 393.492587 120.71424 
L 398.487273 120.41856 
" clip-path="url(#p921b95dabf)" style="fill: none; stroke: #ff7f0e; stroke-width: 1.5; stroke-linecap: square"/>
   </g>
   <g id="line2d_20">
    <path d="M 73.832727 307.28832 
L 78.827413 304.03584 
L 83.822098 305.80992 
L 88.816783 300.78336 
L 93.811469 302.26176 
L 98.806154 304.03584 
L 103.800839 307.28832 
L 108.795524 301.37472 
L 113.79021 307.584 
L 118.784895 301.96608 
L 123.77958 309.0624 
L 128.774266 301.07904 
L 133.768951 131.06304 
L 138.763636 125.7408 
L 143.758322 124.85376 
L 148.753007 121.60128 
L 153.747692 120.41856 
L 158.742378 121.3056 
L 163.737063 124.85376 
L 168.731748 126.03648 
L 173.726434 126.33216 
L 178.721119 126.03648 
L 183.715804 124.85376 
L 188.71049 127.51488 
L 193.705175 126.33216 
L 198.69986 127.2192 
L 203.694545 126.92352 
L 208.689231 125.14944 
L 213.683916 124.85376 
L 218.678601 125.44512 
L 223.673287 125.14944 
L 228.667972 125.7408 
L 233.662657 125.7408 
L 238.657343 128.10624 
L 243.652028 127.2192 
L 248.646713 128.10624 
L 253.641399 126.62784 
L 258.636084 128.6976 
L 263.630769 131.6544 
L 268.625455 131.35872 
L 273.62014 132.83712 
L 278.614825 134.01984 
L 283.60951 130.76736 
L 288.604196 133.42848 
L 293.598881 134.01984 
L 298.593566 137.86368 
L 303.588252 136.68096 
L 308.582937 139.0464 
L 313.577622 137.86368 
L 318.572308 139.0464 
L 323.566993 140.22912 
L 328.561678 140.5248 
L 333.556364 141.11616 
L 338.551049 142.0032 
L 343.545734 133.1328 
L 348.54042 132.83712 
L 353.535105 133.42848 
L 358.52979 134.6112 
L 363.524476 135.20256 
L 368.519161 134.01984 
L 373.513846 136.97664 
L 378.508531 136.38528 
L 383.503217 137.86368 
L 388.497902 139.93344 
L 393.492587 141.11616 
L 398.487273 139.34208 
" clip-path="url(#p921b95dabf)" style="fill: none; stroke: #2ca02c; stroke-width: 1.5; stroke-linecap: square"/>
   </g>
   <g id="line2d_21">
    <path d="M 73.832727 310.5408 
L 78.827413 310.83648 
L 83.822098 309.0624 
L 88.816783 305.51424 
L 93.811469 312.31488 
L 98.806154 310.83648 
L 103.800839 310.5408 
L 108.795524 306.99264 
L 113.79021 308.76672 
L 118.784895 313.79328 
L 123.77958 304.92288 
L 128.774266 309.65376 
L 133.768951 307.87968 
L 138.763636 307.87968 
L 143.758322 306.1056 
L 148.753007 311.13216 
L 153.747692 318.22848 
L 158.742378 308.17536 
L 163.737063 115.98336 
L 168.731748 110.06976 
L 173.726434 105.93024 
L 178.721119 104.15616 
L 183.715804 102.38208 
L 188.71049 101.79072 
L 193.705175 103.26912 
L 198.69986 100.90368 
L 203.694545 100.90368 
L 208.689231 100.608 
L 213.683916 102.0864 
L 218.678601 102.0864 
L 223.673287 104.45184 
L 228.667972 105.0432 
L 233.662657 104.45184 
L 238.657343 105.33888 
L 243.652028 107.11296 
L 248.646713 107.11296 
L 253.641399 107.11296 
L 258.636084 106.22592 
L 263.630769 108.59136 
L 268.625455 108.29568 
L 273.62014 109.18272 
L 278.614825 110.36544 
L 283.60951 107.40864 
L 288.604196 106.81728 
L 293.598881 105.33888 
L 298.593566 108.59136 
L 303.588252 107.40864 
L 308.582937 108.29568 
L 313.577622 111.54816 
L 318.572308 113.61792 
L 323.566993 112.4352 
L 328.561678 113.32224 
L 333.556364 113.9136 
L 338.551049 114.50496 
L 343.545734 110.9568 
L 348.54042 109.77408 
L 353.535105 110.9568 
L 358.52979 109.18272 
L 363.524476 110.9568 
L 368.519161 111.25248 
L 373.513846 114.20928 
L 378.508531 114.80064 
L 383.503217 118.3488 
L 388.497902 118.64448 
L 393.492587 120.41856 
L 398.487273 119.53152 
" clip-path="url(#p921b95dabf)" style="fill: none; stroke: #d62728; stroke-width: 1.5; stroke-linecap: square"/>
   </g>
   <g id="line2d_22">
    <path d="M 73.832727 310.5408 
L 78.827413 312.90624 
L 83.822098 313.20192 
L 88.816783 311.13216 
L 93.811469 312.90624 
L 98.806154 306.1056 
L 103.800839 306.99264 
L 108.795524 306.1056 
L 113.79021 309.0624 
L 118.784895 311.13216 
L 123.77958 312.31488 
L 128.774266 308.76672 
L 133.768951 311.13216 
L 138.763636 311.13216 
L 143.758322 310.5408 
L 148.753007 307.28832 
L 153.747692 311.72352 
L 158.742378 312.61056 
L 163.737063 311.42784 
L 168.731748 310.24512 
L 173.726434 313.4976 
L 178.721119 306.1056 
L 183.715804 309.65376 
L 188.71049 314.08896 
L 193.705175 144.36864 
L 198.69986 129.28896 
L 203.694545 126.62784 
L 208.689231 124.85376 
L 213.683916 121.89696 
L 218.678601 121.3056 
L 223.673287 122.48832 
L 228.667972 122.19264 
L 233.662657 124.85376 
L 238.657343 124.85376 
L 243.652028 125.14944 
L 248.646713 125.44512 
L 253.641399 131.95008 
L 258.636084 131.06304 
L 263.630769 133.42848 
L 268.625455 132.24576 
L 273.62014 134.6112 
L 278.614825 132.83712 
L 283.60951 127.81056 
L 288.604196 128.40192 
L 293.598881 129.88032 
L 298.593566 130.76736 
L 303.588252 132.24576 
L 308.582937 135.20256 
L 313.577622 129.88032 
L 318.572308 130.76736 
L 323.566993 128.99328 
L 328.561678 129.28896 
L 333.556364 130.176 
L 338.551049 134.01984 
L 343.545734 135.79392 
L 348.54042 134.31552 
L 353.535105 135.20256 
L 358.52979 136.68096 
L 363.524476 139.93344 
L 368.519161 139.0464 
L 373.513846 135.20256 
L 378.508531 134.31552 
L 383.503217 132.83712 
L 388.497902 131.35872 
L 393.492587 130.47168 
L 398.487273 131.06304 
" clip-path="url(#p921b95dabf)" style="fill: none; stroke: #9467bd; stroke-width: 1.5; stroke-linecap: square"/>
   </g>
   <g id="line2d_23">
    <path d="M 73.832727 310.83648 
L 78.827413 311.72352 
L 83.822098 314.08896 
L 88.816783 304.6272 
L 93.811469 311.13216 
L 98.806154 313.20192 
L 103.800839 312.90624 
L 108.795524 312.0192 
L 113.79021 311.72352 
L 118.784895 310.5408 
L 123.77958 306.69696 
L 128.774266 313.4976 
L 133.768951 312.31488 
L 138.763636 311.72352 
L 143.758322 306.1056 
L 148.753007 317.34144 
L 153.747692 312.0192 
L 158.742378 313.79328 
L 163.737063 317.34144 
L 168.731748 308.76672 
L 173.726434 309.0624 
L 178.721119 315.27168 
L 183.715804 310.24512 
L 188.71049 310.24512 
L 193.705175 305.80992 
L 198.69986 316.75008 
L 203.694545 312.61056 
L 208.689231 312.90624 
L 213.683916 304.33152 
L 218.678601 314.08896 
L 223.673287 119.23584 
L 228.667972 114.20928 
L 233.662657 110.36544 
L 238.657343 107.40864 
L 243.652028 105.63456 
L 248.646713 103.5648 
L 253.641399 107.70432 
L 258.636084 106.22592 
L 263.630769 105.0432 
L 268.625455 104.74752 
L 273.62014 104.15616 
L 278.614825 105.93024 
L 283.60951 115.392 
L 288.604196 117.46176 
L 293.598881 119.8272 
L 298.593566 118.64448 
L 303.588252 118.3488 
L 308.582937 118.94016 
L 313.577622 114.80064 
L 318.572308 115.09632 
L 323.566993 113.9136 
L 328.561678 115.68768 
L 333.556364 115.98336 
L 338.551049 116.57472 
L 343.545734 116.57472 
L 348.54042 115.98336 
L 353.535105 113.02656 
L 358.52979 112.4352 
L 363.524476 112.4352 
L 368.519161 112.4352 
L 373.513846 110.9568 
L 378.508531 113.02656 
L 383.503217 112.73088 
L 388.497902 111.84384 
L 393.492587 113.61792 
L 398.487273 114.80064 
" clip-path="url(#p921b95dabf)" style="fill: none; stroke: #8c564b; stroke-width: 1.5; stroke-linecap: square"/>
   </g>
   <g id="line2d_24">
    <path d="M 73.832727 308.47104 
L 78.827413 310.5408 
L 83.822098 307.28832 
L 88.816783 301.96608 
L 93.811469 309.65376 
L 98.806154 304.33152 
L 103.800839 306.69696 
L 108.795524 312.0192 
L 113.79021 302.26176 
L 118.784895 303.1488 
L 123.77958 306.99264 
L 128.774266 304.92288 
L 133.768951 309.94944 
L 138.763636 306.69696 
L 143.758322 307.584 
L 148.753007 307.584 
L 153.747692 300.48768 
L 158.742378 307.87968 
L 163.737063 303.1488 
L 168.731748 295.46112 
L 173.726434 302.55744 
L 178.721119 295.46112 
L 183.715804 302.26176 
L 188.71049 311.42784 
L 193.705175 300.192 
L 198.69986 313.20192 
L 203.694545 301.37472 
L 208.689231 309.94944 
L 213.683916 299.60064 
L 218.678601 301.37472 
L 223.673287 300.192 
L 228.667972 296.93952 
L 233.662657 301.6704 
L 238.657343 302.26176 
L 243.652028 304.6272 
L 248.646713 303.44448 
L 253.641399 127.2192 
L 258.636084 118.3488 
L 263.630769 111.54816 
L 268.625455 109.18272 
L 273.62014 110.36544 
L 278.614825 106.81728 
L 283.60951 114.50496 
L 288.604196 110.66112 
L 293.598881 113.9136 
L 298.593566 117.16608 
L 303.588252 117.75744 
L 308.582937 118.3488 
L 313.577622 119.23584 
L 318.572308 119.23584 
L 323.566993 118.05312 
L 328.561678 119.23584 
L 333.556364 118.94016 
L 338.551049 118.3488 
L 343.545734 120.41856 
L 348.54042 119.8272 
L 353.535105 119.8272 
L 358.52979 119.8272 
L 363.524476 119.23584 
L 368.519161 120.41856 
L 373.513846 121.00992 
L 378.508531 121.89696 
L 383.503217 121.89696 
L 388.497902 121.3056 
L 393.492587 122.19264 
L 398.487273 121.00992 
" clip-path="url(#p921b95dabf)" style="fill: none; stroke: #e377c2; stroke-width: 1.5; stroke-linecap: square"/>
   </g>
   <g id="line2d_25">
    <path d="M 73.832727 306.40128 
L 78.827413 307.584 
L 83.822098 313.4976 
L 88.816783 302.85312 
L 93.811469 306.40128 
L 98.806154 309.35808 
L 103.800839 312.0192 
L 108.795524 307.87968 
L 113.79021 306.1056 
L 118.784895 302.26176 
L 123.77958 309.0624 
L 128.774266 310.83648 
L 133.768951 306.99264 
L 138.763636 313.20192 
L 143.758322 305.51424 
L 148.753007 313.20192 
L 153.747692 308.17536 
L 158.742378 302.85312 
L 163.737063 312.31488 
L 168.731748 306.69696 
L 173.726434 300.48768 
L 178.721119 300.48768 
L 183.715804 307.584 
L 188.71049 303.44448 
L 193.705175 305.51424 
L 198.69986 306.40128 
L 203.694545 311.72352 
L 208.689231 304.33152 
L 213.683916 307.87968 
L 218.678601 311.42784 
L 223.673287 305.80992 
L 228.667972 304.33152 
L 233.662657 305.21856 
L 238.657343 310.83648 
L 243.652028 308.47104 
L 248.646713 307.28832 
L 253.641399 308.76672 
L 258.636084 306.1056 
L 263.630769 299.89632 
L 268.625455 293.68704 
L 273.62014 307.584 
L 278.614825 308.76672 
L 283.60951 120.71424 
L 288.604196 115.68768 
L 293.598881 114.20928 
L 298.593566 111.54816 
L 303.588252 109.4784 
L 308.582937 109.77408 
L 313.577622 113.61792 
L 318.572308 114.20928 
L 323.566993 113.9136 
L 328.561678 114.80064 
L 333.556364 113.9136 
L 338.551049 116.27904 
L 343.545734 114.80064 
L 348.54042 116.8704 
L 353.535105 118.94016 
L 358.52979 115.98336 
L 363.524476 117.46176 
L 368.519161 117.46176 
L 373.513846 118.64448 
L 378.508531 117.46176 
L 383.503217 117.75744 
L 388.497902 117.75744 
L 393.492587 117.16608 
L 398.487273 116.27904 
" clip-path="url(#p921b95dabf)" style="fill: none; stroke: #7f7f7f; stroke-width: 1.5; stroke-linecap: square"/>
   </g>
   <g id="line2d_26">
    <path d="M 73.832727 306.99264 
L 78.827413 310.24512 
L 83.822098 311.13216 
L 88.816783 312.0192 
L 93.811469 308.47104 
L 98.806154 306.40128 
L 103.800839 307.28832 
L 108.795524 304.92288 
L 113.79021 310.83648 
L 118.784895 309.0624 
L 123.77958 307.28832 
L 128.774266 308.47104 
L 133.768951 307.87968 
L 138.763636 307.28832 
L 143.758322 308.76672 
L 148.753007 305.21856 
L 153.747692 303.1488 
L 158.742378 311.72352 
L 163.737063 304.92288 
L 168.731748 306.1056 
L 173.726434 312.31488 
L 178.721119 306.99264 
L 183.715804 305.80992 
L 188.71049 305.21856 
L 193.705175 309.0624 
L 198.69986 307.28832 
L 203.694545 310.83648 
L 208.689231 305.80992 
L 213.683916 311.42784 
L 218.678601 312.31488 
L 223.673287 303.44448 
L 228.667972 315.56736 
L 233.662657 308.47104 
L 238.657343 313.4976 
L 243.652028 308.47104 
L 248.646713 309.0624 
L 253.641399 310.83648 
L 258.636084 307.28832 
L 263.630769 305.80992 
L 268.625455 307.87968 
L 273.62014 307.28832 
L 278.614825 313.20192 
L 283.60951 308.76672 
L 288.604196 314.68032 
L 293.598881 310.83648 
L 298.593566 316.75008 
L 303.588252 306.40128 
L 308.582937 314.08896 
L 313.577622 127.2192 
L 318.572308 122.48832 
L 323.566993 119.8272 
L 328.561678 118.3488 
L 333.556364 113.9136 
L 338.551049 112.73088 
L 343.545734 112.73088 
L 348.54042 114.50496 
L 353.535105 114.80064 
L 358.52979 117.16608 
L 363.524476 117.75744 
L 368.519161 117.75744 
L 373.513846 118.05312 
L 378.508531 114.50496 
L 383.503217 113.32224 
L 388.497902 112.13952 
L 393.492587 113.61792 
L 398.487273 113.9136 
" clip-path="url(#p921b95dabf)" style="fill: none; stroke: #bcbd22; stroke-width: 1.5; stroke-linecap: square"/>
   </g>
   <g id="line2d_27">
    <path d="M 73.832727 308.76672 
L 78.827413 304.6272 
L 83.822098 309.65376 
L 88.816783 316.15872 
L 93.811469 307.28832 
L 98.806154 310.83648 
L 103.800839 314.38464 
L 108.795524 317.04576 
L 113.79021 309.94944 
L 118.784895 310.83648 
L 123.77958 306.69696 
L 128.774266 312.90624 
L 133.768951 303.74016 
L 138.763636 307.584 
L 143.758322 314.976 
L 148.753007 306.69696 
L 153.747692 306.40128 
L 158.742378 315.56736 
L 163.737063 310.83648 
L 168.731748 303.1488 
L 173.726434 304.6272 
L 178.721119 302.55744 
L 183.715804 311.13216 
L 188.71049 309.35808 
L 193.705175 314.38464 
L 198.69986 305.51424 
L 203.694545 305.51424 
L 208.689231 307.28832 
L 213.683916 303.74016 
L 218.678601 306.69696 
L 223.673287 301.96608 
L 228.667972 308.76672 
L 233.662657 301.96608 
L 238.657343 308.17536 
L 243.652028 305.21856 
L 248.646713 310.83648 
L 253.641399 307.584 
L 258.636084 304.92288 
L 263.630769 311.13216 
L 268.625455 309.0624 
L 273.62014 306.99264 
L 278.614825 305.21856 
L 283.60951 312.0192 
L 288.604196 304.03584 
L 293.598881 308.17536 
L 298.593566 311.72352 
L 303.588252 304.33152 
L 308.582937 309.65376 
L 313.577622 298.41792 
L 318.572308 300.78336 
L 323.566993 307.584 
L 328.561678 301.96608 
L 333.556364 310.5408 
L 338.551049 306.99264 
L 343.545734 127.51488 
L 348.54042 116.57472 
L 353.535105 113.9136 
L 358.52979 113.02656 
L 363.524476 110.06976 
L 368.519161 109.4784 
L 373.513846 110.9568 
L 378.508531 111.25248 
L 383.503217 112.4352 
L 388.497902 112.13952 
L 393.492587 113.02656 
L 398.487273 112.4352 
" clip-path="url(#p921b95dabf)" style="fill: none; stroke: #17becf; stroke-width: 1.5; stroke-linecap: square"/>
   </g>
   <g id="line2d_28">
    <path d="M 73.832727 307.584 
L 78.827413 313.79328 
L 83.822098 304.33152 
L 88.816783 307.87968 
L 93.811469 309.65376 
L 98.806154 309.94944 
L 103.800839 309.0624 
L 108.795524 306.40128 
L 113.79021 308.17536 
L 118.784895 309.65376 
L 123.77958 311.13216 
L 128.774266 302.26176 
L 133.768951 307.28832 
L 138.763636 306.40128 
L 143.758322 314.68032 
L 148.753007 310.24512 
L 153.747692 307.87968 
L 158.742378 296.34816 
L 163.737063 310.24512 
L 168.731748 311.13216 
L 173.726434 307.87968 
L 178.721119 303.74016 
L 183.715804 307.28832 
L 188.71049 309.0624 
L 193.705175 313.4976 
L 198.69986 304.03584 
L 203.694545 310.24512 
L 208.689231 312.61056 
L 213.683916 296.05248 
L 218.678601 302.26176 
L 223.673287 306.1056 
L 228.667972 308.47104 
L 233.662657 316.15872 
L 238.657343 301.37472 
L 243.652028 306.99264 
L 248.646713 309.0624 
L 253.641399 304.6272 
L 258.636084 307.87968 
L 263.630769 306.1056 
L 268.625455 307.584 
L 273.62014 306.40128 
L 278.614825 311.13216 
L 283.60951 304.92288 
L 288.604196 305.51424 
L 293.598881 315.27168 
L 298.593566 306.1056 
L 303.588252 299.60064 
L 308.582937 303.44448 
L 313.577622 308.76672 
L 318.572308 305.80992 
L 323.566993 306.69696 
L 328.561678 308.47104 
L 333.556364 303.1488 
L 338.551049 309.94944 
L 343.545734 302.85312 
L 348.54042 299.00928 
L 353.535105 301.37472 
L 358.52979 304.03584 
L 363.524476 307.87968 
L 368.519161 305.80992 
L 373.513846 105.63456 
L 378.508531 102.0864 
L 383.503217 97.6512 
L 388.497902 97.05984 
L 393.492587 95.87712 
L 398.487273 94.39872 
" clip-path="url(#p921b95dabf)" style="fill: none; stroke: #1f77b4; stroke-width: 1.5; stroke-linecap: square"/>
   </g>
   <g id="patch_3">
    <path d="M 57.6 307.584 
L 57.6 41.472 
" style="fill: none; stroke: #000000; stroke-width: 0.8; stroke-linejoin: miter; stroke-linecap: square"/>
   </g>
   <g id="patch_4">
    <path d="M 414.72 307.584 
L 414.72 41.472 
" style="fill: none; stroke: #000000; stroke-width: 0.8; stroke-linejoin: miter; stroke-linecap: square"/>
   </g>
   <g id="patch_5">
    <path d="M 57.6 307.584 
L 414.72 307.584 
" style="fill: none; stroke: #000000; stroke-width: 0.8; stroke-linejoin: miter; stroke-linecap: square"/>
   </g>
   <g id="patch_6">
    <path d="M 57.6 41.472 
L 414.72 41.472 
" style="fill: none; stroke: #000000; stroke-width: 0.8; stroke-linejoin: miter; stroke-linecap: square"/>
   </g>
  </g>
 </g>
 <defs>
  <clipPath id="p921b95dabf">
   <rect x="57.6" y="41.472" width="357.12" height="266.112"/>
  </clipPath>
 </defs>
</svg>
